<svg width="121" height="117" viewBox="0 0 121 117" fill="none" xmlns="http://www.w3.org/2000/svg">
<path d="M59.2957 29.8558C59.2908 29.9537 59.2884 30.0517 59.2884 30.1497C59.2884 30.4363 59.1929 30.7743 59.4966 30.9433C59.7146 31.0658 60.0551 31.0731 60.1604 30.8061C60.2657 30.5367 60.1775 30.2109 60.0869 29.9537C59.1512 27.2838 57.2529 25.0769 55.6265 22.7989C55.2101 22.1768 52.8659 19.5485 54.0588 19.1321C54.2891 19.0513 54.5414 19.0954 54.7447 19.2276C55.4109 19.6612 55.8273 20.3862 56.3001 21.0255C56.447 21.2239 56.594 21.4248 56.7361 21.6281C57.8898 23.2961 59.0214 24.9814 60.0183 26.7474C60.7434 27.9868 61.461 29.3879 61.2749 30.8625C61.2626 30.9654 61.2357 31.0633 61.2063 31.1638C61.074 31.6292 61.3239 32.0995 61.3165 32.5746C60.9761 35.4576 59.21 37.9242 57.5615 40.2537C57.3705 40.5255 57.1721 40.7901 56.9663 41.0522C56.0894 42.1716 53.8849 44.9027 53.395 43.8274C53.3338 43.6927 53.3264 43.5408 53.3607 43.3987C53.7355 41.8335 55.0729 40.6652 56.0037 39.4061C56.8512 38.3039 57.7795 37.2678 58.4948 36.0749C58.5487 35.9843 58.605 35.8961 58.6638 35.8079C59.0336 35.2641 60.0085 33.6622 60.18 32.7584C60.2608 32.3371 59.7758 32.0211 59.4354 32.2807C59.3545 32.3419 59.2957 32.4301 59.2786 32.5477C59.1463 33.9733 59.4158 35.2249 57.5444 35.3327C57.4684 35.3327 57.3705 35.4013 57.319 35.4674C56.7263 36.3174 56.1555 37.187 55.4795 37.9781C54.6369 39.0167 53.8604 40.2169 52.6039 40.7852C52.4642 40.8489 52.3124 40.8856 52.1605 40.8832C50.7178 40.8587 52.2021 37.8948 52.817 37.1747C52.8659 37.1184 52.9149 37.0596 52.9615 37.0008C53.8825 35.8153 54.8769 34.6885 55.8959 33.5838C56.2633 33.1356 55.6632 32.6334 55.4109 32.2758C55.2713 32.1117 55.1856 32.1215 55.0508 32.2856C54.7055 32.7069 54.3797 33.1454 54.0613 33.5887C53.5787 34.2623 53.0374 34.8869 52.4618 35.4748C51.6437 36.3076 50.37 37.0424 49.2114 36.4178C47.754 35.634 47.5311 33.3707 48.528 32.1337C48.5843 32.0627 48.6309 31.9427 49.1991 31.5018C48.0503 30.5514 47.5066 28.4351 48.4986 27.2128C50.6198 24.5993 53.0619 28.0799 54.3283 29.6157C54.5977 29.9586 54.8059 30.3456 55.068 30.6935C55.3693 31.1442 55.624 30.4216 55.8053 30.2085C55.9302 29.9905 56.1849 29.7259 55.9571 29.4908C55.5456 29.0156 55.1145 28.5551 54.703 28.0799C53.6792 26.9091 52.7435 25.6525 52.0111 24.2784C51.6486 23.617 51.5163 22.0616 52.5769 22.1866C52.7067 22.2012 52.8316 22.2429 52.9517 22.2992C53.4122 22.5221 53.7845 22.8552 54.1519 23.2031C55.4501 24.516 56.4568 26.0787 57.4244 27.639C57.4513 27.6831 57.4807 27.7247 57.5125 27.7639C57.6301 27.9011 57.7697 27.9672 57.9436 27.9329C59.0091 27.7737 59.3325 29.0352 59.2908 29.8509M50.3602 27.1026C48.2169 27.2838 48.1949 29.9341 50.054 30.62C50.6198 30.8282 51.0019 30.375 51.5041 30.2134C52.038 30.0395 52.7582 30.3089 52.474 30.9678C52.425 31.0829 52.2242 31.2323 52.1752 31.3499C52.0552 31.639 52.3785 31.8129 52.4716 32.0505C52.6577 32.533 52.1213 32.8465 51.6951 32.7682C51.6412 32.7584 51.5922 32.7388 51.5432 32.7192C51.0754 32.511 50.6149 32.3077 50.0907 32.3126C49.253 32.337 48.6994 33.236 48.6211 34.0909C48.5721 34.6469 48.7925 35.1931 49.1967 35.5777C51.1146 37.4025 53.8359 33.1111 54.8059 31.6047C54.9455 31.3377 54.6026 30.9139 54.436 30.6102C54.3307 30.4167 54.2131 30.2281 54.0931 30.0419C53.204 28.6727 52.1066 27.23 50.3602 27.105M56.1359 28.7511C55.9498 28.0726 55.5211 27.5067 55.1856 26.8993C54.5095 25.7113 53.8335 24.4964 52.9002 23.4872C52.8586 23.4407 52.8096 23.4015 52.7533 23.3745C52.4838 23.2496 52.4912 23.5656 52.55 23.8791C52.6039 24.1608 52.7067 24.4327 52.839 24.6874C53.6449 26.2428 54.9504 27.4847 56.1359 28.7511ZM56.1359 34.2182C55.9033 34.3162 55.406 34.8894 55.1758 35.1417C55.0435 35.2862 54.9137 35.4307 54.7839 35.5801C53.9364 36.555 52.3614 38.3382 52.3858 39.3694C52.3858 39.4551 52.4863 39.5066 52.5573 39.4576C53.0913 39.073 53.4244 38.446 53.8212 37.9267C54.5683 36.7632 55.4966 35.4478 56.1359 34.2182ZM55.5652 31.5312C55.8298 31.8692 56.4299 33.0988 56.9124 32.6163C57.2333 32.2097 57.9853 31.6781 57.5003 31.1344C56.3613 29.8141 56.4887 30.5367 55.5652 31.5312Z" fill="#8DD5DB"/>
<path d="M63.4769 33.2703C63.4818 33.1723 63.4842 33.0743 63.4842 32.9764C63.4842 32.6898 63.5797 32.3517 63.276 32.1827C63.058 32.0603 62.7175 32.0529 62.6122 32.3199C62.5069 32.5893 62.5951 32.9151 62.6857 33.1723C63.6214 35.8422 65.5197 38.0492 67.1486 40.3271C67.565 40.9493 69.9091 43.5775 68.7162 43.994C68.486 44.0748 68.2337 44.0307 68.0304 43.8984C67.3641 43.4649 66.9477 42.7398 66.475 42.1005C66.328 41.9021 66.1811 41.7013 66.039 41.498C64.8853 39.8299 63.7537 38.1447 62.7567 36.3786C62.0317 35.1392 61.314 33.7381 61.5002 32.2636C61.5124 32.1607 61.5394 32.0627 61.5688 31.9623C61.701 31.4969 61.4512 31.0266 61.4585 30.5514C61.799 27.6684 63.5651 25.2018 65.2135 22.8724C65.4046 22.6005 65.603 22.336 65.8088 22.0739C66.6857 20.9545 68.8901 18.2233 69.38 19.2987C69.4413 19.4334 69.4486 19.5852 69.4143 19.7273C69.0396 21.2925 67.7022 22.4609 66.7714 23.7199C65.9239 24.8221 64.9955 25.8583 64.2803 27.0511C64.2264 27.1418 64.1701 27.23 64.1113 27.3181C63.7414 27.8619 62.7665 29.4638 62.5951 30.3677C62.5142 30.789 62.9992 31.105 63.3397 30.8453C63.4205 30.7841 63.4793 30.6959 63.4965 30.5783C63.6287 29.1528 63.3593 27.9011 65.2307 27.7933C65.3066 27.7933 65.4046 27.7247 65.456 27.6586C66.0488 26.8086 66.6195 25.9391 67.2956 25.1479C68.1382 24.1094 68.9146 22.9091 70.1712 22.3409C70.3108 22.2772 70.4627 22.2429 70.6146 22.2453C72.0573 22.2698 70.5729 25.2337 69.9581 25.9538C69.9091 26.0101 69.8601 26.0689 69.8136 26.1277C68.8926 27.3132 67.8981 28.44 66.8792 29.5447C66.5117 29.9929 67.1118 30.4951 67.3641 30.8527C67.5038 31.0168 67.5895 31.007 67.7242 30.8429C68.0696 30.4216 68.3954 29.9831 68.7138 29.5398C69.1963 28.8662 69.7377 28.2416 70.3133 27.6537C71.1314 26.8209 72.4051 26.0861 73.5637 26.7107C75.0211 27.4945 75.244 29.7578 74.2471 30.9948C74.1907 31.0658 74.1442 31.1858 73.5759 31.6267C74.7247 32.5771 75.2661 34.6934 74.2765 35.9157C72.1553 38.5292 69.7132 35.0486 68.4468 33.5128C68.1774 33.1699 67.9692 32.7828 67.7071 32.435C67.4058 31.9843 67.151 32.7069 66.9698 32.92C66.8449 33.138 66.5901 33.4026 66.8179 33.6377C67.2294 34.1129 67.6605 34.5734 68.072 35.0486C69.0959 36.2194 70.0316 37.476 70.764 38.8501C71.124 39.5115 71.2588 41.0669 70.1957 40.9419C70.0659 40.9272 69.9385 40.8856 69.8209 40.8293C69.3604 40.6064 68.9881 40.2732 68.6207 39.923C67.3225 38.6101 66.3158 37.0473 65.3483 35.487C65.3213 35.4429 65.2919 35.4013 65.2601 35.3621C65.1425 35.2249 65.0029 35.1588 64.829 35.1931C63.7635 35.3523 63.4401 34.0909 63.4818 33.2752M72.4125 36.0235C74.5557 35.8422 74.5778 33.1919 72.7186 32.5061C72.1528 32.2979 71.7707 32.751 71.2686 32.9127C70.7346 33.0866 70.0144 32.8171 70.2986 32.1582C70.3476 32.0431 70.5484 31.8937 70.5974 31.7761C70.7174 31.4871 70.3917 31.3132 70.301 31.0756C70.1149 30.593 70.6513 30.2795 71.0775 30.3579C71.1314 30.3677 71.1804 30.3873 71.2294 30.4069C71.6972 30.6151 72.1577 30.8184 72.6819 30.8135C73.5196 30.789 74.0732 29.8901 74.1516 29.0352C74.2005 28.4792 73.9801 27.9329 73.5759 27.5484C71.658 25.7235 68.9367 30.015 67.9667 31.5214C67.8271 31.7884 68.17 32.2121 68.3366 32.5159C68.4443 32.7094 68.5595 32.898 68.6819 33.0841C69.5711 34.4534 70.6684 35.8961 72.4149 36.021M66.6391 34.375C66.8253 35.0535 67.2539 35.6193 67.5895 36.2268C68.2655 37.4147 68.9416 38.6297 69.8748 39.6388C69.9165 39.6854 69.9655 39.7246 70.0218 39.7515C70.2912 39.8764 70.2839 39.558 70.2251 39.2469C70.1712 38.9652 70.0683 38.6934 69.9361 38.4386C69.1277 36.8832 67.8246 35.6413 66.6391 34.375ZM66.6391 28.9078C66.8718 28.8098 67.369 28.2367 67.5993 27.9844C67.7316 27.8399 67.8614 27.6953 67.9912 27.5459C68.8387 26.5711 70.4137 24.7879 70.3892 23.7566C70.3892 23.6709 70.2888 23.6195 70.2178 23.6685C69.6838 24.053 69.3506 24.6801 68.9538 25.1994C68.2068 26.3629 67.2784 27.6782 66.6391 28.9078ZM67.2098 31.5949C66.9453 31.2568 66.3452 30.0272 65.8626 30.5098C65.5418 30.9164 64.7898 31.4479 65.2748 31.9917C66.4138 33.3119 66.2864 32.5893 67.2098 31.5949Z" fill="#8DD5DB"/>
<path d="M102.786 69.4094C102.318 69.4878 102.041 69.8528 101.693 70.132C100.412 71.1902 99.1972 72.4198 97.6222 73.0248C97.5781 72.9807 97.5732 72.9758 97.5291 72.9317C98.1292 71.2367 98.6044 69.4976 99.2045 67.8026C99.5401 66.3966 100.219 65.0371 100.197 63.5699C100.167 62.2325 98.117 61.6888 97.2523 62.938C96.9314 63.5013 96.711 64.0941 96.4905 64.6942C96.2358 65.9091 95.8684 67.0971 95.5671 68.3023C95.2095 69.6984 94.095 70.6562 92.9633 71.4547C90.7956 72.7211 89.1691 71.8956 90.5188 69.3972C91.3075 67.8663 92.302 66.4627 93.3112 65.0714C93.7374 64.4346 94.3032 63.4671 93.7104 62.7837C92.4612 61.3385 90.8593 62.1052 89.904 63.3838C88.7062 64.9882 87.9126 67.1069 87.408 69.0273C87.2733 69.5417 87.3541 70.4651 86.8128 70.7541C84.2237 72.1405 81.2795 74.0046 78.2299 73.3163C74.4186 71.9911 75.729 65.5099 79.0627 64.3366C79.9715 63.9545 81.5318 64.0476 81.7424 65.2086C81.8919 66.3378 81.2452 67.0971 80.5006 67.8173C80.2556 68.0549 80.0915 68.3708 80.0646 68.7113C79.9666 70.0144 81.7767 70.8154 82.9476 70.0757C84.4662 69.2379 85.4215 67.4009 85.1741 65.6691C84.4613 61.4757 79.7143 62.1272 77.0811 64.1358C74.5705 65.7671 73.4315 68.7285 73.1057 71.5943C73.0004 72.5153 71.4131 73.6347 70.5975 73.8845C70.2766 73.9825 69.8994 73.9629 69.6373 73.7498C69.4928 73.6322 69.3948 73.4632 69.3213 73.2893C69.0396 72.6084 69.0176 71.7609 68.9808 71.0334C68.9441 70.2692 69.0592 69.4976 69.0984 68.7407C69.1204 68.2827 69.1792 67.8271 69.2919 67.3837C69.674 65.9018 70.4995 64.5473 71.3911 63.3201C73.7842 60.0305 76.5545 54.6417 76.0205 51.6289C75.974 51.3717 75.8491 51.1341 75.6482 50.9651C74.9722 50.3944 73.7156 50.3527 73.0347 50.752C70.524 52.349 69.3311 55.3031 68.0966 57.8897C66.7445 61.1205 66.5118 64.5938 66.1591 68.0353C66.0317 69.282 66.1223 70.4284 65.2944 71.4008C64.7972 71.9862 62.2547 74.8766 61.4218 73.5465C61.243 72.1577 61.6962 70.8864 62.2032 69.6201C62.8597 67.9936 63.4671 66.3378 64.3122 64.7971C64.5547 64.1896 65.0299 63.4034 64.8315 62.7616C64.4592 61.8627 63.4157 61.5026 62.5339 61.7745C60.1383 63.2148 60.1016 68.3096 58.725 70.6488C58.2498 71.4571 57.6742 72.2581 56.9834 72.8974C56.4519 73.3898 55.3129 74.2716 54.5218 73.9801C54.2131 73.8674 54.0196 73.5441 53.9682 73.2207C53.7869 72.1136 54.3527 70.7321 54.7667 69.7229C55.3276 68.3537 56.0723 67.0849 56.7948 65.7989C57.3607 64.7922 58.5535 63.6802 57.9338 62.453C57.6056 61.9043 57.0006 61.4683 56.3613 61.385C54.7079 61.4781 53.6204 63.9692 52.9835 65.2527C52.1801 66.8669 51.6241 68.6035 51.3399 70.3843C51.1244 71.7437 50.8427 73.3579 51.6926 74.5581C52.4152 75.5796 53.6106 75.8025 54.774 75.6947C56.3466 75.5477 57.4537 74.3867 58.4115 73.2526C58.796 72.7382 58.9283 73.8135 59.0238 74.034C59.2124 74.4651 59.5015 74.8545 59.8664 75.1534C60.5425 75.7045 61.5247 75.9323 62.3453 75.6481C63.9864 75.0799 65.0593 73.7229 66.284 72.5692C67.7488 76.1919 70.3697 76.819 73.1743 74.0364C73.5001 73.6959 73.5662 73.7302 73.8675 74.1074C74.132 74.4357 74.4063 74.7835 74.7444 75.0211C75.7976 75.7045 77.0052 76.2213 78.274 76.2825C80.6328 76.6034 82.7834 75.4742 84.6548 74.1442C85.4607 73.5343 86.2372 72.8827 87.0259 72.2483C87.3517 71.9446 87.6162 72.3904 87.8146 72.6304C88.7674 73.8551 90.3718 73.9899 91.7705 73.6273C92.4049 73.4118 93.0466 73.2158 93.6222 72.8582C93.681 72.8215 93.8084 72.8019 93.8402 72.8362C94.0778 73.4534 93.3773 74.6267 93.2499 75.315C93.1887 75.5012 93.1103 75.6653 92.9193 75.7657C91.6774 76.4197 90.4404 77.0835 89.1912 77.7253C87.3541 78.6242 85.2966 79.8759 84.7479 81.9824C84.1086 84.2065 86.5458 85.9921 88.5764 85.5023C91.3296 84.8948 93.3577 82.4699 94.5947 80.0694C95.4079 78.7467 95.7851 77.2084 96.3656 75.7731C96.7698 74.7296 98.2223 74.3034 99.0355 73.5686C99.9149 72.8411 103.099 70.59 102.786 69.4168M69.9141 61.9974C69.9288 61.8921 69.941 61.7843 69.9606 61.679C70.0757 61.0543 70.2202 60.4322 70.3917 59.8198C70.6611 58.845 70.9943 57.8872 71.3764 56.9515C71.7511 56.0305 72.148 55.1169 72.6011 54.2326C72.9538 53.5444 73.3384 52.7532 73.9312 52.2339C74.2569 51.9498 74.7787 52.1776 74.786 52.6087C74.8301 54.8328 70.764 62.1272 69.8969 62.5363C69.8283 62.3991 69.8945 62.1468 69.9141 61.9974ZM91.7925 79.3713C91.1091 80.6622 90.2077 82.7711 88.6009 83.092C88.1551 83.1067 87.7093 82.6707 87.7338 82.2518C87.7828 80.7013 90.389 79.7289 91.5917 79.0553C91.8709 78.8986 91.8807 79.2023 91.7925 79.3713Z" fill="#EB99BD"/>
<path d="M46.0466 46.0882C42.4998 44.3712 38.544 43.8445 34.642 44.1801C30.3432 44.5475 25.9808 45.8776 22.7989 48.79C21.6991 49.7967 20.7463 50.9969 20.205 52.3857C19.3232 54.6441 19.8229 57.1793 21.2999 59.0654C22.6177 60.7481 25.0426 62.7885 27.3108 62.7934C28.151 62.7934 29.1577 62.2472 28.974 61.2919C28.827 60.5301 27.933 59.9741 27.301 59.6434C26.1424 59.0311 24.9593 58.4383 23.933 57.6202C22.9067 56.8021 22.0347 55.7268 21.7114 54.4555C21.148 52.2314 22.4193 49.8579 24.2637 48.496C26.767 46.6467 30.2991 46.0221 33.3511 45.9927C38.0859 45.9462 43.6413 47.5407 46.5561 51.526C48.0748 53.6007 48.7361 56.2093 48.812 58.7788C48.9125 62.1933 47.9866 65.6593 46.0907 68.508C44.332 71.1509 41.2555 73.936 37.8753 73.8429C35.8839 73.7914 35.1833 72.263 34.1791 70.7958C34.0051 70.541 33.7675 70.2544 33.4614 70.2838C33.0229 70.3255 32.9176 70.9256 32.9984 71.3567C33.3144 73.0297 34.6102 74.4185 36.1656 75.1141C37.7209 75.8073 39.4992 75.8735 41.1796 75.5893C44.1018 75.097 46.7055 73.9286 48.7435 71.7682C50.6516 69.745 52.0943 67.2833 52.9026 64.6207C55.0042 57.7035 52.8806 49.3974 46.0442 46.0882" fill="#EB99BD"/>
<path d="M36.8686 54.8475C37.3854 53.2774 37.8802 51.6191 39.4258 50.7495C39.6805 50.605 39.9573 50.4899 40.168 50.2841C40.5109 49.9486 40.5427 49.4464 40.0063 49.3925C35.1319 48.8831 32.2587 54.8132 31.0879 58.6343C30.0248 62.1125 29.5545 65.7671 28.2539 69.1645C27.7958 70.3622 27.2055 71.5625 26.2159 72.3806C25.1921 73.2305 23.5118 73.6322 22.505 72.5276C22.1033 72.0867 21.9294 71.5159 21.8412 70.9379C21.8045 70.6929 21.9221 69.478 21.7335 69.3702C21.3391 69.1424 20.6018 70.4921 20.5161 70.7958C20.3177 71.5086 20.3593 72.2704 20.6092 72.9636C21.1333 74.4308 22.5148 75.484 24.0555 75.6555C24.3642 75.6898 24.6703 75.6996 24.9716 75.6849C27.1712 75.582 29.192 74.2618 30.5392 72.5618C33.2654 69.1228 34.2134 64.5889 35.296 60.4077C35.7786 58.5437 36.2636 56.6772 36.8661 54.845" fill="#EB99BD"/>
<path d="M80.2875 55.5921C80.1307 55.4525 79.969 55.3496 79.8049 55.2834C79.6408 55.2173 79.462 55.1855 79.2758 55.1855C78.8888 55.1855 78.5826 55.3006 78.3524 55.5308C78.1221 55.7611 78.007 56.0722 78.007 56.4616C78.007 56.8511 78.1148 57.145 78.3254 57.3679C78.5385 57.5908 78.8276 57.7035 79.1974 57.7035C79.4081 57.7035 79.6016 57.6692 79.7829 57.5982C79.9617 57.5271 80.1282 57.4218 80.2826 57.2822L80.2777 58.0758C80.1135 58.1738 79.9396 58.2448 79.7584 58.2938C79.5771 58.3428 79.3885 58.3648 79.1877 58.3648C78.6096 58.3648 78.1368 58.186 77.7645 57.826C77.3947 57.4684 77.2085 57.0103 77.2085 56.4592C77.2085 55.9081 77.3947 55.4525 77.7645 55.0948C78.1368 54.7372 78.6145 54.5584 79.1999 54.5584C79.3959 54.5584 79.5869 54.578 79.7682 54.6196C79.9519 54.6613 80.1307 54.725 80.3095 54.8107L80.2826 55.5872L80.2875 55.5921Z" fill="#8DD5DB"/>
<path d="M81.6248 56.4665C81.6959 56.2314 81.7988 56.055 81.931 55.9375C82.0633 55.8199 82.2274 55.7611 82.4258 55.7611C82.4699 55.7611 82.5434 55.7685 82.6463 55.7856C82.6659 55.7881 82.6806 55.7905 82.6904 55.793L82.585 56.5498C82.5311 56.5278 82.4797 56.5131 82.4258 56.5008C82.3719 56.491 82.3156 56.4837 82.2568 56.4837C82.0413 56.4837 81.8869 56.5376 81.7939 56.6478C81.7008 56.758 81.6518 56.9417 81.6518 57.1989V58.2669H80.9464V55.8395H81.642L81.6273 56.4641L81.6248 56.4665Z" fill="#8DD5DB"/>
<path d="M85.3824 57.2332H83.5575C83.5869 57.4071 83.6506 57.5394 83.7486 57.6251C83.8466 57.7109 83.9813 57.755 84.1527 57.755C84.2826 57.755 84.3928 57.7305 84.4859 57.6815C84.5789 57.6325 84.6573 57.5566 84.721 57.4561L85.2893 57.7403C85.157 57.9534 84.9978 58.1101 84.8092 58.213C84.6206 58.3159 84.3977 58.3673 84.138 58.3673C83.7461 58.3673 83.4351 58.2497 83.2048 58.017C82.9746 57.7819 82.8594 57.4684 82.8594 57.0716C82.8594 56.6748 82.9795 56.3759 83.2195 56.131C83.4596 55.886 83.7657 55.7611 84.1405 55.7611C84.5153 55.7611 84.8312 55.8762 85.0566 56.1065C85.2795 56.3367 85.3922 56.6503 85.3922 57.0495C85.3922 57.0716 85.3922 57.0936 85.3922 57.1206C85.3922 57.1475 85.3873 57.1842 85.3824 57.2332ZM84.6843 56.807C84.6647 56.6527 84.6083 56.5376 84.5177 56.4592C84.4271 56.3808 84.2997 56.3416 84.1429 56.3416C83.9862 56.3416 83.8588 56.3808 83.7633 56.4592C83.6678 56.5376 83.6065 56.6527 83.582 56.807H84.6867H84.6843Z" fill="#8DD5DB"/>
<path d="M88.3486 58.2718H87.6652L87.675 57.924C87.5795 58.0783 87.4643 58.191 87.3296 58.262C87.1949 58.333 87.0308 58.3698 86.8373 58.3698C86.5164 58.3698 86.2567 58.2497 86.0583 58.0097C85.8599 57.7697 85.762 57.4537 85.762 57.0618C85.762 56.6699 85.8599 56.3343 86.0534 56.104C86.247 55.8762 86.5164 55.7611 86.8618 55.7611C87.0406 55.7611 87.1998 55.8028 87.3345 55.8811C87.4717 55.962 87.5844 56.082 87.6774 56.2436V55.8419H88.3461V58.2693L88.3486 58.2718ZM87.7044 57.0544C87.7044 56.8364 87.6505 56.665 87.5403 56.5376C87.43 56.4102 87.2831 56.3465 87.0969 56.3465C86.9107 56.3465 86.754 56.4102 86.6462 56.5351C86.536 56.6625 86.4821 56.834 86.4821 57.0544C86.4821 57.2749 86.536 57.4439 86.6438 57.5664C86.7515 57.6888 86.901 57.7501 87.092 57.7501C87.2831 57.7501 87.4374 57.6888 87.5452 57.5664C87.6529 57.4439 87.7068 57.2724 87.7068 57.0544" fill="#8DD5DB"/>
<path d="M90.8029 58.2007C90.7074 58.2595 90.6069 58.3012 90.5016 58.3281C90.3963 58.3551 90.2812 58.3698 90.1538 58.3698C89.7717 58.3698 89.4581 58.2473 89.2181 58.0048C88.9781 57.7623 88.8556 57.4439 88.8556 57.0544C88.8556 56.6649 88.9756 56.3612 89.2206 56.1236C89.4631 55.8836 89.7766 55.7635 90.1636 55.7635C90.2934 55.7635 90.4085 55.7758 90.509 55.8003C90.6118 55.8248 90.7098 55.864 90.8005 55.9179L90.7955 56.6258C90.7221 56.5498 90.6363 56.491 90.5384 56.4494C90.4404 56.4078 90.3375 56.3882 90.2297 56.3882C90.0313 56.3882 89.8746 56.4494 89.7545 56.5694C89.6345 56.6894 89.5757 56.8511 89.5757 57.052C89.5757 57.2528 89.637 57.4194 89.757 57.5418C89.8795 57.6619 90.0411 57.7231 90.2493 57.7231C90.362 57.7231 90.4649 57.7035 90.5531 57.6619C90.6412 57.6202 90.7221 57.5565 90.7955 57.4684L90.8005 58.2032L90.8029 58.2007Z" fill="#8DD5DB"/>
<path d="M91.3002 54.845C91.3002 54.7323 91.3418 54.6368 91.4226 54.556C91.5035 54.4751 91.599 54.4359 91.7117 54.4359C91.8244 54.4359 91.9223 54.4751 92.0056 54.556C92.0864 54.6368 92.1281 54.7323 92.1281 54.8474C92.1281 54.9626 92.0864 55.0581 92.0056 55.1389C91.9248 55.2198 91.8268 55.259 91.7117 55.259C91.5966 55.259 91.5035 55.2173 91.4226 55.134C91.3418 55.0508 91.3002 54.9552 91.3002 54.845ZM91.3614 55.8419H92.0644V58.2693H91.3614V55.8419Z" fill="#8DD5DB"/>
<path d="M95.3344 57.0667C95.3344 57.439 95.207 57.75 94.9523 57.9974C94.6975 58.2448 94.3742 58.3698 93.9823 58.3698C93.5904 58.3698 93.2622 58.2448 93.0074 57.9974C92.7527 57.75 92.6229 57.439 92.6229 57.0667C92.6229 56.6943 92.7502 56.3857 93.0099 56.1359C93.2671 55.886 93.5928 55.7635 93.9823 55.7635C94.3718 55.7635 94.6975 55.886 94.9523 56.1334C95.207 56.3784 95.3344 56.6919 95.3344 57.0691M94.6167 57.0642C94.6167 56.8658 94.5579 56.709 94.4428 56.5915C94.3277 56.4739 94.1734 56.4151 93.9774 56.4151C93.7815 56.4151 93.6271 56.4739 93.5145 56.5915C93.4018 56.709 93.343 56.8658 93.343 57.0667C93.343 57.2675 93.3993 57.4243 93.5145 57.5418C93.6271 57.6619 93.7815 57.7207 93.9774 57.7207C94.1734 57.7207 94.3252 57.6619 94.4428 57.5418C94.5579 57.4243 94.6167 57.2651 94.6167 57.0667" fill="#8DD5DB"/>
<path d="M95.8684 58.2718V55.8444H96.5591V56.2265C96.6865 56.0673 96.8237 55.9522 96.9682 55.8762C97.1152 55.8003 97.2768 55.7635 97.4556 55.7635C97.6443 55.7635 97.801 55.7954 97.9308 55.8591C98.0582 55.9228 98.1611 56.0207 98.2346 56.1506C98.2713 56.2191 98.2958 56.2951 98.3129 56.3784C98.3276 56.4641 98.3374 56.5964 98.3374 56.7776V58.2718H97.632V57.0716C97.632 56.7727 97.5977 56.5743 97.5291 56.4788C97.4605 56.3833 97.3405 56.3343 97.1715 56.3343C97.0735 56.3343 96.9853 56.3539 96.9021 56.3955C96.8212 56.4371 96.7527 56.4935 96.6988 56.567C96.6547 56.6258 96.6253 56.6894 96.6057 56.7654C96.5861 56.8389 96.5763 56.954 96.5763 57.1058V58.2718H95.8709H95.8684Z" fill="#8DD5DB"/>
<path d="M101.372 57.2332H99.5475C99.5769 57.4071 99.6405 57.5394 99.7385 57.6251C99.8365 57.7109 99.9712 57.755 100.143 57.755C100.272 57.755 100.383 57.7305 100.476 57.6815C100.569 57.6325 100.647 57.5566 100.711 57.4561L101.279 57.7403C101.147 57.9534 100.988 58.1101 100.799 58.213C100.611 58.3159 100.388 58.3673 100.128 58.3673C99.7361 58.3673 99.425 58.2497 99.1947 58.017C98.9645 57.7819 98.8494 57.4684 98.8494 57.0716C98.8494 56.6748 98.9694 56.3759 99.2094 56.131C99.4495 55.886 99.7557 55.7611 100.13 55.7611C100.505 55.7611 100.821 55.8762 101.047 56.1065C101.269 56.3367 101.382 56.6503 101.382 57.0495C101.382 57.0716 101.382 57.0936 101.382 57.1206C101.382 57.1475 101.377 57.1842 101.372 57.2332ZM100.674 56.807C100.655 56.6527 100.598 56.5376 100.508 56.4592C100.417 56.3808 100.292 56.3416 100.133 56.3416C99.9737 56.3416 99.8487 56.3808 99.7532 56.4592C99.6577 56.5376 99.5964 56.6527 99.572 56.807H100.677H100.674Z" fill="#8DD5DB"/>
<path d="M101.669 57.8456L102.21 57.5663C102.23 57.6594 102.276 57.7353 102.357 57.7892C102.435 57.8431 102.533 57.8701 102.651 57.8701C102.768 57.8701 102.857 57.848 102.923 57.8064C102.989 57.7647 103.021 57.7059 103.021 57.6325C103.021 57.5149 102.903 57.4169 102.668 57.3385C102.595 57.314 102.538 57.2944 102.494 57.2773C102.21 57.1695 102.012 57.0617 101.901 56.954C101.791 56.8437 101.737 56.7115 101.737 56.5498C101.737 56.3122 101.83 56.1187 102.016 55.9717C102.203 55.8248 102.45 55.7513 102.754 55.7513C102.972 55.7513 103.16 55.7954 103.32 55.8836C103.479 55.9717 103.594 56.0942 103.667 56.2559L103.151 56.5131C103.124 56.4224 103.075 56.3538 103.004 56.3073C102.935 56.2608 102.847 56.2363 102.744 56.2363C102.641 56.2363 102.555 56.2583 102.492 56.3C102.428 56.3416 102.396 56.3979 102.396 56.469C102.396 56.589 102.555 56.7017 102.876 56.807C102.915 56.8192 102.942 56.8266 102.962 56.8339C103.226 56.9221 103.418 57.0225 103.528 57.1401C103.638 57.2577 103.697 57.4047 103.697 57.5835C103.697 57.8235 103.604 58.017 103.418 58.1591C103.231 58.3012 102.979 58.3722 102.663 58.3722C102.413 58.3722 102.198 58.3256 102.021 58.2326C101.845 58.1395 101.725 58.0121 101.666 57.8505" fill="#8DD5DB"/>
<path d="M69.7524 0.844535C51.6094 -0.37039 33.5276 4.39133 21.0966 17.4469C11.3478 27.688 5.34914 40.5133 5.39813 54.5486C5.47651 76.9904 17.3049 97.6686 42.9457 108.784C52.6357 112.985 64.9343 112.973 75.2808 110.712C86.509 108.258 95.7729 102.886 104.285 94.406C116.052 82.6805 120.076 65.963 119.109 49.6203C123.635 73.2452 110.795 98.4574 88.4711 110.092C65.581 122.023 36.8025 118.217 18.6055 100.853C-0.622606 82.5017 -5.47496 55.183 6.52488 31.9476C18.1475 9.44209 43.4943 -3.53262 69.7524 0.844535Z" fill="#8DD5DB"/>
<path d="M53.1256 109.793C69.7377 110.905 86.2935 106.545 97.6761 94.5897C106.604 85.2132 112.096 73.4706 112.049 60.6208C111.976 40.0724 101.147 21.1406 77.669 10.9607C68.7971 7.11512 57.5346 7.12492 48.0626 9.19715C37.7822 11.4433 29.2998 16.3618 21.5057 24.129C10.733 34.8649 7.0466 50.1715 7.9333 65.1351C3.79129 43.5016 15.5486 20.4181 35.9868 9.76297C56.9442 -1.16155 83.2954 2.324 99.9565 18.2234C117.563 35.0265 122.009 60.0403 111.021 81.3137C100.378 101.918 77.1718 113.798 53.128 109.791" fill="#EB99BD"/>
<path d="M20.3936 80.1183C20.4304 80.1061 20.4646 80.0841 20.5014 80.0816C20.6435 80.0767 20.7831 80.0816 20.9251 80.0792C20.9962 80.0767 21.0329 80.1012 21.0599 80.1698C21.2632 80.694 21.4689 81.2182 21.6747 81.7423C21.6845 81.7644 21.6943 81.7889 21.709 81.8232C21.7237 81.7938 21.7335 81.7766 21.7433 81.757C21.9809 81.1937 22.2209 80.6327 22.456 80.0694C22.4781 80.013 22.5026 79.9787 22.5736 79.9787C22.6471 79.9787 22.6691 80.0179 22.6912 80.0718C22.9239 80.6303 23.1566 81.1912 23.3893 81.7497C23.3991 81.7717 23.4089 81.7938 23.426 81.8281C23.5167 81.6003 23.6024 81.3798 23.6906 81.1618C23.8228 80.8262 23.9551 80.4931 24.0849 80.1575C24.107 80.0988 24.1388 80.0767 24.2025 80.0767C24.3544 80.0816 24.5038 80.0767 24.6557 80.0767C24.7438 80.0767 24.7659 80.111 24.7316 80.1918C24.3348 81.1373 23.938 82.0828 23.5412 83.0283C23.5289 83.0552 23.4922 83.0895 23.4701 83.0871C23.4456 83.0871 23.4138 83.0503 23.4015 83.0209C23.1394 82.4135 22.8798 81.806 22.6177 81.1986C22.6055 81.1716 22.5932 81.1447 22.5761 81.1055C22.5614 81.1373 22.5491 81.1594 22.5393 81.1814C22.2772 81.7889 22.0176 82.3963 21.758 83.0038C21.7531 83.0136 21.7531 83.0258 21.7457 83.0307C21.7237 83.0528 21.7016 83.0871 21.6771 83.0871C21.6551 83.0871 21.6232 83.0552 21.611 83.0307C21.5155 82.8103 21.4224 82.5849 21.3293 82.3645C21.0329 81.6542 20.7341 80.9463 20.4353 80.2384C20.423 80.2114 20.4083 80.1869 20.3936 80.16V80.1135V80.1183Z" fill="#EB99BD"/>
<path d="M29.1455 80.3658C29.6182 79.822 30.6127 79.8587 30.9507 80.4637C30.9997 80.4099 31.0487 80.356 31.0977 80.3045C31.4823 79.9028 32.1363 79.92 32.4767 80.111C32.7658 80.2751 32.9054 80.5348 32.9323 80.8581C32.947 81.0222 32.9421 81.1912 32.9421 81.3553C32.9421 81.8403 32.9421 82.3278 32.9421 82.8128C32.9421 82.9205 32.9348 82.9279 32.827 82.9279H32.4719C32.3665 82.9279 32.3592 82.9205 32.3592 82.8177C32.3592 82.2935 32.3616 81.7693 32.3592 81.2451C32.3592 81.1324 32.342 81.0173 32.3175 80.9095C32.2636 80.6866 32.1216 80.5568 31.8913 80.5152C31.5337 80.4515 31.181 80.6328 31.0904 80.9512C31.0487 81.0933 31.0414 81.25 31.0389 81.3994C31.034 81.8697 31.0389 82.3425 31.0389 82.8128C31.0389 82.923 31.034 82.9279 30.9238 82.9279C30.8062 82.9279 30.6862 82.9279 30.5686 82.9279C30.4805 82.9279 30.4658 82.9132 30.4658 82.8226C30.4658 82.2935 30.4707 81.7644 30.4633 81.2353C30.4633 81.1031 30.4388 80.9683 30.3996 80.8434C30.3457 80.6621 30.211 80.5593 30.0224 80.5225C29.8656 80.4931 29.7113 80.5005 29.5619 80.5617C29.2778 80.6768 29.1553 80.8997 29.1504 81.1961C29.1455 81.5195 29.1455 81.8403 29.1455 82.1637C29.1455 82.3841 29.1455 82.607 29.1455 82.8299C29.1455 82.9156 29.1308 82.9303 29.0426 82.9303C28.9275 82.9303 28.8099 82.9303 28.6948 82.9303C28.5797 82.9303 28.5699 82.9279 28.5699 82.8079V80.6328C28.5699 80.4809 28.5723 80.3315 28.5699 80.1796C28.5699 80.1086 28.5944 80.0792 28.6679 80.0816C28.7952 80.0841 28.9251 80.0816 29.0524 80.0816C29.1382 80.0816 29.1504 80.0939 29.1504 80.1845C29.1504 80.2384 29.1504 80.2947 29.1504 80.3658" fill="#EB99BD"/>
<path d="M35.8104 80.405C35.8104 80.3291 35.8104 80.2556 35.8104 80.1821C35.8104 80.1135 35.8349 80.0792 35.9084 80.0817C36.0358 80.0841 36.1656 80.0817 36.293 80.0817C36.3934 80.0817 36.4056 80.0939 36.4056 80.1943C36.4056 80.8557 36.4056 81.5195 36.4056 82.1808C36.4056 82.3915 36.4056 82.6046 36.4056 82.8152C36.4056 82.9181 36.3934 82.9304 36.293 82.9304C36.168 82.9304 36.0407 82.9304 35.9157 82.9304C35.8521 82.9304 35.8227 82.9059 35.8251 82.8397C35.8251 82.7638 35.8251 82.6854 35.8251 82.5997C35.7541 82.6683 35.6977 82.732 35.6341 82.7858C35.1589 83.1778 34.3848 83.1239 33.9488 82.6683C33.6623 82.3694 33.5471 82.002 33.5324 81.5979C33.5226 81.2819 33.5594 80.9757 33.7039 80.6891C33.9709 80.1576 34.4632 79.9396 35.0192 79.991C35.3352 80.0204 35.5949 80.1576 35.8104 80.405ZM34.1374 81.4901C34.1374 81.4901 34.1448 81.4901 34.1497 81.4925C34.1521 81.5538 34.1546 81.6126 34.1595 81.6738C34.2011 82.0682 34.3995 82.4258 34.9286 82.4576C35.3573 82.4821 35.6781 82.2886 35.781 81.8673C35.8153 81.7277 35.8251 81.5783 35.8178 81.4337C35.7957 80.939 35.465 80.525 34.8796 80.574C34.5514 80.6009 34.2967 80.792 34.206 81.108C34.1693 81.2329 34.1595 81.3627 34.1374 81.4925" fill="#EB99BD"/>
<path d="M27.9673 81.5121C27.9746 82.3988 27.2129 83.0479 26.4266 83.0479C25.5815 83.0479 24.8932 82.3694 24.8761 81.5464C24.8565 80.7038 25.535 79.9812 26.4119 79.9812C27.2814 79.9812 27.9673 80.6548 27.9697 81.5097M25.4958 81.5097C25.5031 81.5807 25.5056 81.6493 25.5178 81.7179C25.6281 82.3278 26.3237 82.6658 26.8577 82.367C27.2153 82.1661 27.3941 81.7766 27.3304 81.3308C27.2569 80.8116 26.7426 80.4515 26.2306 80.5642C25.7971 80.6572 25.4982 81.0418 25.4933 81.5121" fill="#EB99BD"/>
<path d="M37.792 80.3658C37.814 80.3486 37.8263 80.3413 37.8361 80.3315C38.1276 80.0351 38.4901 79.9567 38.8894 79.991C39.127 80.0131 39.345 80.089 39.5238 80.258C39.7271 80.454 39.8079 80.7013 39.8103 80.9732C39.8152 81.5905 39.8103 82.2078 39.8103 82.8226C39.8103 82.9132 39.7981 82.9279 39.705 82.9279C39.5752 82.9279 39.4429 82.9279 39.3131 82.9279C39.22 82.9279 39.2078 82.9156 39.2078 82.8226C39.2078 82.291 39.2127 81.7595 39.2053 81.228C39.2053 81.1006 39.1808 80.9708 39.1417 80.8508C39.0755 80.645 38.9163 80.5421 38.7081 80.5152C38.4362 80.4809 38.1864 80.525 37.9831 80.7283C37.8557 80.8557 37.8067 81.0149 37.8043 81.1863C37.7969 81.5415 37.7969 81.8967 37.7945 82.2518C37.7945 82.4429 37.7945 82.634 37.7945 82.825C37.7945 82.9132 37.7822 82.923 37.694 82.9254C37.5618 82.9254 37.4319 82.9254 37.3021 82.9254C37.2384 82.9254 37.2115 82.9009 37.2115 82.8348C37.2115 81.9432 37.2115 81.0516 37.2115 80.16C37.2115 80.0988 37.236 80.0743 37.2972 80.0743C37.4319 80.0743 37.5691 80.0743 37.7063 80.0743C37.7675 80.0743 37.7945 80.0988 37.792 80.16C37.792 80.2213 37.792 80.2825 37.792 80.3584" fill="#EB99BD"/>
<path d="M48.4104 82.3155C48.1752 82.3915 47.8127 82.3547 47.6927 82.6095C47.5531 82.9793 47.3694 83.3296 47.1612 83.6652C46.6492 84.4808 45.7576 85.2475 44.7436 85.2059C43.8691 85.005 44.3321 83.9101 44.8538 83.5672C45.2531 83.2439 45.7013 83.0112 46.1765 82.8201C46.392 82.6952 46.735 82.6952 46.8623 82.465C47.144 81.6125 47.3645 80.7283 47.3939 79.8269C46.7644 80.0792 46.1496 80.4662 45.6768 80.961C45.498 81.179 45.3118 81.4533 45.3535 81.7473C45.4049 81.9604 45.6156 82.0412 45.7944 81.9138C46.0369 81.7987 46.0026 81.3945 46.2157 81.4068C46.8623 81.5415 45.9928 82.2102 45.6695 82.1759C45.1134 82.242 45.0326 81.6248 45.2702 81.2451C45.7895 80.3535 46.7987 79.893 47.6609 79.3909C47.8005 79.3272 48.1605 79.0994 48.2561 79.2856C48.3124 80.0106 48.1532 80.7307 48.0332 81.4411C47.9328 82.1269 47.4919 82.4086 48.4275 82.1073C48.5623 82.0044 48.5598 81.7767 48.6455 81.6297C48.795 81.2329 49.0374 80.8851 49.0987 80.4589C49.2163 80.3584 49.3608 80.378 49.5004 80.4319C49.9266 80.7626 49.1991 81.6885 49.0399 82.0657C48.621 82.8544 49.1183 82.5384 49.3926 82.0926C49.7061 81.6419 49.9756 81.1692 50.1715 80.6573C50.2426 80.5666 50.1617 80.4001 50.2769 80.3511C50.4361 80.2849 50.6639 80.2996 50.7398 80.4784C50.8451 81.1349 50.2034 81.713 50.0246 82.318C49.929 82.825 50.5635 81.9726 50.6247 81.8673C50.9064 81.4215 51.2958 80.8508 51.3326 80.3217C51.5873 80.1233 51.9498 80.2874 51.8959 80.6205C51.9425 80.645 51.9621 80.6156 51.9841 80.5936C52.1899 80.3658 52.7386 79.8857 52.9272 80.3584C53.0888 81.0296 52.5426 81.588 52.3687 82.2004C52.354 82.4086 52.5671 82.269 52.6283 82.1759C53.079 81.6591 53.422 81.0663 53.6718 80.4295C53.7796 80.1821 53.613 80.018 54.1004 80.0988C54.6859 80.4344 53.5689 81.6787 53.5052 82.1588C53.5224 82.3082 53.6669 82.1906 53.7232 82.1294C54.463 81.4533 54.6295 80.0351 55.793 79.9371C56.158 79.8661 56.278 80.5421 55.8885 80.4295C55.7391 80.3535 55.9228 80.2286 55.8518 80.16C55.4452 80.2286 55.0729 81.0982 54.9504 81.4705C54.6883 82.7074 55.4746 81.9432 55.695 81.3309C55.5113 81.0957 55.5897 80.6205 55.9571 80.6965C56.1261 80.7528 56.0331 80.983 56.0306 81.1153C56.5376 81.2574 56.7483 80.5103 56.883 80.1478C56.1531 79.5452 57.4268 78.8349 57.199 79.9469C57.3264 80.04 57.4905 79.9592 57.6105 79.8881C57.9289 79.6628 58.2523 79.9396 58.1273 80.2996C58.1347 80.5446 57.1108 82.0216 57.466 81.9506C57.8726 81.6321 58.1322 81.152 58.387 80.7111C58.5413 80.4687 58.6221 80.6989 58.4997 80.8655C58.2302 81.3137 57.9681 81.7791 57.5566 82.1147C57.1108 82.4649 56.834 82.0167 56.9712 81.5807C57.0667 81.0786 57.3827 80.6597 57.5248 80.1796C57.3852 80.1894 57.1255 80.1355 57.0569 80.28C56.8806 80.645 56.7434 81.1153 56.3123 81.2476C56.1702 81.3088 55.962 81.2672 55.8812 81.4264C55.7342 81.6836 55.5946 81.953 55.3717 82.1514C54.9063 82.6217 54.2915 82.4258 54.3136 81.7301C54.2719 81.713 54.2548 81.7326 54.2401 81.7571C54.1029 81.9579 53.951 82.149 53.7698 82.3131C53.6008 82.4919 53.2211 82.6315 53.1158 82.3155C53.0668 82.2078 53.0986 82.0608 53.0472 81.9653C52.8439 82.1294 52.719 82.389 52.4765 82.5188C52.1923 82.6952 51.9302 82.4503 51.9572 82.149C51.9817 81.6199 52.2805 81.1692 52.4985 80.7013C52.7655 79.942 51.8813 80.9463 51.771 81.1178C51.531 81.4999 51.1195 82.0926 51.0827 82.5311C51.0729 82.7687 50.6761 82.7148 50.6345 82.5066C50.6075 82.4062 50.61 82.3327 50.5977 82.22C50.2524 82.6462 49.5543 83.1606 49.5714 82.22C49.52 82.1955 49.5004 82.2298 49.4832 82.2518C49.3412 82.4356 49.1893 82.6119 48.9958 82.7466C48.8464 82.852 48.5892 82.8716 48.4937 82.6903C48.4153 82.5654 48.4888 82.4453 48.4128 82.3131M46.7031 82.8152C46.0491 83.0357 45.4098 83.3198 44.8832 83.7656C44.4374 84.0644 44.1288 85.1912 45.0155 84.836C45.8483 84.471 46.4043 83.648 46.7031 82.8152Z" fill="#EB99BD"/>
<path d="M54.1568 79.0798C54.392 79.0112 54.703 79.217 54.5683 79.484C54.4826 79.5991 54.4703 79.8489 54.2915 79.8391C53.7674 79.7877 53.9437 79.3762 54.1593 79.0798" fill="#EB99BD"/>
<path d="M69.8749 82.8225C69.8627 82.8054 70.088 82.727 70.1101 82.7099C70.2227 82.6192 70.1909 82.3939 70.1909 82.2665C70.1909 81.8011 70.1958 81.3333 70.2178 80.8679C70.2301 80.6254 70.2472 80.3853 70.2693 80.1453C70.2791 80.0449 70.3428 79.7093 70.1713 79.6922C70.0978 79.6848 70.0733 79.626 70.0807 79.5599C70.0782 79.4815 70.1688 79.4668 70.2276 79.4448C70.3868 79.4644 70.5534 79.3933 70.7028 79.4717C70.8008 79.5182 70.7273 79.653 70.6367 79.6603C70.4701 79.6726 70.5657 80.7919 70.5657 80.8826C70.5657 81.1251 70.5583 81.37 70.5485 81.6125C70.5412 81.8379 70.4922 82.0681 70.4922 82.2886C70.4799 82.3988 70.4456 82.6364 70.5828 82.6878C70.8082 82.6829 71.0457 82.7344 71.2637 82.6903C71.298 82.6609 71.2907 82.6192 71.3029 82.5825C71.3274 82.4747 71.494 82.3449 71.5748 82.4674C71.6606 82.6045 71.5748 82.7736 71.5969 82.9254C71.6091 83.1655 71.4524 83.2855 71.2393 83.1434C71.1903 83.1091 71.1829 83.0283 71.1094 82.9916C70.8351 82.8593 70.4897 82.9132 70.1982 82.9622C70.0831 82.9818 69.9729 82.9793 69.9166 83.0944C69.8725 83.1851 69.8994 83.3492 69.8112 83.4153C69.3556 83.7607 68.9392 83.5329 68.7114 83.0577C68.5645 82.754 68.4934 82.4233 68.3808 82.1073C68.2852 81.833 68.1579 81.4802 67.8051 81.5047C67.7488 81.5072 67.6925 81.5292 67.6582 81.5709C67.5381 81.7178 67.6214 81.9628 67.6337 82.1318C67.6435 82.2837 67.641 82.438 67.6288 82.5898C67.619 82.6976 67.5553 82.8666 67.6288 82.9646C67.6655 83.0136 67.7463 83.0087 67.7806 83.0626C67.8835 83.381 67.2687 83.2585 67.0923 83.3492C66.9527 83.3516 66.9723 83.1214 67.0874 83.0944C67.1266 83.0773 67.1854 83.0822 67.2026 83.0356C67.2687 82.8617 67.2467 82.6535 67.2295 82.4723C67.2075 82.2396 67.1928 82.0044 67.183 81.7717C67.1683 81.4288 67.1683 81.0859 67.1781 80.743C67.1781 80.6842 67.2026 79.9616 67.1781 79.9714C67.0752 80.0179 66.6882 80.0939 66.6759 79.9101C66.6637 79.7166 67.0629 79.6995 67.1879 79.675C67.4426 79.6211 67.6998 79.5819 67.9594 79.5942C68.4861 79.6162 69.0715 79.8881 69.0641 80.4956C69.0617 80.8189 68.851 81.1324 68.5522 81.2549C68.4983 81.2769 68.4273 81.3161 68.442 81.3725C68.4469 81.3896 68.4567 81.4043 68.4689 81.4166C68.6845 81.6934 68.807 82.0167 68.9147 82.3474C69.0127 82.6021 69.2258 83.6578 69.6202 83.1875C69.6765 83.114 69.6618 82.9254 69.5369 82.9475C69.483 82.9769 69.4316 83.016 69.3654 83.0013C69.1156 82.7809 69.6104 82.4282 69.8774 82.8201M67.6827 79.9787C67.4892 80.3486 67.6165 80.8018 67.6165 81.201C67.6165 81.2353 67.6557 81.2647 67.6876 81.2524C68.0378 81.2133 68.3318 81.179 68.54 80.8507C68.7384 80.6058 68.6061 80.0449 68.3048 79.9444C68.1015 79.9053 67.8786 79.9175 67.6827 79.9763" fill="#EB99BD"/>
<path d="M64.4371 82.7956C64.5032 82.7344 64.5596 82.6658 64.6086 82.5923C64.8021 82.3057 64.9196 81.9653 64.9368 81.6175C64.9392 81.5562 64.9392 81.4925 64.9098 81.4386C64.8437 81.326 64.6845 81.3284 64.5522 81.3235C64.42 81.3186 64.2534 81.25 64.2681 81.1202C64.2828 80.983 64.4689 80.9561 64.6086 80.9684C64.8339 80.9879 65.0617 81.0051 65.2871 81.0247C65.3581 81.0296 65.4414 81.0443 65.4732 81.108C65.5271 81.2182 65.3752 81.3088 65.2993 81.4068C65.2234 81.5023 65.2185 81.6371 65.2087 81.7595C65.1768 82.1735 65.0495 82.5923 64.7702 82.8985C64.4199 83.2806 63.7268 83.4496 63.2908 83.1092C63.0997 82.9597 62.9601 82.7491 62.8792 82.5213C62.7543 82.171 62.7617 81.7865 62.8107 81.4166C62.8817 80.8777 63.0581 80.329 63.4353 79.9371C63.8125 79.5452 64.4297 79.3493 64.9245 79.582C64.9735 79.5036 65.0421 79.4179 65.1327 79.4276C65.2356 79.4374 65.2797 79.5575 65.3042 79.6579C65.3336 79.7755 65.3605 79.8955 65.3336 80.0131C65.3042 80.1306 65.1989 80.236 65.0788 80.2213C64.9392 80.2041 64.8706 80.0474 64.7776 79.942C64.6575 79.8073 64.4787 79.7657 64.3048 79.7951C63.7537 79.8881 63.4941 80.4221 63.4059 80.9267C63.3177 81.4215 63.3397 81.9604 63.4843 82.4429C63.5283 82.5923 63.5969 82.7442 63.7194 82.8446C63.9448 83.0308 64.2387 82.9818 64.442 82.7956" fill="#EB99BD"/>
<path d="M72.2778 82.9793C72.0769 82.972 71.8859 82.8838 71.7609 82.7123C71.565 82.4478 71.5527 81.8526 71.9667 81.7938C72.1088 81.7742 72.2655 81.8281 72.3831 81.9065C72.4664 81.9628 72.5301 82.051 72.5325 82.1539C72.5325 82.2249 72.5007 82.3008 72.4394 82.3376C72.3782 82.3743 72.29 82.367 72.241 82.3131C72.1896 82.2567 72.1896 82.1637 72.1284 82.1196C72.0818 82.0877 72.0132 82.0951 71.9691 82.1318C71.925 82.1686 71.9054 82.2273 71.903 82.2837C71.8981 82.4772 72.0475 82.7123 72.2484 82.7417C72.3488 82.7564 72.4517 82.7172 72.5374 82.6609C72.9955 82.3498 72.7921 81.9016 72.6084 81.4999C72.5105 81.2819 72.361 81.0859 72.241 80.8801C72.0034 80.476 71.8393 80.013 72.1994 79.6236C72.3635 79.4448 72.6427 79.3003 72.8779 79.4301C72.9269 79.457 72.971 79.4938 73.0199 79.5232C73.0689 79.5501 73.1277 79.5697 73.1816 79.555C73.2037 79.5501 73.2233 79.5379 73.2428 79.533C73.6617 79.4007 73.282 80.0351 73.2477 80.1404C73.211 80.2384 73.0542 80.3658 72.944 80.3143C72.7481 80.2237 72.9857 80.04 72.9881 79.9273C72.993 79.8122 72.7995 79.675 72.6917 79.6799C72.2582 79.6971 72.3733 80.2261 72.5399 80.4784C72.8754 80.9879 73.407 81.6419 73.1963 82.2935C73.1008 82.5874 72.873 82.8128 72.5888 82.9279C72.4884 82.9671 72.3806 82.9867 72.2753 82.9818" fill="#EB99BD"/>
<path d="M65.7206 80.1429C65.6618 80.138 65.5981 80.1478 65.5394 80.111C65.4757 80.0694 65.434 79.9787 65.5149 79.92C65.6545 79.8195 65.8357 79.8416 65.995 79.7901C66.1419 79.7754 66.4138 79.675 66.4799 79.8587C66.5118 80.1723 66.3011 79.9959 66.2448 80.1159C66.1395 80.3462 66.2717 80.8459 66.2938 81.0932C66.333 81.5537 66.4089 82.0118 66.4603 82.4698C66.4628 82.4919 66.4824 82.509 66.5044 82.5139C66.5877 82.5262 66.7077 82.5213 66.7224 82.629C66.7175 82.825 66.1052 82.8936 65.9435 82.923C65.8382 82.9426 65.6961 82.8642 65.7304 82.7613C65.7696 82.6413 65.9901 82.6609 66.017 82.536C66.0219 82.5188 66.017 82.4992 66.017 82.4796C65.9803 82.051 65.919 81.6101 65.8872 81.1765C65.8725 80.9659 65.8676 80.7577 65.8627 80.547C65.8602 80.4172 65.9043 80.1625 65.7182 80.1453" fill="#EB99BD"/>
<path d="M61.4806 81.326H59.5358V81.6958H61.4806V81.326Z" fill="#EB99BD"/>
<path d="M43.6315 81.326H41.6866V81.6958H43.6315V81.326Z" fill="#EB99BD"/>
</svg>
