<svg width="150" height="51" viewBox="0 0 150 51" fill="none" xmlns="http://www.w3.org/2000/svg">
<path d="M21.2983 27.0733C18.4339 30.2611 15.3846 31.6933 11.6424 31.6933C4.06561 31.6933 0 26.1955 0 20.5129C0 14.4144 4.34281 9.33243 11.0418 9.33243C17.6484 9.33243 22.2685 14.3682 22.2685 21.9451H3.92701C4.48141 25.5949 7.43822 28.2745 11.5962 28.2745C14.2296 28.2745 16.5858 27.0271 18.4339 24.8095L21.2983 27.0733ZM18.0642 18.8959C17.6946 15.3846 14.8302 12.7974 10.9956 12.7974C6.46802 12.7974 4.29661 15.9852 3.92701 18.8959H18.0642Z" fill="white"/>
<path d="M42.8733 0H46.5693V31.2313H42.8733V27.9511H42.7809C41.2101 30.1687 38.5305 31.7395 34.7883 31.7395C28.8285 31.7395 23.4692 27.0733 23.4692 20.3281C23.4692 14.1834 28.5513 9.37863 34.6035 9.37863C37.7451 9.37863 40.9791 10.6722 42.7347 13.2594H42.8271V0H42.8733ZM35.3427 12.7974C30.3531 12.7974 27.4886 16.7706 27.4886 20.3743C27.4886 25.3177 31.3233 28.3207 35.2041 28.3207C39.4545 28.3207 42.8733 24.8557 42.8733 20.6053C42.8733 16.2162 39.3621 12.7974 35.3427 12.7974Z" fill="white"/>
<path d="M70.363 27.0732C67.4986 30.2611 64.4494 31.6933 60.7072 31.6933C53.0842 31.6933 49.0186 26.1954 49.0186 20.4666C49.0186 14.3682 53.3614 9.28619 60.0604 9.28619C66.667 9.28619 71.287 14.322 71.287 21.8988H52.9456C53.5 25.5486 56.4568 28.2282 60.6148 28.2282C63.2482 28.2282 65.6044 26.9808 67.4986 24.7632L70.363 27.0732ZM67.129 18.8958C66.7594 15.3846 63.895 12.7974 60.0604 12.7974C55.5328 12.7974 53.3614 15.9852 52.9918 18.8958H67.129Z" fill="white"/>
<path d="M123.216 14.9226C121.737 13.4904 120.074 12.7974 118.226 12.7974C114.576 12.7974 111.157 15.477 111.157 20.7439C111.157 25.0867 114.299 28.3207 118.596 28.3207C120.351 28.3207 122.107 27.3505 123.354 26.1493L125.526 28.8751C123.585 30.8617 120.859 31.7857 118.134 31.7857C111.573 31.7857 107.184 26.5651 107.184 20.6515C107.184 14.5068 111.989 9.37863 118.134 9.37863C121.368 9.37863 124.14 10.7184 125.664 12.0582L123.216 14.9226Z" fill="white"/>
<path d="M138.277 9.33243C145.023 9.33243 149.874 14.5068 149.874 20.5591C149.874 26.6575 145.254 31.7395 138.277 31.7395C131.301 31.7395 126.681 26.7037 126.681 20.5591C126.681 14.5068 131.532 9.33243 138.277 9.33243ZM130.654 20.5591C130.654 24.6709 134.166 28.2745 138.277 28.2745C142.389 28.2745 145.9 24.6709 145.9 20.5591C145.9 16.1238 142.389 12.7974 138.277 12.7974C134.166 12.7974 130.654 16.1238 130.654 20.5591Z" fill="white"/>
<path d="M86.8104 2.81821C87.3186 2.17141 88.4274 1.75561 89.259 1.89421L91.4304 2.21761C92.262 2.35621 92.8164 3.14161 92.6778 3.92702L89.5362 22.4995C89.3976 23.3311 89.6286 23.4235 90.0906 22.6843L98.6838 8.82423C99.0996 8.13123 100.116 7.80783 100.901 8.08503L101.779 8.40843C102.565 8.68563 103.027 9.60963 102.842 10.395L99.5616 23.7931C99.3768 24.5785 99.7464 24.8557 100.439 24.3937C100.439 24.3937 105.752 20.6515 112.22 17.3713C112.451 17.2327 97.0206 31.1389 97.0206 31.1389C96.42 31.6933 96.0042 31.4623 96.189 30.6769L98.4528 18.3415C98.5914 17.5099 98.3142 17.4175 97.8522 18.0643L87.18 32.9869C86.718 33.6799 85.6554 34.0957 84.8238 34.0033L82.8372 33.7261C82.0056 33.5875 81.5436 32.8483 81.7746 32.0629L88.1502 11.088C88.3812 10.3026 88.1502 10.164 87.5958 10.7646L74.3825 25.9645C73.8281 26.6113 72.8579 26.7037 72.1649 26.1955L70.4093 24.9019C69.7625 24.3937 70.0397 23.5159 70.5941 22.8691L86.8104 2.81821Z" fill="#7CAF5B"/>
<path d="M86.5327 45.1837C86.3941 45.5995 86.1631 46.0153 85.8859 46.3387C85.6087 46.6621 85.2853 46.9393 84.8695 47.1241C84.4537 47.3089 83.9917 47.4475 83.4835 47.4475C83.2063 47.4475 82.9291 47.4475 82.6519 47.4475C82.3747 47.4475 82.0975 47.4013 81.8665 47.4013C81.8203 47.4013 81.7741 47.4475 81.6817 47.4475H81.4969C81.4507 47.4475 81.4507 47.4475 81.4507 47.4013C81.4507 47.3551 81.4507 47.3551 81.4507 47.3551V37.6993L81.5431 37.6069H81.8665L81.9589 37.6993V42.2269C82.1899 41.8573 82.5133 41.6263 82.8829 41.4415C83.2525 41.2567 83.6683 41.2105 84.0841 41.2105C85.0081 41.2105 85.6549 41.4415 86.0707 41.8573C86.4865 42.2731 86.7175 42.9199 86.7175 43.7977C86.7637 44.3059 86.6713 44.7679 86.5327 45.1837ZM85.7011 42.2269C85.3777 41.8573 84.8233 41.6725 84.1303 41.6725C83.8993 41.6725 83.6683 41.7187 83.3911 41.8111C83.1601 41.9035 82.9291 41.9959 82.6981 42.1345C82.4671 42.2731 82.3285 42.4579 82.1899 42.6427C82.0513 42.8275 82.0051 43.0585 82.0051 43.3357V46.8931C82.0513 46.8931 82.1437 46.9393 82.2823 46.9393C82.4209 46.9393 82.5595 46.9393 82.7443 46.9855C82.8829 46.9855 83.0677 46.9855 83.2063 46.9855H83.4835C83.9455 46.9855 84.3613 46.8931 84.6847 46.7083C85.0081 46.5235 85.2853 46.2925 85.5163 46.0153C85.7473 45.7381 85.9321 45.3685 86.0245 44.9989C86.1169 44.6293 86.2093 44.2135 86.2093 43.8439C86.2093 43.1047 86.0707 42.5965 85.7011 42.2269Z" fill="white"/>
<path d="M92.8619 47.3551H92.5385L92.4461 47.2627V46.0615C92.2151 46.4773 91.8917 46.8469 91.5221 47.0779C91.1525 47.3089 90.6905 47.4475 90.1823 47.4475C89.7665 47.4475 89.4431 47.4013 89.1659 47.2627C88.8887 47.1241 88.6577 46.9393 88.4729 46.7083C88.2881 46.4773 88.1495 46.2001 88.0571 45.9229C87.9647 45.5995 87.9185 45.2761 87.9185 44.9527C87.9185 43.7515 87.9185 42.5965 87.9647 41.3953L88.0571 41.3029H88.3805C88.4267 41.3029 88.4729 41.3491 88.4729 41.3953L88.4267 44.9527C88.4267 45.2299 88.4729 45.5071 88.5191 45.7381C88.5653 45.9691 88.6577 46.2001 88.7963 46.3849C88.9349 46.5697 89.1197 46.7083 89.3045 46.8469C89.5355 46.9393 89.7665 47.0317 90.0899 47.0317C90.3671 47.0317 90.6905 46.9855 90.9677 46.8469C91.2449 46.7083 91.4759 46.5697 91.7069 46.3849C91.8917 46.2001 92.0765 45.9691 92.2151 45.6919C92.3537 45.4147 92.3999 45.1375 92.3999 44.8603C92.3999 44.3059 92.3999 43.7053 92.3999 43.1509C92.3999 42.5965 92.3999 41.9959 92.3999 41.4415L92.4923 41.3491H92.8157L92.9081 41.4415V47.3089L92.8619 47.3551Z" fill="white"/>
<path d="M99.1916 44.2135C98.4524 44.2597 97.667 44.2597 96.9278 44.3059C96.1886 44.3059 95.4494 44.3521 94.664 44.3521C94.664 44.7217 94.7102 45.0913 94.8026 45.4147C94.895 45.7381 95.0336 46.0153 95.2184 46.2463C95.4032 46.4773 95.6342 46.6621 95.9114 46.8007C96.1886 46.9393 96.5582 46.9855 96.974 46.9855C97.205 46.9855 97.436 46.9393 97.667 46.8931C97.898 46.8469 98.0828 46.7545 98.2676 46.7083C98.4524 46.6159 98.591 46.5697 98.7296 46.5235C98.8682 46.4773 98.9144 46.4311 98.9144 46.4311C98.9606 46.4311 98.9606 46.4311 99.0068 46.4773C99.0068 46.5235 99.0068 46.5697 99.053 46.6159C99.053 46.6621 99.053 46.7083 99.053 46.7545C99.053 46.8007 99.053 46.8469 99.053 46.8469L99.0068 46.9393C98.8682 47.0317 98.7296 47.0779 98.5448 47.1241C98.36 47.1703 98.2214 47.2165 98.0366 47.2627C97.8518 47.3089 97.667 47.3089 97.5284 47.3551C97.3436 47.3551 97.205 47.4013 97.0202 47.4013C96.4658 47.4013 96.0038 47.3089 95.6342 47.1703C95.2646 46.9855 94.9874 46.8007 94.7564 46.4773C94.5254 46.2001 94.3868 45.8305 94.2944 45.4147C94.202 44.9989 94.1558 44.5369 94.1558 44.0749C94.1558 43.6591 94.202 43.2433 94.3406 42.8737C94.4792 42.5041 94.664 42.2269 94.895 41.9497C95.126 41.6725 95.4494 41.4877 95.7728 41.3491C96.1424 41.2105 96.512 41.1181 96.974 41.1181C97.436 41.1181 97.8056 41.2105 98.129 41.3491C98.4524 41.4877 98.6834 41.7187 98.8682 41.9959C99.053 42.2731 99.1916 42.5965 99.2378 42.9199C99.3302 43.2895 99.3302 43.6591 99.3302 44.0287L99.1916 44.2135ZM98.6372 43.0123C98.5448 42.7813 98.4524 42.5503 98.3138 42.3193C98.1752 42.1345 97.9904 41.9497 97.7594 41.8573C97.5284 41.7187 97.2512 41.6725 96.974 41.6725C96.6506 41.6725 96.3272 41.7187 96.05 41.8573C95.7728 41.9497 95.5418 42.1345 95.357 42.3193C95.1722 42.5041 94.9874 42.7351 94.895 43.0123C94.8026 43.2895 94.7102 43.5667 94.7102 43.8901H95.0798C95.6804 43.8901 96.3272 43.8901 96.9278 43.8901C97.5284 43.8901 98.1752 43.8439 98.7758 43.7977C98.7758 43.5205 98.7296 43.2433 98.6372 43.0123Z" fill="white"/>
<path d="M105.521 47.3551H105.198L105.105 47.2627V43.3357C105.105 43.0585 105.059 42.8275 104.967 42.5965C104.874 42.4117 104.736 42.2269 104.551 42.0883C104.366 41.9497 104.181 41.8573 103.95 41.7649C103.719 41.7187 103.442 41.6725 103.211 41.6725C103.026 41.6725 102.795 41.7187 102.564 41.7649C102.333 41.8573 102.102 41.9497 101.871 42.0883C101.64 42.2269 101.455 42.4117 101.317 42.5965C101.178 42.7813 101.086 43.0123 101.086 43.1971V47.2165L100.993 47.3089H100.67L100.578 47.2165V41.3953L100.67 41.3029H100.947L101.04 41.3953L101.086 42.3193C101.317 41.9497 101.64 41.6725 102.01 41.4877C102.379 41.3029 102.795 41.2105 103.257 41.2105C103.627 41.2105 103.95 41.2567 104.274 41.3491C104.597 41.4415 104.828 41.5801 105.059 41.7187C105.29 41.9035 105.429 42.0883 105.567 42.3655C105.706 42.6427 105.752 42.9661 105.752 43.3357V47.2627L105.521 47.3551Z" fill="white"/>
<path d="M111.296 47.3551H111.019L110.926 47.2627L110.88 46.0615C110.649 46.4773 110.372 46.8007 110.002 47.0779C109.633 47.3089 109.217 47.4475 108.709 47.4475C108.154 47.4475 107.692 47.2627 107.323 46.9393C106.953 46.6159 106.814 46.1539 106.814 45.5995C106.814 45.2761 106.861 44.9527 106.999 44.7679C107.138 44.5369 107.323 44.3521 107.507 44.2135C107.738 44.0749 107.969 43.9363 108.247 43.8901C108.524 43.7977 108.801 43.7515 109.124 43.7515C109.402 43.7053 109.725 43.7053 110.002 43.7053C110.279 43.7053 110.557 43.7053 110.834 43.7053V43.0123C110.834 42.5041 110.695 42.1345 110.418 41.9497C110.141 41.7649 109.771 41.6725 109.263 41.6725C109.032 41.6725 108.755 41.7187 108.524 41.7649C108.293 41.8111 108.062 41.9035 107.923 41.9959C107.738 42.0883 107.6 42.1345 107.461 42.2269C107.323 42.2731 107.276 42.3193 107.276 42.3193C107.23 42.3193 107.23 42.3193 107.184 42.2731C107.184 42.2269 107.184 42.1807 107.138 42.1345C107.138 42.0883 107.138 42.0421 107.138 41.9497C107.138 41.9035 107.138 41.8573 107.138 41.8111L107.184 41.7187C107.323 41.6263 107.461 41.5339 107.646 41.4877C107.831 41.4415 108.016 41.3491 108.154 41.3029C108.339 41.2567 108.524 41.2105 108.709 41.2105C108.893 41.2105 109.078 41.1643 109.217 41.1643C109.54 41.1643 109.864 41.2105 110.095 41.2567C110.372 41.3029 110.603 41.3953 110.741 41.5339C110.926 41.6725 111.065 41.8573 111.157 42.0883C111.25 42.3193 111.296 42.5965 111.296 42.9661V47.2165V47.3551ZM110.279 44.1211H109.725C109.448 44.1211 109.171 44.1211 108.893 44.1673C108.616 44.2135 108.385 44.2597 108.154 44.3983C107.923 44.4907 107.738 44.6755 107.6 44.8603C107.461 45.0451 107.369 45.3223 107.369 45.6457C107.369 45.8305 107.415 46.0153 107.461 46.1539C107.507 46.3387 107.6 46.4773 107.738 46.5697C107.831 46.7083 107.969 46.8007 108.154 46.8931C108.293 46.9855 108.478 46.9855 108.662 46.9855C108.986 46.9855 109.263 46.9393 109.494 46.8007C109.725 46.6621 109.956 46.5235 110.141 46.2925C110.326 46.1077 110.464 45.8767 110.557 45.5995C110.649 45.3223 110.741 45.0451 110.741 44.7679C110.741 44.6755 110.741 44.5369 110.741 44.4445C110.741 44.3521 110.741 44.2135 110.741 44.1211C110.649 44.1211 110.464 44.1211 110.279 44.1211Z" fill="white"/>
<path d="M120.952 44.2135C120.213 44.2597 119.427 44.2597 118.688 44.3059C117.949 44.3059 117.21 44.3521 116.424 44.3521C116.424 44.7217 116.47 45.0913 116.563 45.4147C116.655 45.7381 116.794 46.0153 116.979 46.2463C117.163 46.4773 117.394 46.6621 117.672 46.8007C117.949 46.9393 118.318 46.9855 118.734 46.9855C118.965 46.9855 119.196 46.9393 119.427 46.8931C119.658 46.8469 119.843 46.7545 120.028 46.7083C120.213 46.6159 120.351 46.5697 120.49 46.5235C120.628 46.4773 120.675 46.4311 120.675 46.4311C120.721 46.4311 120.721 46.4311 120.767 46.4773C120.767 46.5235 120.767 46.5697 120.813 46.6159C120.813 46.6621 120.813 46.7083 120.813 46.7545C120.813 46.8007 120.813 46.8469 120.813 46.8469L120.767 46.9393C120.628 47.0317 120.49 47.0779 120.305 47.1241C120.12 47.1703 119.982 47.2165 119.797 47.2627C119.612 47.3089 119.427 47.3089 119.289 47.3551C119.104 47.3551 118.965 47.4013 118.78 47.4013C118.226 47.4013 117.764 47.3089 117.394 47.1703C117.025 46.9855 116.748 46.8007 116.517 46.4773C116.286 46.2001 116.147 45.8305 116.055 45.4147C115.962 44.9989 115.916 44.5369 115.916 44.0749C115.916 43.6591 115.962 43.2433 116.101 42.8737C116.239 42.5041 116.424 42.2269 116.655 41.9497C116.886 41.6725 117.21 41.4877 117.533 41.3491C117.903 41.2105 118.272 41.1181 118.734 41.1181C119.196 41.1181 119.566 41.2105 119.889 41.3491C120.213 41.5339 120.444 41.7187 120.628 41.9959C120.813 42.2731 120.952 42.5965 120.998 42.9199C121.09 43.2895 121.09 43.6591 121.09 44.0287L120.952 44.2135ZM120.397 43.0123C120.305 42.7813 120.213 42.5503 120.074 42.3193C119.935 42.1345 119.751 41.9497 119.52 41.8573C119.289 41.7187 119.011 41.6725 118.734 41.6725C118.411 41.6725 118.087 41.7187 117.81 41.8573C117.533 41.9497 117.302 42.1345 117.117 42.3193C116.932 42.5041 116.748 42.7351 116.655 43.0123C116.563 43.2895 116.47 43.5667 116.47 43.8901H116.84C117.441 43.8901 118.087 43.8901 118.688 43.8901C119.289 43.8901 119.935 43.8439 120.536 43.7977C120.49 43.5205 120.444 43.2433 120.397 43.0123Z" fill="white"/>
<path d="M127.281 47.3551H126.957L126.865 47.2627V43.3357C126.865 43.0585 126.819 42.8275 126.726 42.5965C126.634 42.4117 126.495 42.2269 126.311 42.0883C126.126 41.9497 125.941 41.8573 125.71 41.7649C125.479 41.7187 125.202 41.6725 124.971 41.6725C124.786 41.6725 124.555 41.7187 124.324 41.7649C124.093 41.8573 123.862 41.9497 123.631 42.0883C123.4 42.2269 123.215 42.4117 123.077 42.5965C122.938 42.7813 122.846 43.0123 122.846 43.1971V47.2165L122.753 47.3089H122.43L122.337 47.2165V41.3953L122.43 41.3029H122.707L122.799 41.3953L122.846 42.3193C123.077 41.9497 123.4 41.6725 123.77 41.4877C124.139 41.3029 124.555 41.2105 125.017 41.2105C125.387 41.2105 125.71 41.2567 126.033 41.3491C126.357 41.4415 126.588 41.5801 126.819 41.7187C127.05 41.9035 127.188 42.0883 127.327 42.3655C127.466 42.6427 127.512 42.9661 127.512 43.3357V47.2627L127.281 47.3551Z" fill="white"/>
<path d="M133.611 44.2135C132.871 44.2597 132.086 44.2597 131.347 44.3059C130.608 44.3059 129.868 44.3521 129.083 44.3521C129.083 44.7217 129.129 45.0913 129.222 45.4147C129.314 45.7381 129.453 46.0153 129.637 46.2463C129.822 46.4773 130.053 46.6621 130.33 46.8007C130.608 46.9393 130.977 46.9855 131.393 46.9855C131.624 46.9855 131.855 46.9393 132.086 46.8931C132.317 46.8469 132.502 46.7545 132.687 46.7083C132.871 46.6159 133.01 46.5697 133.149 46.5235C133.287 46.4773 133.333 46.4311 133.333 46.4311C133.38 46.4311 133.38 46.4311 133.426 46.4773C133.426 46.5235 133.426 46.5697 133.472 46.6159C133.472 46.6621 133.472 46.7083 133.472 46.7545C133.472 46.8007 133.472 46.8469 133.472 46.8469L133.426 46.9393C133.287 47.0317 133.149 47.0779 132.964 47.1241C132.779 47.1703 132.64 47.2165 132.456 47.2627C132.271 47.3089 132.086 47.3089 131.947 47.3551C131.763 47.3551 131.624 47.4013 131.439 47.4013C130.885 47.4013 130.423 47.3089 130.053 47.1703C129.684 46.9855 129.406 46.8007 129.175 46.4773C128.944 46.2001 128.806 45.8305 128.713 45.4147C128.621 44.9989 128.575 44.5369 128.575 44.0749C128.575 43.6591 128.621 43.2433 128.76 42.8737C128.898 42.5041 129.083 42.2269 129.314 41.9497C129.545 41.6725 129.868 41.4877 130.192 41.3491C130.561 41.2105 130.931 41.1181 131.393 41.1181C131.855 41.1181 132.225 41.2105 132.548 41.3491C132.871 41.5339 133.102 41.7187 133.287 41.9959C133.472 42.2731 133.611 42.5965 133.657 42.9199C133.749 43.2895 133.749 43.6591 133.749 44.0287L133.611 44.2135ZM133.056 43.0123C132.964 42.7813 132.871 42.5503 132.733 42.3193C132.594 42.1345 132.409 41.9497 132.178 41.8573C131.947 41.7187 131.67 41.6725 131.393 41.6725C131.07 41.6725 130.746 41.7187 130.469 41.8573C130.192 41.9497 129.961 42.1345 129.776 42.3193C129.591 42.5041 129.406 42.7351 129.314 43.0123C129.222 43.2895 129.129 43.5667 129.129 43.8901H129.499C130.099 43.8901 130.746 43.8901 131.347 43.8901C131.947 43.8901 132.594 43.8439 133.195 43.7977C133.149 43.5205 133.102 43.2433 133.056 43.0123Z" fill="white"/>
<path d="M137.676 41.8573C137.584 41.8111 137.491 41.8111 137.399 41.8111C137.307 41.8111 137.214 41.8111 137.122 41.8111C136.891 41.8111 136.66 41.8573 136.429 41.9497C136.198 42.0421 136.013 42.1345 135.874 42.2731C135.69 42.4117 135.597 42.5965 135.505 42.7813C135.412 42.9661 135.366 43.1971 135.366 43.4281V47.2627L135.274 47.3551H134.95L134.858 47.2627V41.3953L134.95 41.3029H135.274L135.366 41.3953V42.2269C135.597 41.9035 135.874 41.6725 136.244 41.4877C136.567 41.3029 136.937 41.2105 137.353 41.2105H137.584C137.676 41.2105 137.722 41.2105 137.815 41.2567L137.907 41.3491V41.7187L137.676 41.8573Z" fill="white"/>
<path d="M142.066 48.6025C141.973 48.9259 141.788 49.2031 141.604 49.4803C141.419 49.7113 141.142 49.9423 140.818 50.0809C140.495 50.2195 140.125 50.3119 139.709 50.3119C139.617 50.3119 139.432 50.3119 139.294 50.3119C139.109 50.3119 138.97 50.2657 138.785 50.2195C138.601 50.1733 138.462 50.1271 138.277 50.0809C138.139 50.0347 138 49.9423 137.908 49.8499V49.3417C137.908 49.2955 137.954 49.2493 138 49.2493L138.092 49.2955C138.185 49.3879 138.277 49.4803 138.416 49.5265C138.554 49.5727 138.693 49.6651 138.832 49.6651C138.97 49.7113 139.155 49.7575 139.294 49.7575C139.432 49.7575 139.571 49.8037 139.709 49.8037C140.033 49.8037 140.356 49.7575 140.587 49.6189C140.818 49.4803 141.049 49.3417 141.188 49.1569C141.373 48.9721 141.465 48.7411 141.557 48.4639C141.65 48.1867 141.696 47.9557 141.696 47.6323V46.1077C141.511 46.4773 141.234 46.7545 140.864 47.0317C140.495 47.2627 140.125 47.4013 139.663 47.4013C139.247 47.4013 138.924 47.3089 138.647 47.1703C138.37 46.9855 138.139 46.8007 138 46.5235C137.815 46.2463 137.723 45.9691 137.63 45.5995C137.538 45.2761 137.538 44.9065 137.538 44.5831C137.538 44.1673 137.63 43.7053 137.769 43.3357C137.908 42.9199 138.139 42.5965 138.416 42.2731C138.693 41.9497 139.016 41.7187 139.386 41.5339C139.756 41.3491 140.171 41.2567 140.633 41.2567C140.864 41.2567 141.142 41.2567 141.373 41.3029C141.65 41.3029 141.881 41.3491 142.112 41.4415L142.204 41.5339V47.5861C142.204 47.9095 142.158 48.2329 142.066 48.6025ZM141.142 41.7187C140.957 41.7187 140.772 41.6725 140.587 41.6725C140.218 41.6725 139.848 41.7649 139.525 41.9035C139.201 42.0883 138.924 42.2731 138.739 42.5503C138.508 42.8275 138.37 43.1509 138.231 43.4743C138.092 43.7977 138.046 44.1673 138.046 44.5369C138.046 44.8141 138.092 45.0451 138.139 45.3223C138.185 45.5995 138.277 45.8767 138.416 46.1077C138.554 46.3387 138.693 46.5235 138.924 46.7083C139.109 46.8469 139.386 46.9393 139.709 46.9393C140.033 46.9393 140.31 46.8469 140.541 46.6621C140.772 46.4773 141.003 46.2463 141.188 46.0153C141.373 45.7381 141.511 45.4609 141.557 45.1375C141.65 44.8141 141.696 44.5369 141.696 44.2597V41.8111C141.511 41.7649 141.326 41.7187 141.142 41.7187Z" fill="white"/>
<path d="M145.022 37.7917C144.93 37.9303 144.791 38.0689 144.652 38.2537C144.514 38.4385 144.329 38.6233 144.19 38.8543C144.006 39.0853 143.867 39.2701 143.682 39.4549C143.544 39.6397 143.405 39.8245 143.266 39.9631C143.128 40.1017 143.082 40.1941 143.035 40.2403L142.989 40.2865H142.758C142.666 40.2865 142.62 40.2403 142.62 40.1941C142.62 40.1941 142.666 40.1017 142.758 40.0093C142.851 39.8707 142.943 39.7321 143.082 39.5473C143.22 39.3625 143.359 39.1777 143.497 38.9467C143.636 38.7157 143.821 38.5309 143.959 38.3461C144.098 38.1613 144.237 37.9765 144.329 37.8379C144.421 37.6993 144.514 37.6069 144.514 37.5607L144.606 37.5145H145.068C145.161 37.5145 145.161 37.5607 145.161 37.6069C145.161 37.5607 145.114 37.6531 145.022 37.7917ZM143.959 47.3551H143.636L143.497 47.2627V41.3953L143.59 41.3029H143.913L144.006 41.3953V47.2627L143.959 47.3551Z" fill="white"/>
<path d="M149.827 47.3551H149.55L149.458 47.2627L149.411 46.0615C149.18 46.4773 148.903 46.8007 148.534 47.0779C148.164 47.3089 147.748 47.4475 147.24 47.4475C146.686 47.4475 146.224 47.2627 145.854 46.9393C145.484 46.6159 145.346 46.1539 145.346 45.5995C145.346 45.2761 145.392 44.9527 145.531 44.7679C145.669 44.5369 145.854 44.3521 146.039 44.2135C146.27 44.0749 146.501 43.9363 146.778 43.8901C147.055 43.7977 147.332 43.7515 147.656 43.7515C147.933 43.7053 148.256 43.7053 148.534 43.7053C148.811 43.7053 149.088 43.7053 149.365 43.7053V43.0123C149.365 42.5041 149.227 42.1345 148.949 41.9497C148.672 41.7649 148.303 41.6725 147.794 41.6725C147.563 41.6725 147.286 41.7187 147.055 41.7649C146.824 41.8111 146.593 41.9035 146.455 41.9959C146.27 42.0883 146.131 42.1345 145.993 42.2269C145.854 42.2731 145.808 42.3193 145.808 42.3193C145.762 42.3193 145.761 42.3193 145.715 42.2731C145.715 42.2269 145.715 42.1807 145.669 42.1345C145.669 42.0883 145.669 42.0421 145.669 41.9497C145.669 41.9035 145.669 41.8573 145.669 41.8111L145.715 41.7187C145.854 41.6263 145.992 41.5339 146.177 41.4877C146.362 41.4415 146.547 41.3491 146.686 41.3029C146.87 41.2567 147.055 41.2105 147.24 41.2105C147.425 41.2105 147.61 41.1643 147.748 41.1643C148.072 41.1643 148.395 41.2105 148.626 41.2567C148.903 41.3029 149.134 41.3953 149.273 41.5339C149.458 41.6725 149.596 41.8573 149.689 42.0883C149.781 42.3193 149.827 42.5965 149.827 42.9661V47.2165V47.3551ZM148.811 44.1211H148.303C148.025 44.1211 147.748 44.1211 147.471 44.1673C147.194 44.2135 146.963 44.2597 146.732 44.3983C146.501 44.4907 146.316 44.6755 146.177 44.8603C146.039 45.0451 145.946 45.3223 145.946 45.6457C145.946 45.8305 145.993 46.0153 146.039 46.1539C146.085 46.3387 146.177 46.4773 146.316 46.5697C146.408 46.7083 146.547 46.8007 146.732 46.8931C146.917 46.9855 147.055 46.9855 147.24 46.9855C147.563 46.9855 147.841 46.9393 148.072 46.8007C148.303 46.6621 148.534 46.5235 148.718 46.2925C148.903 46.1077 149.042 45.8767 149.134 45.5995C149.227 45.3223 149.319 45.0451 149.319 44.7679C149.319 44.6755 149.319 44.5369 149.319 44.4445C149.319 44.3521 149.319 44.2135 149.319 44.1211C149.227 44.1211 148.996 44.1211 148.811 44.1211Z" fill="white"/>
</svg>
