<svg width="37" height="37" viewBox="0 0 37 37" fill="none" xmlns="http://www.w3.org/2000/svg">
<path d="M1.68182 8.40909C2.60682 8.40909 3.36364 7.65227 3.36364 6.72727V5.04545C3.36364 4.12045 4.12045 3.36364 5.04545 3.36364H6.72727C7.65227 3.36364 8.40909 2.60682 8.40909 1.68182C8.40909 0.756818 7.65227 0 6.72727 0H5.04545C2.25364 0 0 2.25364 0 5.04545V6.72727C0 7.65227 0.756818 8.40909 1.68182 8.40909ZM6.72727 33.6364H5.04545C4.12045 33.6364 3.36364 32.8795 3.36364 31.9545V30.2727C3.36364 29.3477 2.60682 28.5909 1.68182 28.5909C0.756818 28.5909 0 29.3477 0 30.2727V31.9545C0 34.7464 2.25364 37 5.04545 37H6.72727C7.65227 37 8.40909 36.2432 8.40909 35.3182C8.40909 34.3932 7.65227 33.6364 6.72727 33.6364ZM31.9545 0H30.2727C29.3477 0 28.5909 0.756818 28.5909 1.68182C28.5909 2.60682 29.3477 3.36364 30.2727 3.36364H31.9545C32.8795 3.36364 33.6364 4.12045 33.6364 5.04545V6.72727C33.6364 7.65227 34.3932 8.40909 35.3182 8.40909C36.2432 8.40909 37 7.65227 37 6.72727V5.04545C37 2.25364 34.7464 0 31.9545 0ZM35.3182 28.5909C34.3932 28.5909 33.6364 29.3477 33.6364 30.2727V31.9545C33.6364 32.8795 32.8795 33.6364 31.9545 33.6364H30.2727C29.3477 33.6364 28.5909 34.3932 28.5909 35.3182C28.5909 36.2432 29.3477 37 30.2727 37H31.9545C34.7464 37 37 34.7464 37 31.9545V30.2727C37 29.3477 36.2432 28.5909 35.3182 28.5909ZM30.2727 23.3268V13.6732C30.2727 12.4623 29.6336 11.3523 28.5909 10.7636L20.1818 5.92C19.6605 5.61727 19.0886 5.46591 18.5 5.46591C17.9114 5.46591 17.3395 5.61727 16.8182 5.92L8.40909 10.7468C7.36636 11.3523 6.72727 12.4623 6.72727 13.6732V23.3268C6.72727 24.5377 7.36636 25.6477 8.40909 26.2364L16.8182 31.08C17.3395 31.3827 17.9114 31.5341 18.5 31.5341C19.0886 31.5341 19.6605 31.3827 20.1818 31.08L28.5909 26.2364C29.6336 25.6477 30.2727 24.5377 30.2727 23.3268ZM16.8182 27.195L10.0909 23.3268V15.54L16.8182 19.4586V27.195ZM18.5 16.5491L11.84 12.6641L18.5 8.82955L25.16 12.6641L18.5 16.5491ZM26.9091 23.3268L20.1818 27.195V19.4586L26.9091 15.54V23.3268Z" fill="#488081"/>
</svg>
