<svg width="50" height="35" viewBox="0 0 50 35" fill="none" xmlns="http://www.w3.org/2000/svg">
<path d="M6.1607 11.1336C6.16047 9.28842 6.61786 7.47213 7.49173 5.84807C8.36559 4.22402 9.62853 2.84314 11.1669 1.82965C12.7054 0.816146 14.471 0.201809 16.3051 0.041891C18.1391 -0.118027 19.9841 0.181488 21.674 0.913498C23.364 1.64551 24.8458 2.78705 25.9864 4.23546C27.1269 5.68387 27.8904 7.39372 28.2081 9.21121C28.5258 11.0287 28.3877 12.8968 27.8064 14.6476C27.225 16.3984 26.2186 17.9768 24.8776 19.241C27.4062 20.4708 29.6016 22.2937 31.2777 24.5549C32.9538 26.8162 34.0611 29.4492 34.5058 32.2307C34.5547 32.5402 34.5424 32.8564 34.4695 33.1611C34.3965 33.4658 34.2644 33.7532 34.0807 34.0068C33.897 34.2603 33.6652 34.4751 33.3986 34.6389C33.1321 34.8027 32.8359 34.9122 32.5271 34.9613C32.2183 35.0104 31.9029 34.998 31.5989 34.9249C31.2948 34.8518 31.0081 34.7194 30.7552 34.5353C30.5022 34.3511 30.2879 34.1188 30.1244 33.8517C29.961 33.5845 29.8517 33.2877 29.8027 32.9782C29.3268 29.9894 27.8033 27.2685 25.5058 25.3043C23.2084 23.34 20.2875 22.261 17.2677 22.261C14.2479 22.261 11.327 23.34 9.02958 25.3043C6.73213 27.2685 5.20863 29.9894 4.73265 32.9782C4.68348 33.2877 4.57396 33.5845 4.41035 33.8515C4.24675 34.1186 4.03225 34.3508 3.77912 34.5348C3.52599 34.7188 3.23918 34.851 2.93506 34.924C2.63095 34.9969 2.31548 35.009 2.00668 34.9597C1.69787 34.9104 1.40178 34.8007 1.1353 34.6367C0.868816 34.4727 0.63717 34.2577 0.453584 34.004C0.269999 33.7503 0.138068 33.4629 0.0653258 33.1581C-0.00741661 32.8533 -0.0195463 32.5371 0.0296291 32.2276C0.474972 29.4471 1.58263 26.8153 3.2587 24.5551C4.93476 22.295 7.12983 20.4732 9.65781 19.2442C8.55242 18.2039 7.67172 16.9474 7.07021 15.5523C6.46869 14.1573 6.15913 12.6534 6.1607 11.1336ZM34.7216 6.36264C36.5654 6.36393 38.3692 6.90164 39.914 7.91049C41.4588 8.91935 42.6782 10.356 43.4241 12.046C44.1701 13.7359 44.4106 15.6066 44.1163 17.4309C43.8221 19.2552 43.0058 20.9547 41.7666 22.3231C43.6982 23.2842 45.4145 24.6292 46.8111 26.2761C48.2077 27.923 49.2555 29.8375 49.8906 31.9031C50.0163 32.3041 50.034 32.7313 49.9419 33.1414C49.8497 33.5514 49.6509 33.9297 49.3657 34.2379C49.0804 34.5461 48.7189 34.7731 48.3179 34.896C47.9168 35.0188 47.4904 35.0331 47.0821 34.9375C46.6741 34.8422 46.2982 34.641 45.9924 34.354C45.6866 34.067 45.4615 33.7044 45.3399 33.3026C44.7711 31.4585 43.7347 29.7939 42.3318 28.4715C40.929 27.1491 39.2078 26.2142 37.3365 25.7582C36.8168 25.6324 36.3545 25.335 36.024 24.9138C35.6936 24.4926 35.5142 23.9721 35.5149 23.4363V22.3167C35.5146 21.8726 35.6381 21.4372 35.8713 21.0596C36.1045 20.682 36.4383 20.3771 36.8351 20.1793C37.7971 19.7014 38.5697 18.9116 39.0274 17.9381C39.4851 16.9646 39.6009 15.8646 39.3561 14.8167C39.1112 13.7689 38.5202 12.8348 37.6788 12.1662C36.8375 11.4976 35.7953 11.1337 34.7216 11.1336C34.0903 11.1336 33.4849 10.8823 33.0386 10.4349C32.5922 9.98754 32.3415 9.38079 32.3415 8.74812C32.3415 8.11545 32.5922 7.5087 33.0386 7.06133C33.4849 6.61397 34.0903 6.36264 34.7216 6.36264ZM17.2677 4.77232C16.4225 4.75317 15.582 4.90345 14.7955 5.21434C14.0091 5.52524 13.2925 5.99048 12.6879 6.58275C12.0833 7.17503 11.6028 7.8824 11.2748 8.66334C10.9467 9.44427 10.7776 10.283 10.7774 11.1304C10.7771 11.9777 10.9458 12.8166 11.2735 13.5977C11.6012 14.3788 12.0813 15.0864 12.6856 15.679C13.2899 16.2715 14.0063 16.7371 14.7926 17.0484C15.5789 17.3597 16.4193 17.5104 17.2645 17.4917C18.9228 17.4549 20.5009 16.769 21.6609 15.5806C22.8209 14.3923 23.4707 12.796 23.4711 11.1336C23.4715 9.47108 22.8225 7.87449 21.6631 6.68558C20.5037 5.49666 18.926 4.80991 17.2677 4.77232Z" fill="white"/>
</svg>
