<svg width="28" height="27" viewBox="0 0 28 27" fill="none" xmlns="http://www.w3.org/2000/svg">
<path d="M8.39997 0C8.78997 0.12 9.17997 0.22 9.54997 0.37C10.21 0.63 10.75 1.06 11.2 1.61C11.63 2.13 11.94 2.71 12.09 3.36C12.44 4.84 12.16 6.19 11.18 7.37C10.46 8.24 9.53997 8.76 8.42997 8.93C7.10997 9.13 5.89997 8.84 4.87997 7.99C3.92997 7.2 3.35997 6.18 3.24997 4.91C3.13997 3.7 3.45997 2.63 4.18997 1.69C4.88997 0.78 5.82997 0.21 6.97997 0.05C6.99997 0.05 7.01997 0.02 7.02997 0H8.38997H8.39997ZM9.91997 4.49C9.96997 3.23 8.88997 2.26 7.69997 2.27C6.47997 2.28 5.50997 3.23 5.51997 4.49C5.51997 5.78 6.46997 6.67 7.69997 6.7C8.85997 6.73 9.93997 5.76 9.90997 4.49" fill="#EB99BD"/>
<path d="M21.83 0C22.22 0.12 22.61 0.22 22.98 0.37C23.64 0.63 24.18 1.06 24.63 1.61C25.06 2.13 25.37 2.71 25.52 3.36C25.87 4.84 25.59 6.19 24.61 7.37C23.89 8.24 22.97 8.75 21.86 8.92C20.54 9.12 19.33 8.83 18.31 7.98C17.36 7.19 16.79 6.17 16.68 4.9C16.57 3.69 16.89 2.62 17.62 1.68C18.32 0.78 19.26 0.21 20.41 0.05C20.43 0.05 20.45 0.02 20.46 0H21.82L21.83 0ZM23.35 4.48C23.39 3.24 22.34 2.27 21.15 2.27C19.93 2.27 18.95 3.22 18.95 4.47C18.95 5.81 19.96 6.68 21.14 6.7C22.34 6.72 23.38 5.72 23.34 4.48" fill="#EB99BD"/>
<path d="M8.70998 26.92C8.36998 26.81 8.02998 26.69 7.84998 26.34C7.78998 26.22 7.71998 26.09 7.71998 25.96C7.66998 25.05 7.82998 24.17 8.14998 23.31C8.47998 22.42 8.99998 21.64 9.65998 20.98C10.53 20.11 11.57 19.49 12.78 19.23C13.39 19.1 14.03 19.01 14.65 19.02C16.06 19.05 17.34 19.51 18.49 20.36C19.48 21.09 20.19 22.04 20.67 23.16C20.94 23.8 21.13 24.47 21.15 25.17C21.15 25.45 21.19 25.74 21.15 26.01C21.06 26.52 20.73 26.8 20.21 26.88C20.19 26.88 20.17 26.91 20.16 26.93H19.95C19.95 26.93 19.92 26.89 19.9 26.88C19.27 26.78 18.91 26.36 18.9 25.72C18.9 25.48 18.9 25.23 18.84 25C18.62 23.98 18.16 23.09 17.34 22.4C16.2 21.45 14.91 21.1 13.47 21.42C12.14 21.72 11.16 22.51 10.51 23.71C10.14 24.39 10.02 25.13 9.97998 25.89C9.97998 26.05 9.91998 26.21 9.84998 26.35C9.67998 26.7 9.33998 26.83 8.98998 26.93H8.72998L8.70998 26.92Z" fill="#EB99BD"/>
<path d="M27.92 17C27.78 17.43 27.54 17.76 27.07 17.9C26.47 18.08 25.63 17.69 25.61 16.87C25.6 15.81 25.3 14.85 24.64 14.03C23.97 13.2 23.09 12.64 22.03 12.44C21.68 12.37 21.33 12.38 20.98 12.33C20.5 12.27 20.19 11.98 20.06 11.54C19.88 10.92 20.16 10.39 20.74 10.13C20.81 10.1 20.89 10.08 20.96 10.08C22.14 10.01 23.25 10.27 24.29 10.82C25.42 11.41 26.31 12.26 26.97 13.36C27.45 14.16 27.72 15.02 27.87 15.93C27.89 16.08 27.91 16.23 27.92 16.38V17.01V17Z" fill="#EB99BD"/>
<path d="M0.999971 16C1.09997 15.58 1.19997 15.16 1.30997 14.75C1.52997 13.95 1.92997 13.25 2.42997 12.6C3.10997 11.73 3.95997 11.05 4.97997 10.63C5.53997 10.4 6.12997 10.26 6.71997 10.13C7.06997 10.05 7.43997 10.08 7.80997 10.07C8.23997 10.07 8.61997 10.32 8.77997 10.75C8.93997 11.17 8.89997 11.58 8.58997 11.93C8.34997 12.21 8.04997 12.31 7.66997 12.33C6.63997 12.37 5.70997 12.69 4.89997 13.35C3.99997 14.09 3.48997 15.04 3.28997 16.17C3.24997 16.38 3.23997 16.6 3.22997 16.81C3.21997 17.4 2.84997 17.86 2.25997 17.93C1.71997 18 1.24997 17.75 1.01997 17.2C0.999971 17.16 0.979971 17.13 0.969971 17.1V16H0.999971Z" fill="#EB99BD"/>
<path d="M18.94 13.43C18.97 15.87 16.94 18.04 14.29 17.94C11.86 17.85 9.92996 15.98 9.92996 13.42C9.92996 10.89 11.89 8.90999 14.49 8.92999C16.91 8.94999 18.95 10.87 18.94 13.43ZM16.63 13.42C16.67 12.26 15.66 11.25 14.49 11.23C13.21 11.21 12.24 12.24 12.22 13.41C12.21 14.63 13.19 15.6 14.38 15.65C15.6 15.7 16.69 14.6 16.63 13.43" fill="#EB99BD"/>
</svg>
