<svg width="28" height="27" viewBox="0 0 28 27" fill="none" xmlns="http://www.w3.org/2000/svg">
<path d="M27.25 6.93C27.2 7.21 27.14 7.49 27.09 7.77C26.96 8.5 26.84 9.22 26.71 9.95C26.58 10.71 26.45 11.47 26.3 12.22C26.13 13.1 25.79 13.91 25.24 14.62C24.39 15.72 23.28 16.43 21.92 16.72C21.57 16.8 21.2 16.84 20.84 16.84C16.51 16.84 12.18 16.84 7.83999 16.84H7.43999C7.63999 17.16 7.77999 17.46 7.97999 17.72C8.43999 18.31 9.02999 18.72 9.76999 18.9C9.95999 18.95 10.16 18.99 10.35 18.99C14.27 18.99 18.19 18.99 22.11 18.99C22.63 18.99 23.06 19.17 23.3 19.66C23.67 20.4 23.1 21.31 22.28 21.31C18.31 21.29 14.33 21.31 10.36 21.3C9.23999 21.3 8.22999 20.92 7.31999 20.27C6.10999 19.39 5.32999 18.22 5.07999 16.73C4.95999 16.03 4.89999 15.32 4.80999 14.61C4.70999 13.79 4.59999 12.97 4.49999 12.16C4.41999 11.5 4.35999 10.84 4.28999 10.18C4.20999 9.51 4.10999 8.85 4.02999 8.19C3.96999 7.67 3.92999 7.14 3.86999 6.62C3.78999 5.95 3.69999 5.29 3.60999 4.63C3.54999 4.18 3.49999 3.73 3.44999 3.27C3.37999 2.61 2.82999 2.25 2.16999 2.27C1.64999 2.29 1.29999 2.05 1.07999 1.6C1.03999 1.53 1.01999 1.45 0.98999 1.37V0.9C1.14999 0.47 1.39999 0.15 1.83999 0H2.93999C2.93999 0 2.95999 0.04 2.96999 0.04C3.80999 0.15 4.45999 0.58 4.99999 1.2C5.44999 1.72 5.69999 2.33 5.75999 3.01C5.78999 3.35 5.76999 3.35 6.10999 3.35C12.06 3.35 18.01 3.35 23.95 3.35C24.11 3.35 24.28 3.38 24.44 3.4C25.79 3.59 26.87 4.67 27.14 5.98C27.18 6.15 27.21 6.32 27.24 6.49V6.91L27.25 6.93ZM6.07999 5.62C6.11999 6.03 6.14999 6.41 6.18999 6.78C6.24999 7.33 6.32999 7.87 6.38999 8.42C6.44999 8.92 6.49999 9.43 6.54999 9.94C6.60999 10.49 6.68999 11.03 6.74999 11.58C6.78999 11.93 6.82999 12.28 6.86999 12.63C6.92999 13.16 7.01999 13.69 7.05999 14.22C7.07999 14.47 7.14999 14.56 7.40999 14.56C11.82 14.56 16.23 14.56 20.64 14.56C20.88 14.56 21.13 14.56 21.36 14.51C22.38 14.3 23.16 13.75 23.68 12.83C23.98 12.3 24.05 11.72 24.15 11.14C24.38 9.83 24.64 8.53 24.87 7.23C24.91 7.01 24.95 6.76 24.89 6.54C24.73 5.91 24.32 5.65 23.62 5.65C17.86 5.65 12.09 5.65 6.32999 5.65H6.05999L6.07999 5.62Z" fill="#EB99BD"/>
<path d="M19.76 26.92C19.38 26.82 19.01 26.7 18.67 26.46C18.05 26.02 17.66 25.05 17.8 24.31C17.98 23.33 18.52 22.72 19.46 22.46C20.19 22.26 20.86 22.41 21.48 22.89C22.37 23.58 22.51 24.92 21.98 25.82C21.64 26.4 21.11 26.72 20.46 26.87C20.41 26.88 20.37 26.9 20.33 26.92H19.75H19.76Z" fill="#EB99BD"/>
<path d="M8.59999 26.92C8.24999 26.78 7.85999 26.7 7.55999 26.49C6.25999 25.6 6.29999 23.67 7.53999 22.8C7.93999 22.52 8.36999 22.37 8.82999 22.37C9.83999 22.37 10.81 23.01 11.07 24.16C11.35 25.4 10.52 26.58 9.45999 26.83C9.34999 26.86 9.23999 26.89 9.12999 26.92H8.60999H8.59999Z" fill="#EB99BD"/>
</svg>
