<svg width="18" height="17" viewBox="0 0 18 17" fill="none" xmlns="http://www.w3.org/2000/svg">
<path d="M-0.000579834 13.6786V3.33523C-0.000579834 3.33523 0.0261661 3.30077 0.0328526 3.2801C0.119777 2.95622 0.186642 2.62546 0.306998 2.32225C0.541025 1.71585 0.942214 1.22659 1.43701 0.820024C1.7914 0.530604 2.17921 0.316984 2.61383 0.186056C2.86123 0.110255 3.11532 0.0620187 3.36941 0H14.596C14.596 0 14.6562 0.0275638 14.6829 0.0344548C14.937 0.0895825 15.1911 0.117146 15.4318 0.199838C16.154 0.447912 16.749 0.895825 17.2104 1.5229C17.6718 2.14998 17.9459 2.85286 17.966 3.65221C17.966 3.70045 17.986 3.74868 17.9994 3.79692V13.2031C17.9794 13.3822 17.9526 13.5614 17.9326 13.7406C17.8389 14.533 17.4979 15.2084 16.9831 15.7803C16.5016 16.3247 15.8999 16.6899 15.2112 16.8829C15.044 16.9311 14.8701 16.9587 14.703 17H3.26242C3.26242 17 3.24236 16.9724 3.22899 16.9655C2.7275 16.9173 2.26614 16.7381 1.83152 16.4763C1.05588 16.0008 0.514279 15.3324 0.213387 14.4572C0.126463 14.2023 0.0729714 13.9335 0.00610664 13.6717M1.51056 5.09931V5.32671C1.51056 7.86259 1.51056 10.4054 1.51056 12.9412C1.51056 13.0997 1.53062 13.2651 1.544 13.4236C1.59749 14.0231 1.87832 14.5055 2.31294 14.8914C2.7275 15.2635 3.2223 15.4495 3.76391 15.4495C7.18738 15.4564 10.6175 15.4495 14.041 15.4495C14.1748 15.4495 14.3085 15.4289 14.4355 15.4151C15.0373 15.3668 15.5254 15.0774 15.9132 14.6088C16.2609 14.1954 16.4482 13.7061 16.4482 13.1686C16.4548 10.5432 16.4482 7.9246 16.4482 5.29915V5.09242C16.3746 5.16133 16.3345 5.20268 16.2877 5.25091C14.723 6.8634 13.1584 8.48966 11.5804 10.0953C11.3397 10.3364 11.0522 10.5432 10.758 10.7086C9.98902 11.1496 9.15989 11.2736 8.29065 11.1151C7.55514 10.9773 6.89987 10.6534 6.37163 10.1159C4.79362 8.50345 3.22899 6.87718 1.65767 5.2578C1.61086 5.21646 1.57074 5.16822 1.49719 5.09931M1.67104 3.03202C1.72453 3.08026 1.77134 3.1285 1.81814 3.17673C3.55663 4.96838 5.28842 6.75314 7.02691 8.54479C7.20076 8.72396 7.38798 8.90312 7.5752 9.0754C7.9229 9.39927 8.33746 9.55776 8.79214 9.59911C9.48753 9.66113 10.096 9.41305 10.5908 8.90312C12.4496 6.99433 14.3018 5.07864 16.1606 3.16295C16.2074 3.11471 16.2476 3.06648 16.2877 3.01824C16.2208 2.8942 16.1673 2.77706 16.0938 2.6668C15.6391 1.96392 15.0039 1.60559 14.1748 1.60559C10.651 1.60559 7.12721 1.60559 3.60343 1.60559C3.47639 1.60559 3.34935 1.62627 3.22899 1.66072C2.51354 1.86056 1.99199 2.31536 1.67773 3.03202" fill="#EB99BD"/>
</svg>
