<svg width="22" height="22" viewBox="0 0 22 22" fill="none" xmlns="http://www.w3.org/2000/svg">
<path d="M9.5644 7.6307V9.1454H8.4556V10.9967H9.5644V16.5H11.8436V10.9967H13.3726C13.3726 10.9967 13.5167 10.109 13.586 9.1377H11.8524V7.8727C11.8524 7.6824 12.101 7.4283 12.3474 7.4283H13.5882V5.5H11.8997C9.5083 5.5 9.5644 7.3535 9.5644 7.6307Z" fill="#EB99BD"/>
<path d="M10.9999 19.8C13.3338 19.8 15.5721 18.8729 17.2224 17.2225C18.8727 15.5722 19.7999 13.3339 19.7999 11C19.7999 8.66609 18.8727 6.42778 17.2224 4.77746C15.5721 3.12714 13.3338 2.2 10.9999 2.2C8.66597 2.2 6.42766 3.12714 4.77734 4.77746C3.12702 6.42778 2.19988 8.66609 2.19988 11C2.19988 13.3339 3.12702 15.5722 4.77734 17.2225C6.42766 18.8729 8.66597 19.8 10.9999 19.8ZM10.9999 22C4.92458 22 -0.00012207 17.0753 -0.00012207 11C-0.00012207 4.9247 4.92458 0 10.9999 0C17.0752 0 21.9999 4.9247 21.9999 11C21.9999 17.0753 17.0752 22 10.9999 22Z" fill="#EB99BD"/>
</svg>
