<svg width="27" height="24" viewBox="0 0 27 24" fill="none" xmlns="http://www.w3.org/2000/svg">
<path d="M26.93 7.19V8.19C26.9 8.45 26.85 8.71 26.83 8.97C26.71 10.05 26.36 11.05 25.91 12.02C25.44 13.03 24.89 14 24.21 14.89C23.67 15.6 23.12 16.3 22.56 17C22.25 17.38 21.91 17.74 21.57 18.1C20.93 18.77 20.29 19.46 19.62 20.1C18.79 20.88 17.92 21.62 17.06 22.36C16.39 22.94 15.61 23.32 14.74 23.51C14.46 23.57 14.18 23.62 13.9 23.67H13.06C13.01 23.65 12.96 23.63 12.9 23.62C12.61 23.57 12.31 23.54 12.02 23.46C11.17 23.24 10.42 22.83 9.76 22.24C8.86 21.42 7.93 20.64 7.03 19.81C6.48 19.3 5.97 18.75 5.47 18.2C4.82 17.48 4.16 16.78 3.56 16.02C2.55 14.73 1.63 13.38 0.97 11.87C0.42 10.61 0.02 9.34 0.05 7.97C0.05 7.88 0.02 7.79 0 7.71V7.5C0.02 7.45 0.05 7.4 0.05 7.34C0.09 6.95 0.09 6.55 0.16 6.16C0.33 5.24 0.66 4.39 1.15 3.59C1.61 2.84 2.2 2.2 2.88 1.64C3.68 0.98 4.57 0.52 5.57 0.26C5.96 0.16 6.36 0.08 6.75 0H8.01C8.23 0.04 8.46 0.07 8.68 0.12C9.49 0.3 10.26 0.6 10.97 1.03C11.67 1.46 12.27 2.01 12.79 2.65C13.03 2.95 13.24 3.26 13.48 3.58C13.94 2.78 14.53 2.12 15.22 1.56C16.02 0.9 16.92 0.46 17.92 0.21C18.25 0.13 18.58 0.07 18.91 0H20.17C20.17 0 20.22 0.05 20.25 0.05C21.08 0.12 21.86 0.37 22.6 0.73C23.75 1.29 24.72 2.08 25.47 3.13C26.2 4.14 26.66 5.26 26.83 6.49C26.86 6.72 26.9 6.96 26.93 7.19ZM24.63 7.72C24.65 6.85 24.47 6.03 24.08 5.26C23.47 4.05 22.54 3.15 21.27 2.66C20.74 2.46 20.16 2.28 19.61 2.29C18.77 2.3 17.97 2.58 17.24 3.02C16.39 3.54 15.73 4.22 15.26 5.1C14.78 5.98 14.59 6.93 14.62 7.93C14.64 8.51 14.29 8.83 13.81 9.01C13.37 9.18 12.8 8.95 12.53 8.55C12.32 8.24 12.31 7.89 12.32 7.53C12.34 6.8 12.17 6.1 11.87 5.44C11.39 4.38 10.66 3.54 9.65 2.97C8.75 2.47 7.8 2.16 6.74 2.35C5.25 2.62 4.07 3.4 3.23 4.63C2.41 5.83 2.16 7.19 2.38 8.62C2.51 9.5 2.81 10.32 3.19 11.12C3.63 12.03 4.18 12.88 4.76 13.71C5.52 14.79 6.37 15.8 7.29 16.74C8.46 17.95 9.67 19.13 10.96 20.22C11.57 20.74 12.18 21.19 13.01 21.3C13.8 21.41 14.55 21.3 15.17 20.85C16.03 20.21 16.82 19.5 17.62 18.78C18.24 18.22 18.83 17.63 19.39 17.01C20.22 16.1 21.04 15.17 21.82 14.21C22.72 13.1 23.46 11.89 24.02 10.57C24.4 9.65 24.67 8.71 24.65 7.7" fill="#EB99BD"/>
</svg>
