<svg width="138" height="23" viewBox="0 0 138 23" fill="none" xmlns="http://www.w3.org/2000/svg">
<path d="M8.48138 0.8479C8.78457 0.871141 9.08916 0.884522 9.39094 0.919031C11.1537 1.1208 12.7137 1.78211 14.038 2.97373C14.0771 3.00894 14.1138 3.04733 14.1507 3.085C14.1627 3.09733 14.1715 3.11247 14.1958 3.14522C13.6739 3.68539 13.1503 4.22733 12.62 4.7763C12.5859 4.75024 12.5542 4.72806 12.5249 4.70271C10.8055 3.21389 8.83457 2.75646 6.67282 3.43679C4.49594 4.12204 3.12895 5.64818 2.6497 7.87226C2.16587 10.1178 2.72717 12.1112 4.42938 13.7025C5.67136 14.8635 7.1799 15.3625 8.87894 15.2716C10.0776 15.2076 11.1868 14.8723 12.1481 14.1343C13.2556 13.2842 13.8011 12.1324 13.931 10.7379C12.1133 10.7379 10.31 10.7379 8.49688 10.7379C8.49688 9.9752 8.49688 9.23466 8.49688 8.47054C8.57118 8.47054 8.63949 8.47054 8.7078 8.47054C11.1192 8.47054 13.5303 8.47194 15.9417 8.46701C16.1097 8.46666 16.1836 8.498 16.2083 8.68498C16.4893 10.8091 16.1551 12.7972 14.8825 14.5646C13.8659 15.9766 12.4756 16.8693 10.7956 17.2788C8.25531 17.8982 5.84954 17.5658 3.67229 16.0703C1.70774 14.7213 0.490415 12.8486 0.114689 10.4967C-0.353649 7.56731 0.635143 5.11012 2.76097 3.09557C3.97372 1.9462 5.43015 1.24792 7.08341 0.975373C7.36054 0.929595 7.6419 0.910228 7.92184 0.881705C8.06129 0.867268 8.20108 0.858817 8.34053 0.8479C8.38736 0.8479 8.4342 0.8479 8.48138 0.8479Z" fill="white"/>
<path d="M48.6397 8.0558C48.6397 7.72972 48.6397 7.45119 48.6397 7.15892C49.3933 7.15892 50.1342 7.15892 50.8966 7.15892C50.8966 7.22547 50.8966 7.28815 50.8966 7.35048C50.8966 10.4785 50.898 13.6068 50.8959 16.7348C50.8952 17.7384 50.7687 18.7209 50.3515 19.6466C49.6472 21.2101 48.4133 22.0735 46.7379 22.3225C45.5614 22.4975 44.4208 22.3683 43.3553 21.8042C42.2721 21.2305 41.534 20.3372 40.9939 19.2301C41.6805 18.9431 42.358 18.6603 43.0524 18.3701C43.0901 18.4452 43.1222 18.511 43.1567 18.5758C43.6225 19.4579 44.3043 20.0702 45.3153 20.234C46.4312 20.4146 47.6689 20.0544 48.2668 18.936C48.463 18.5695 48.5904 18.1786 48.6084 17.7655C48.6295 17.2831 48.6133 16.7989 48.6133 16.3073C48.5961 16.3207 48.5721 16.3338 48.5549 16.3531C47.7693 17.244 46.7604 17.5884 45.5991 17.5571C43.5722 17.5021 41.7006 16.1429 40.9389 14.1748C39.9508 11.6215 41.021 8.68577 43.4433 7.40611C44.7529 6.71417 46.1206 6.59163 47.5055 7.21314C47.9274 7.40259 48.2837 7.68853 48.6397 8.0558ZM46.0889 15.4492C46.8083 15.4341 47.5545 15.0932 48.1027 14.3931C48.8655 13.4195 48.9905 12.3029 48.6728 11.1454C48.3591 10.002 47.6235 9.21291 46.4329 8.98649C45.2659 8.76429 44.3039 9.20376 43.5961 10.1397C42.9574 10.9845 42.8285 11.9588 43.0193 12.98C43.2887 14.4196 44.5043 15.4492 46.0889 15.4492Z" fill="white"/>
<path d="M73.5659 6.05084C73.5659 9.77501 73.5659 13.4509 73.5659 17.1423C72.9856 17.1423 72.3739 17.1423 71.7482 17.1423C71.7482 12.3107 71.7482 7.47522 71.7482 2.61472C71.8098 2.61472 71.8721 2.61472 71.9344 2.61472C72.4331 2.61472 72.9317 2.6193 73.4303 2.61155C73.5592 2.60944 73.6261 2.65205 73.6895 2.76332C75.3114 5.60539 76.9376 8.44535 78.563 11.2857C78.5834 11.3212 78.6039 11.3568 78.6239 11.3924C78.6862 11.5054 78.7429 11.4857 78.7972 11.3857C78.8165 11.3497 78.8373 11.3142 78.8577 11.2786C80.4744 8.4538 82.0917 5.62934 83.7045 2.80241C83.783 2.66472 83.8654 2.60592 84.0299 2.61014C84.5105 2.62282 84.9919 2.61472 85.4729 2.61472C85.536 2.61472 85.5993 2.61472 85.6729 2.61472C85.6729 7.46783 85.6729 12.3033 85.6729 17.148C85.0585 17.148 84.4507 17.148 83.8524 17.148C83.8524 13.465 83.8524 9.78134 83.8524 6.0681C83.8066 6.13113 83.764 6.17972 83.7327 6.23465C82.2713 8.79114 80.8103 11.3476 79.3539 13.9066C79.2838 14.0298 79.2088 14.0777 79.068 14.071C78.8222 14.0594 78.575 14.0598 78.3292 14.071C78.1992 14.077 78.1348 14.0305 78.0714 13.9193C76.7136 11.5329 75.3512 9.14926 73.9898 6.76497C73.8853 6.58186 73.7814 6.39875 73.6757 6.21634C73.6483 6.16916 73.6155 6.12514 73.5659 6.05084Z" fill="white"/>
<path d="M98.0452 7.21424C98.6382 7.21424 99.2178 7.21424 99.8224 7.21424C99.8224 7.67026 99.8224 8.12204 99.8224 8.57383C99.8372 8.58017 99.852 8.58651 99.8667 8.59285C99.8998 8.5601 99.9382 8.53122 99.965 8.4939C100.616 7.58152 101.522 7.07515 102.613 6.93676C104.977 6.6371 107.105 8.05127 107.776 10.3912C108.295 12.2019 108.132 13.947 106.996 15.5126C106.258 16.5303 105.286 17.2349 104.012 17.4198C102.536 17.6335 101.232 17.2729 100.188 16.1581C100.076 16.038 99.9822 15.9007 99.8664 15.7545C99.8664 17.6983 99.8664 19.6079 99.8664 21.5306C99.2811 21.5306 98.6688 21.5306 98.0455 21.5306C98.0452 16.7613 98.0452 11.9966 98.0452 7.21424ZM99.8129 12.1733C99.8312 12.4065 99.8446 12.6403 99.8692 12.8727C99.8833 13.0061 99.9108 13.1385 99.9403 13.2695C100.235 14.5805 101.28 15.5714 102.551 15.7471C103.85 15.9267 105.105 15.2901 105.726 14.1002C106.262 13.0734 106.312 11.9797 105.982 10.8912C105.616 9.68587 104.809 8.87984 103.546 8.64355C102.336 8.41713 101.327 8.82807 100.557 9.78693C99.9995 10.4813 99.8248 11.3025 99.8129 12.1733Z" fill="white"/>
<path d="M34.2392 17.5518C31.1475 17.5472 28.7991 15.2119 28.7998 12.143C28.8005 9.15271 31.1898 6.81137 34.2315 6.82299C36.9028 6.83321 39.6135 8.73121 39.6022 12.2173C39.5934 15.2397 37.2665 17.5564 34.2392 17.5518ZM37.2637 12.0663C37.2327 11.8684 37.2137 11.537 37.1267 11.2247C36.8123 10.0954 36.1034 9.31751 34.9548 9.02665C33.8473 8.74635 32.848 9.02277 32.0599 9.85522C31.1658 10.7996 30.9753 11.9462 31.3007 13.1727C31.8081 15.0848 33.9111 16.0225 35.6031 15.0967C36.7401 14.4742 37.2197 13.4561 37.2637 12.0663Z" fill="white"/>
<path d="M22.4695 17.5515C19.3785 17.5406 17.0291 15.1936 17.0424 12.1304C17.0555 9.13481 19.4436 6.80544 22.4864 6.82305C25.1553 6.83854 27.8632 8.74007 27.8449 12.2294C27.829 15.2521 25.4979 17.5624 22.4695 17.5515ZM25.5084 12.0815C25.4753 11.8698 25.4563 11.5388 25.3694 11.2261C25.0556 10.0968 24.3471 9.31862 23.1984 9.02705C22.091 8.74605 21.0916 9.02177 20.3029 9.85386C19.4084 10.7979 19.2179 11.9441 19.5422 13.171C20.0275 15.0063 21.9949 15.9658 23.6707 15.1816C24.9232 14.596 25.4528 13.5372 25.5084 12.0815Z" fill="white"/>
<path d="M65.7647 10.8342C63.3607 11.8303 60.968 12.8216 58.5749 13.8132C59.4717 15.9482 62.6786 16.0119 63.8364 13.9759C64.4502 14.3833 65.0629 14.79 65.6844 15.2031C64.7949 16.3824 63.6833 17.2078 62.2156 17.4645C60.6662 17.7353 59.2274 17.4434 57.954 16.494C56.8378 15.6616 56.1987 14.5301 55.9831 13.1663C55.7715 11.8268 55.949 10.5398 56.6114 9.34041C58.0037 6.81913 61.2937 6.03387 63.5998 7.67129C64.3784 8.22414 64.945 8.95165 65.3312 9.82072C65.4784 10.151 65.6158 10.4852 65.7647 10.8342ZM62.9952 10.0271C62.6452 9.28266 61.7691 8.81326 60.894 8.88158C59.6813 8.9763 58.571 9.91051 58.2551 11.1039C58.1755 11.4039 58.141 11.7067 58.1945 12.0307C59.8027 11.3592 61.3937 10.6954 62.9952 10.0271Z" fill="white"/>
<path d="M94.5023 11.2685C94.5548 10.3343 94.2756 9.573 93.4875 9.04233C92.4659 8.35461 90.9176 8.44617 90.0383 9.27051C89.8218 9.47369 89.6686 9.74449 89.4703 10.0051C88.9531 9.78428 88.3956 9.54588 87.7949 9.28918C87.9333 9.05466 88.0456 8.81767 88.1995 8.61132C88.9886 7.55386 90.045 6.97777 91.3666 6.89819C92.3286 6.84009 93.2649 6.93728 94.1365 7.38695C95.477 8.07889 96.1753 9.19445 96.2729 10.6847C96.3084 11.2273 96.2957 11.7735 96.2968 12.3182C96.2996 13.8528 96.2979 15.3874 96.2979 16.9224C96.2979 16.9967 96.2979 17.071 96.2979 17.1516C95.6939 17.1516 95.115 17.1516 94.5097 17.1516C94.5097 16.6945 94.5097 16.2435 94.5097 15.792C94.4942 15.7853 94.4784 15.779 94.4629 15.7723C94.4228 15.8128 94.3756 15.8487 94.3432 15.8948C93.6065 16.941 92.5811 17.4358 91.318 17.4763C90.5489 17.5009 89.8094 17.378 89.1295 17.0006C88.0009 16.3738 87.422 15.4209 87.4304 14.1204C87.4378 13.013 87.8882 12.1446 88.8073 11.5203C89.3633 11.1425 89.9728 10.8935 90.6345 10.7847C91.7744 10.597 92.9005 10.6361 93.9953 11.0446C94.1629 11.1065 94.3234 11.1886 94.5023 11.2685ZM92.1712 12.2003C91.8399 12.2365 91.505 12.2531 91.1778 12.3129C90.4676 12.4432 89.8957 12.795 89.5563 13.451C89.1682 14.2014 89.395 14.9705 90.113 15.4107C90.5024 15.6494 90.9282 15.7526 91.3814 15.7737C92.68 15.8343 94.0998 14.8226 94.4076 13.5623C94.596 12.7908 94.6337 12.8609 93.8935 12.5189C93.3526 12.2689 92.7638 12.2267 92.1712 12.2003Z" fill="white"/>
<path d="M116.776 9.19678C116.227 9.42285 115.698 9.64082 115.166 9.8595C115.145 9.83097 115.127 9.81478 115.118 9.79435C114.795 9.07706 114.216 8.70661 113.461 8.59005C112.91 8.50484 112.359 8.51399 111.833 8.72316C111.639 8.79993 111.447 8.90134 111.285 9.03093C110.734 9.47285 110.769 10.2623 111.369 10.6352C111.618 10.7895 111.908 10.8934 112.193 10.9691C113.042 11.1948 113.905 11.3666 114.747 11.6135C115.659 11.8807 116.364 12.4294 116.74 13.3322C117.235 14.5203 116.833 15.8489 115.739 16.668C115.054 17.1807 114.271 17.4138 113.43 17.4659C112.504 17.5233 111.598 17.4283 110.766 16.981C109.792 16.4571 109.108 15.663 108.661 14.6394C109.217 14.4091 109.762 14.1833 110.321 13.9513C110.391 14.0847 110.454 14.214 110.523 14.34C111.231 15.6341 112.771 16.1835 114.119 15.6158C114.591 15.4169 114.951 15.1098 115.017 14.5622C115.069 14.1323 114.926 13.7784 114.586 13.509C114.3 13.2819 113.962 13.1688 113.613 13.0812C112.829 12.884 112.04 12.7058 111.265 12.479C110.68 12.3079 110.167 11.9779 109.715 11.5705C108.779 10.7282 108.729 9.1584 109.609 8.19144C110.215 7.52591 110.99 7.14983 111.864 6.98573C113.044 6.76424 114.188 6.86636 115.257 7.46041C115.963 7.85339 116.465 8.42737 116.776 9.19678Z" fill="white"/>
<path d="M52.4766 1.4254C53.2604 1.4254 54.033 1.4254 54.8214 1.4254C54.8214 6.68874 54.8214 11.951 54.8214 17.2256C54.0436 17.2256 53.2664 17.2256 52.4766 17.2256C52.4766 11.9602 52.4766 6.6972 52.4766 1.4254Z" fill="white"/>
<path d="M129.805 22.6784C129.584 22.3292 129.368 21.9852 129.149 21.6432C128.534 20.6826 127.834 19.7866 127.048 18.9618C126.217 18.0898 125.362 17.241 124.516 16.3834C124.083 15.945 123.637 15.5197 123.262 15.0274C122.774 14.3855 122.38 13.6914 122.099 12.9351C121.776 12.0648 121.612 11.165 121.629 10.2348C121.644 9.37937 121.796 8.54885 122.106 7.75035C122.842 5.8509 124.104 4.40431 125.882 3.41247C126.9 2.8455 127.993 2.52335 129.155 2.43345C130.65 2.31792 132.071 2.58361 133.418 3.24191C134.593 3.81623 135.559 4.64319 136.358 5.67346C136.939 6.42332 137.379 7.24768 137.662 8.15269C137.996 9.22352 138.086 10.3145 137.917 11.4266C137.766 12.4268 137.421 13.356 136.902 14.2209C136.493 14.902 135.985 15.5028 135.421 16.0615C134.584 16.8899 133.746 17.7176 132.929 18.5657C131.947 19.586 131.054 20.6807 130.305 21.8868C130.155 22.128 130.004 22.3691 129.853 22.6101C129.839 22.6324 129.822 22.6533 129.805 22.6784ZM126.217 10.7128C126.222 12.7648 127.923 14.4019 129.993 14.2966C131.889 14.2 133.426 12.6448 133.392 10.6331C133.359 8.66177 131.704 7.08945 129.736 7.13215C127.767 7.17509 126.219 8.77161 126.217 10.7128Z" fill="white"/>
</svg>
