<svg width="22" height="22" viewBox="0 0 22 22" fill="none" xmlns="http://www.w3.org/2000/svg">
<path d="M6.37988 0H15.6199C19.1399 0 21.9999 2.86 21.9999 6.38V15.62C21.9999 17.3121 21.3277 18.9349 20.1312 20.1313C18.9347 21.3278 17.312 22 15.6199 22H6.37988C2.85988 22 -0.00012207 19.14 -0.00012207 15.62V6.38C-0.00012207 4.68792 0.672055 3.06514 1.86854 1.86866C3.06502 0.672177 4.6878 0 6.37988 0ZM6.15988 2.2C5.10962 2.2 4.10238 2.61721 3.35974 3.35986C2.61709 4.1025 2.19988 5.10974 2.19988 6.16V15.84C2.19988 18.029 3.97088 19.8 6.15988 19.8H15.8399C16.8901 19.8 17.8974 19.3828 18.64 18.6401C19.3827 17.8975 19.7999 16.8903 19.7999 15.84V6.16C19.7999 3.971 18.0289 2.2 15.8399 2.2H6.15988ZM16.7749 3.85C17.1396 3.85 17.4893 3.99487 17.7472 4.25273C18.005 4.51059 18.1499 4.86033 18.1499 5.225C18.1499 5.58967 18.005 5.93941 17.7472 6.19727C17.4893 6.45513 17.1396 6.6 16.7749 6.6C16.4102 6.6 16.0605 6.45513 15.8026 6.19727C15.5447 5.93941 15.3999 5.58967 15.3999 5.225C15.3999 4.86033 15.5447 4.51059 15.8026 4.25273C16.0605 3.99487 16.4102 3.85 16.7749 3.85ZM10.9999 5.5C12.4586 5.5 13.8575 6.07946 14.889 7.11091C15.9204 8.14236 16.4999 9.54131 16.4999 11C16.4999 12.4587 15.9204 13.8576 14.889 14.8891C13.8575 15.9205 12.4586 16.5 10.9999 16.5C9.54119 16.5 8.14224 15.9205 7.11079 14.8891C6.07934 13.8576 5.49988 12.4587 5.49988 11C5.49988 9.54131 6.07934 8.14236 7.11079 7.11091C8.14224 6.07946 9.54119 5.5 10.9999 5.5ZM10.9999 7.7C10.1247 7.7 9.2853 8.04768 8.66643 8.66655C8.04755 9.28542 7.69988 10.1248 7.69988 11C7.69988 11.8752 8.04755 12.7146 8.66643 13.3335C9.2853 13.9523 10.1247 14.3 10.9999 14.3C11.8751 14.3 12.7145 13.9523 13.3333 13.3335C13.9522 12.7146 14.2999 11.8752 14.2999 11C14.2999 10.1248 13.9522 9.28542 13.3333 8.66655C12.7145 8.04768 11.8751 7.7 10.9999 7.7Z" fill="#EB99BD"/>
</svg>
