<svg width="41" height="41" viewBox="0 0 41 41" fill="none" xmlns="http://www.w3.org/2000/svg">
<path d="M41 9.21348C41 6.76992 40.0183 4.42643 38.2708 2.69857C36.5233 0.970703 34.1532 0 31.6818 0H9.31818C6.84685 0 4.47673 0.970703 2.72923 2.69857C0.981734 4.42643 -2.38419e-07 6.76992 -2.38419e-07 9.21348V18.8876C-2.38419e-07 19.3764 0.196345 19.8451 0.545845 20.1906C0.895344 20.5362 1.36937 20.7303 1.86364 20.7303C2.3579 20.7303 2.83193 20.5362 3.18143 20.1906C3.53093 19.8451 3.72727 19.3764 3.72727 18.8876V9.21348C3.72727 7.74734 4.31631 6.34125 5.36481 5.30453C6.41331 4.26782 7.83538 3.68539 9.31818 3.68539H31.6818C33.1646 3.68539 34.5867 4.26782 35.6352 5.30453C36.6837 6.34125 37.2727 7.74734 37.2727 9.21348V31.7865C37.2727 33.2527 36.6837 34.6588 35.6352 35.6955C34.5867 36.7322 33.1646 37.3146 31.6818 37.3146H22.3636C21.8694 37.3146 21.3953 37.5087 21.0458 37.8543C20.6963 38.1999 20.5 38.6686 20.5 39.1573C20.5 39.646 20.6963 40.1147 21.0458 40.4603C21.3953 40.8059 21.8694 41 22.3636 41H31.6818C34.1532 41 36.5233 40.0293 38.2708 38.3014C40.0183 36.5736 41 34.2301 41 31.7865V9.21348ZM27.9545 15.2022C27.9545 14.7135 27.7582 14.2448 27.4087 13.8993C27.0592 13.5537 26.5852 13.3596 26.0909 13.3596H11.1818C10.6876 13.3596 10.2135 13.5537 9.86403 13.8993C9.51453 14.2448 9.31818 14.7135 9.31818 15.2022C9.31818 15.691 9.51453 16.1597 9.86403 16.5052C10.2135 16.8508 10.6876 17.0449 11.1818 17.0449H21.4877L6.13137 32.3301C5.95883 32.5019 5.8222 32.7057 5.72929 32.9297C5.63638 33.1537 5.58901 33.3936 5.58987 33.6357C5.59074 33.8779 5.63983 34.1174 5.73433 34.3408C5.82884 34.5642 5.96692 34.7669 6.14068 34.9375C6.31444 35.1081 6.52049 35.2432 6.74705 35.3351C6.97362 35.427 7.21626 35.4738 7.46114 35.4729C7.70601 35.4721 7.94831 35.4235 8.17421 35.3301C8.40011 35.2367 8.60519 35.1001 8.77773 34.9283L24.2273 19.5473V29.9438C24.2273 30.4325 24.4236 30.9012 24.7731 31.2468C25.1226 31.5924 25.5966 31.7865 26.0909 31.7865C26.5852 31.7865 27.0592 31.5924 27.4087 31.2468C27.7582 30.9012 27.9545 30.4325 27.9545 29.9438V15.2022Z" fill="#EB99BD"/>
</svg>
