<svg width="110" height="28" viewBox="0 0 110 28" fill="none" xmlns="http://www.w3.org/2000/svg">
<path d="M19.7834 2.46216L14.7525 16.8086H13.6597L9.80653 5.95284L5.90914 16.8068H4.81808L-0.000610352 2.46216H2.09663L5.45998 13.1252L9.24774 2.46216L10.4909 2.48338L14.1725 13.1234L17.6844 2.46216H19.7817H19.7834Z" fill="white"/>
<path d="M24.2538 5.88873C25.3519 5.88873 26.2661 6.11685 26.9947 6.57484C27.7233 7.03107 28.2679 7.65175 28.6322 8.43689C28.9964 9.22203 29.1786 10.1062 29.1786 11.0929V12.1398H20.9559C21.0407 12.7392 21.2476 13.2892 21.5765 13.7896C21.9055 14.2883 22.3334 14.6844 22.8621 14.9779C23.3891 15.2715 23.9956 15.4165 24.6817 15.4165C25.4527 15.4165 26.1724 15.222 26.8444 14.8294C27.5164 14.4368 28.0787 14.0054 28.5367 13.5332L28.5155 15.4395C28.3156 15.6817 28.0186 15.9364 27.6278 16.1998C27.2352 16.4651 26.786 16.6844 26.2785 16.863C25.7728 17.0416 25.2405 17.13 24.6835 17.13C23.5977 17.13 22.634 16.8736 21.7923 16.3572C20.9506 15.8444 20.291 15.1636 19.8135 14.313C19.3343 13.466 19.0974 12.5323 19.0974 11.5209C19.0974 10.5094 19.3184 9.57216 19.7605 8.71452C20.2043 7.85688 20.8126 7.17254 21.5925 6.65795C22.3705 6.14337 23.2582 5.88696 24.2573 5.88696L24.2538 5.88873ZM24.2538 7.60224C23.3679 7.60224 22.6393 7.89755 22.0699 8.48994C21.4987 9.08233 21.1415 9.80027 20.9983 10.642H27.4439C27.3731 9.94174 27.1768 9.37234 26.855 8.93025C26.5349 8.48817 26.1441 8.15573 25.6897 7.93469C25.2317 7.71188 24.7525 7.60224 24.2538 7.60224Z" fill="white"/>
<path d="M35.3624 5.88895C36.3473 5.88895 37.228 6.1206 38.006 6.58567C38.7841 7.04897 39.3977 7.70855 39.8469 8.56619C40.296 9.42383 40.5224 10.4424 40.5224 11.6272C40.5224 12.7129 40.2978 13.6696 39.8469 14.4954C39.3977 15.3247 38.7982 15.9702 38.0485 16.4335C37.3005 16.8968 36.4623 17.1302 35.5339 17.1302C34.7205 17.1302 33.9955 16.9162 33.3606 16.4883C32.724 16.0604 32.2218 15.5599 31.8505 14.9905V16.8101H30.0945V1.39209H31.8505V7.53879C32.3067 7.02598 32.8531 6.62103 33.488 6.32926C34.1228 6.03572 34.7488 5.88895 35.3624 5.88895ZM35.0406 7.62367C34.3845 7.62367 33.8063 7.77575 33.3076 8.08344C32.8072 8.38936 32.3297 8.82083 31.8717 9.37786L31.8505 11.4344C31.8505 12.193 31.9955 12.8703 32.289 13.468C32.5826 14.0675 32.9893 14.5378 33.5092 14.8791C34.0308 15.2222 34.6126 15.3937 35.2545 15.3937C35.953 15.3937 36.5595 15.2222 37.0741 14.8791C37.5887 14.5378 37.9884 14.0816 38.2748 13.5104C38.5595 12.9393 38.701 12.3115 38.701 11.6254C38.701 10.9393 38.5542 10.2744 38.2624 9.66786C37.9707 9.05956 37.5516 8.56796 37.0105 8.18954C36.4676 7.81112 35.8115 7.62191 35.0406 7.62191V7.62367Z" fill="white"/>
<path d="M46.2783 5.88879C47.0634 5.88879 47.7407 6.01257 48.3119 6.26368C48.883 6.51301 49.2738 6.73759 49.4896 6.93564V8.71458C49.0899 8.41396 48.6319 8.15402 48.1173 7.93298C47.6045 7.71017 46.9892 7.60053 46.2765 7.60053C45.5197 7.60053 44.8565 7.78267 44.2854 8.14518C43.7142 8.51122 43.2757 8.99044 42.9697 9.58106C42.6603 10.1699 42.5082 10.8171 42.5082 11.5191C42.5082 12.2212 42.6621 12.8419 42.9697 13.4342C43.2739 14.0266 43.7142 14.5041 44.2854 14.8684C44.8565 15.2344 45.5214 15.413 46.2765 15.413C46.9892 15.413 47.6045 15.3051 48.1173 15.0823C48.6319 14.8595 49.0899 14.5996 49.4896 14.3007V16.0779C49.2738 16.2919 48.8813 16.52 48.3119 16.7622C47.7407 17.0045 47.0634 17.1283 46.2783 17.1283C45.1925 17.1283 44.2306 16.8719 43.3888 16.3555C42.5453 15.8427 41.8858 15.1619 41.4083 14.3113C40.9291 13.4643 40.6904 12.5306 40.6904 11.5191C40.6904 10.5077 40.9291 9.57045 41.4083 8.71281C41.8858 7.85517 42.5453 7.17083 43.3888 6.65624C44.2306 6.14166 45.1943 5.88525 46.2783 5.88525V5.88879Z" fill="white"/>
<path d="M52.1632 6.10313V8.24457C52.577 7.53017 53.0757 6.959 53.6628 6.53106C54.2481 6.1049 54.8476 5.88916 55.4612 5.88916C55.8732 5.88916 56.2463 5.95989 56.5734 6.10313V8.1367C56.1172 7.86615 55.6592 7.72999 55.203 7.72999C54.4744 7.72999 53.8874 7.9864 53.4364 8.50098C52.9873 9.01379 52.5611 9.62917 52.1632 10.3418V16.8068H50.4073V6.10313H52.1632Z" fill="white"/>
<path d="M61.2578 5.88873C62.356 5.88873 63.2702 6.11685 63.9987 6.57484C64.7273 7.03107 65.2737 7.65175 65.638 8.43689C66.0022 9.22203 66.1826 10.1062 66.1826 11.0929V12.1398H57.9617C58.0465 12.7392 58.2534 13.2892 58.5823 13.7896C58.9095 14.2883 59.3392 14.6844 59.8661 14.9779C60.3949 15.2715 61.0014 15.4165 61.6858 15.4165C62.4567 15.4165 63.1782 15.222 63.8484 14.8294C64.5186 14.4368 65.0827 14.0054 65.5389 13.5332L65.5177 15.4395C65.3179 15.6817 65.0226 15.9364 64.63 16.1998C64.2374 16.4651 63.7865 16.6844 63.2808 16.863C62.7733 17.0416 62.241 17.13 61.6858 17.13C60.6018 17.13 59.638 16.8736 58.7963 16.3572C57.9546 15.8444 57.2932 15.1636 56.8158 14.313C56.3366 13.466 56.0978 12.5323 56.0978 11.5209C56.0978 10.5094 56.3207 9.57216 56.7627 8.71452C57.2048 7.85688 57.8149 7.17254 58.593 6.65795C59.371 6.14337 60.2587 5.88696 61.2578 5.88696V5.88873ZM61.2578 7.60224C60.3737 7.60224 59.6451 7.89755 59.0739 8.48994C58.5028 9.08233 58.1456 9.80027 58.0041 10.642H64.4497C64.3771 9.94174 64.1826 9.37234 63.8608 8.93025C63.539 8.48817 63.1499 8.15573 62.6937 7.93469C62.2375 7.71188 61.7583 7.60224 61.2596 7.60224H61.2578Z" fill="white"/>
<path d="M71.5106 5.88873C72.1242 5.88873 72.7484 6.0355 73.3832 6.32904C74.0198 6.62082 74.5645 7.02577 75.0207 7.53858V6.1027H76.7766V16.8082H75.0207V14.9885C74.6511 15.5579 74.1471 16.0584 73.5123 16.4863C72.8775 16.9143 72.1525 17.1282 71.339 17.1282C70.4248 17.1282 69.5919 16.8948 68.8333 16.4315C68.0765 15.9682 67.4735 15.3228 67.0243 14.4934C66.5752 13.6658 66.3506 12.7092 66.3506 11.6252C66.3506 10.4404 66.5752 9.42185 67.0243 8.56421C67.4735 7.70657 68.0924 7.04699 68.8775 6.58368C69.6627 6.11861 70.5398 5.88696 71.5106 5.88696V5.88873ZM71.8324 7.60224C71.0614 7.60224 70.4054 7.79499 69.8625 8.18048C69.3196 8.56598 68.9023 9.06111 68.6105 9.66941C68.317 10.276 68.172 10.9285 68.172 11.627C68.172 12.3254 68.3134 12.9444 68.5999 13.5226C68.8864 14.1008 69.2878 14.5606 69.8094 14.9019C70.3293 15.245 70.9323 15.4147 71.6184 15.4147C72.3045 15.4147 72.8616 15.245 73.3744 14.9019C73.889 14.5606 74.2957 14.0849 74.5963 13.4784C74.8951 12.8736 75.0384 12.1928 75.0225 11.436L75.0012 9.37941C74.5592 8.82239 74.0852 8.38738 73.5795 8.07438C73.072 7.76139 72.4902 7.60401 71.8342 7.60401L71.8324 7.60224Z" fill="white"/>
<path d="M81.399 3.01904V6.10301H84.5254V7.75285H81.399V14.0251C81.399 14.4672 81.5139 14.8173 81.7403 15.0755C81.9684 15.3301 82.3185 15.4592 82.7889 15.4592C83.2168 15.4592 83.574 15.4062 83.8605 15.2983C84.1452 15.1904 84.3945 15.0755 84.6085 14.9446V16.3788C84.3238 16.6086 84.0197 16.789 83.6996 16.9252C83.3795 17.0596 82.9463 17.1285 82.4052 17.1285C81.491 17.1285 80.8031 16.8544 80.3398 16.3027C79.8747 15.7545 79.6431 15.0242 79.6431 14.11V7.75285H77.5865V7.24004C78.2867 6.92528 78.8721 6.40893 79.3424 5.68745C79.8146 4.96597 80.2266 4.07827 80.5838 3.02081H81.399V3.01904Z" fill="white"/>
<path d="M88.5466 6.10263V16.8081H86.7907V7.75247H85.1002V6.10263H88.5466ZM87.4538 0.963867C87.8676 0.963867 88.2142 1.11064 88.4936 1.40418C88.773 1.69772 88.9109 2.03547 88.9109 2.42097C88.9109 2.80646 88.773 3.12653 88.4936 3.42538C88.2142 3.72423 87.8676 3.8763 87.4538 3.8763C87.04 3.8763 86.6934 3.72423 86.4158 3.42538C86.1382 3.12653 85.9985 2.79055 85.9985 2.42097C85.9985 2.05139 86.1382 1.69595 86.4158 1.40418C86.6934 1.11064 87.04 0.963867 87.4538 0.963867V0.963867Z" fill="white"/>
<path d="M99.8038 6.10278L94.7729 16.8082H93.6801L88.8632 6.10278H90.9604L94.1947 13.9807L97.7048 6.10278H99.802H99.8038Z" fill="white"/>
<path d="M103.956 5.88873C104.569 5.88873 105.192 6.0355 105.827 6.32904C106.463 6.62082 107.008 7.02577 107.466 7.53858V6.1027H109.222V16.8082H107.466V14.9885C107.095 15.5579 106.591 16.0584 105.956 16.4863C105.321 16.9143 104.598 17.1282 103.783 17.1282C102.87 17.1282 102.035 16.8948 101.277 16.4315C100.52 15.9682 99.917 15.3228 99.4679 14.4934C99.0187 13.6658 98.7941 12.7092 98.7941 11.6252C98.7941 10.4404 99.0187 9.42185 99.4679 8.56421C99.917 7.70657 100.534 7.04699 101.319 6.58368C102.104 6.11861 102.982 5.88696 103.954 5.88696L103.956 5.88873ZM104.276 7.60224C103.505 7.60224 102.847 7.79499 102.306 8.18048C101.763 8.56598 101.346 9.06111 101.052 9.66941C100.761 10.276 100.614 10.9285 100.614 11.627C100.614 12.3254 100.755 12.9444 101.042 13.5226C101.328 14.1008 101.73 14.5606 102.251 14.9019C102.773 15.245 103.376 15.4147 104.062 15.4147C104.748 15.4147 105.303 15.245 105.816 14.9019C106.329 14.5606 106.736 14.0849 107.036 13.4784C107.337 12.8736 107.478 12.1928 107.464 11.436L107.443 9.37941C106.999 8.82239 106.525 8.38738 106.02 8.07438C105.514 7.76139 104.93 7.60401 104.274 7.60401L104.276 7.60224Z" fill="white"/>
<path d="M89.2362 20.8623C89.7897 20.8623 90.2583 20.9755 90.6438 21.2001C91.0276 21.4264 91.3211 21.7323 91.5245 22.116C91.7278 22.4998 91.8304 22.9348 91.8304 23.4211C91.8304 23.9074 91.7278 24.3388 91.5245 24.7243C91.3211 25.1098 91.0276 25.4122 90.6438 25.6403C90.2601 25.8631 89.7897 25.9781 89.2362 25.9781C88.8985 25.9781 88.5873 25.9604 88.3043 25.9268C88.0214 25.8914 87.7279 25.8472 87.429 25.7942V21.048C87.7279 20.9932 88.0196 20.949 88.3043 20.9154C88.5873 20.88 88.8985 20.8641 89.2362 20.8641V20.8623ZM89.2362 21.4865C89.0612 21.4865 88.872 21.4936 88.6704 21.506C88.4688 21.5184 88.276 21.5378 88.0904 21.5626V25.2814C88.276 25.3008 88.4688 25.3167 88.6704 25.3326C88.872 25.3468 89.0594 25.3539 89.2362 25.3539C89.6324 25.3539 89.9754 25.269 90.2601 25.101C90.5466 24.9312 90.7676 24.7031 90.9232 24.4113C91.0771 24.1196 91.1549 23.7889 91.1549 23.4228C91.1549 23.0568 91.0771 22.7261 90.9232 22.4343C90.7676 22.1426 90.5483 21.9127 90.2601 21.7447C89.9736 21.5749 89.6324 21.4901 89.2362 21.4901V21.4865Z" fill="white"/>
<path d="M93.5952 22.2296V25.9042H92.994V22.7955H92.4122V22.2296H93.5952ZM93.2221 20.4648C93.3635 20.4648 93.482 20.5161 93.5775 20.6169C93.673 20.7177 93.7225 20.8344 93.7225 20.967C93.7225 21.0997 93.6748 21.2075 93.5775 21.3119C93.482 21.4144 93.3635 21.4657 93.2221 21.4657C93.0806 21.4657 92.9621 21.4144 92.8649 21.3119C92.7694 21.2075 92.7216 21.0926 92.7216 20.967C92.7216 20.8344 92.7694 20.7177 92.8649 20.6169C92.9604 20.5161 93.0788 20.4648 93.2221 20.4648Z" fill="white"/>
<path d="M96.2212 22.1568C96.4299 22.1568 96.6456 22.2063 96.8631 22.3053C97.0806 22.4061 97.2681 22.5441 97.4254 22.7209V22.2293H98.0284V25.8278C98.0284 26.2664 97.9418 26.6289 97.7632 26.9171C97.5881 27.2036 97.3512 27.4193 97.0576 27.5626C96.7641 27.704 96.4422 27.773 96.0957 27.773C95.8711 27.773 95.6783 27.7482 95.5192 27.697C95.36 27.6475 95.2239 27.582 95.1125 27.5042C94.9993 27.4282 94.8967 27.3557 94.803 27.2867V26.6413C94.8755 26.6943 94.9728 26.7651 95.093 26.8517C95.2133 26.9366 95.3583 27.0126 95.528 27.0816C95.696 27.1506 95.887 27.1859 96.0974 27.1859C96.3379 27.1859 96.5572 27.1417 96.7588 27.0533C96.9604 26.9649 97.1213 26.8358 97.2433 26.6643C97.3653 26.4927 97.4254 26.2841 97.4254 26.0453V25.2761C97.2981 25.4706 97.1266 25.6422 96.9073 25.7889C96.6898 25.9339 96.4405 26.01 96.1611 26.01C95.8481 26.01 95.5616 25.9304 95.3017 25.7713C95.0435 25.6103 94.8366 25.3893 94.681 25.1064C94.5271 24.8234 94.4493 24.4928 94.4493 24.1214C94.4493 23.7129 94.5271 23.3628 94.681 23.071C94.8366 22.7775 95.047 22.5511 95.3176 22.392C95.5864 22.2328 95.887 22.155 96.2212 22.155V22.1568ZM96.3291 22.751C96.0674 22.751 95.841 22.8164 95.6536 22.9455C95.4679 23.0763 95.3247 23.2443 95.2239 23.453C95.1248 23.6634 95.0736 23.8862 95.0736 24.1249C95.0736 24.3637 95.1231 24.5759 95.2203 24.7704C95.3194 24.9667 95.4573 25.124 95.6341 25.2408C95.8127 25.3575 96.0196 25.4176 96.2548 25.4176C96.49 25.4176 96.681 25.3575 96.856 25.2408C97.0311 25.1223 97.1726 24.9614 97.2734 24.7562C97.3759 24.5511 97.4272 24.3177 97.4201 24.0578L97.4131 23.354C97.261 23.1612 97.0983 23.0144 96.925 22.9083C96.7517 22.8022 96.5501 22.751 96.3255 22.751H96.3291Z" fill="white"/>
<path d="M99.9895 22.2296V25.9042H99.3865V22.7955H98.8065V22.2296H99.9895ZM99.6146 20.4648C99.7561 20.4648 99.8745 20.5161 99.97 20.6169C100.064 20.7177 100.113 20.8344 100.113 20.967C100.113 21.0997 100.064 21.2075 99.97 21.3119C99.8745 21.4144 99.7543 21.4657 99.6146 21.4657C99.4749 21.4657 99.3529 21.4144 99.2574 21.3119C99.1619 21.2075 99.1124 21.0926 99.1124 20.967C99.1124 20.8344 99.1601 20.7177 99.2574 20.6169C99.3529 20.5161 99.4713 20.4648 99.6146 20.4648Z" fill="white"/>
<path d="M102.177 21.1721V22.2313H103.25V22.7972H102.177V24.9493C102.177 25.1013 102.216 25.2216 102.295 25.31C102.373 25.3967 102.493 25.4426 102.654 25.4426C102.801 25.4426 102.925 25.4232 103.022 25.386C103.121 25.3489 103.206 25.31 103.28 25.2658V25.7574C103.183 25.837 103.077 25.8971 102.967 25.9431C102.858 25.9908 102.709 26.0156 102.523 26.0156C102.209 26.0156 101.973 25.9218 101.814 25.7326C101.655 25.5434 101.576 25.2923 101.576 24.9793V22.7972H100.872V22.6204C101.111 22.5125 101.312 22.3357 101.473 22.0863C101.636 21.8405 101.777 21.5346 101.899 21.1721H102.179H102.177Z" fill="white"/>
<path d="M105.671 22.1567C105.882 22.1567 106.095 22.2063 106.313 22.3053C106.531 22.4061 106.718 22.544 106.875 22.7208V22.2292H107.477V25.9038H106.875V25.2796C106.748 25.4741 106.576 25.6456 106.355 25.7924C106.138 25.9374 105.889 26.0135 105.609 26.0135C105.296 26.0135 105.01 25.9339 104.75 25.7747C104.49 25.6138 104.283 25.3928 104.129 25.1098C103.975 24.8269 103.897 24.4962 103.897 24.1249C103.897 23.7164 103.975 23.3663 104.129 23.0745C104.285 22.781 104.497 22.5546 104.764 22.3955C105.033 22.2363 105.335 22.1585 105.669 22.1585L105.671 22.1567ZM105.781 22.7421C105.515 22.7421 105.291 22.8093 105.105 22.9401C104.918 23.0727 104.775 23.2425 104.676 23.4512C104.575 23.6616 104.523 23.8844 104.523 24.1231C104.523 24.3618 104.571 24.5758 104.67 24.7739C104.767 24.9719 104.907 25.1293 105.084 25.246C105.263 25.3645 105.47 25.4228 105.705 25.4228C105.94 25.4228 106.131 25.3645 106.308 25.246C106.485 25.1293 106.624 24.9648 106.727 24.7579C106.829 24.5493 106.879 24.3176 106.874 24.0577L106.866 23.3539C106.714 23.1611 106.552 23.0126 106.377 22.903C106.203 22.7951 106.005 22.7421 105.779 22.7421H105.781Z" fill="white"/>
<path d="M109.141 20.6135V25.9044H108.538V20.6135H109.141Z" fill="white"/>
<path d="M80.1099 22.2296V25.9042H79.5069V22.7955H78.9269V22.2296H80.1099ZM79.735 20.4648C79.8765 20.4648 79.995 20.5161 80.0904 20.6169C80.1842 20.7177 80.2337 20.8344 80.2337 20.967C80.2337 21.0997 80.1842 21.2075 80.0904 21.3119C79.995 21.4144 79.8747 21.4657 79.735 21.4657C79.5953 21.4657 79.4733 21.4144 79.3778 21.3119C79.2823 21.2075 79.2328 21.0926 79.2328 20.967C79.2328 20.8344 79.2805 20.7177 79.3778 20.6169C79.4733 20.5161 79.5918 20.4648 79.735 20.4648Z" fill="white"/>
<path d="M82.8915 22.1567C83.1019 22.1567 83.3159 22.2063 83.5334 22.3053C83.7509 22.4061 83.9383 22.544 84.0957 22.7208V22.2292H84.697V25.9038H84.0957V25.2796C83.9684 25.4741 83.7969 25.6456 83.5758 25.7924C83.3583 25.9374 83.109 26.0135 82.8296 26.0135C82.5166 26.0135 82.2301 25.9339 81.9702 25.7747C81.7102 25.6138 81.5034 25.3928 81.3495 25.1098C81.1957 24.8269 81.1179 24.4962 81.1179 24.1249C81.1179 23.7164 81.1957 23.3663 81.3495 23.0745C81.5051 22.781 81.7173 22.5546 81.9843 22.3955C82.2531 22.2363 82.5555 22.1585 82.8897 22.1585L82.8915 22.1567ZM83.0011 22.7421C82.7359 22.7421 82.5113 22.8093 82.3256 22.9401C82.1382 23.0727 81.9949 23.2425 81.8959 23.4512C81.7934 23.6616 81.7438 23.8844 81.7438 24.1231C81.7438 24.3618 81.7916 24.5758 81.8906 24.7739C81.9879 24.9719 82.1276 25.1293 82.3044 25.246C82.483 25.3645 82.6899 25.4228 82.9251 25.4228C83.1603 25.4228 83.3513 25.3645 83.5281 25.246C83.7049 25.1293 83.8446 24.9648 83.9472 24.7579C84.0497 24.5493 84.0993 24.3176 84.094 24.0577L84.0869 23.3539C83.9348 23.1611 83.7721 23.0126 83.5971 22.903C83.4238 22.7951 83.2257 22.7421 82.9994 22.7421H83.0011Z" fill="white"/>
<path d="M59.9527 20.9812L62.2516 25.9042H61.4576L60.943 24.7265H58.6353L58.1137 25.9042H57.3215L59.6203 20.9812H59.9527ZM59.7971 22.0988L58.9077 24.1058H60.6707L59.7971 22.0988Z" fill="white"/>
<path d="M64.2746 22.1568C64.485 22.1568 64.6989 22.2063 64.9165 22.3053C65.1357 22.4061 65.3232 22.5441 65.4788 22.7209V22.2293H66.08V25.8278C66.08 26.2664 65.9916 26.6289 65.8165 26.9171C65.6397 27.2036 65.4045 27.4193 65.111 27.5626C64.8174 27.704 64.4974 27.773 64.1508 27.773C63.9262 27.773 63.7317 27.7482 63.5743 27.697C63.4151 27.6475 63.279 27.582 63.1676 27.5042C63.0544 27.4282 62.9518 27.3557 62.8581 27.2867V26.6413C62.9306 26.6943 63.0279 26.7651 63.1464 26.8517C63.2684 26.9366 63.4116 27.0126 63.5796 27.0816C63.7494 27.1506 63.9386 27.1859 64.149 27.1859C64.3877 27.1859 64.6088 27.1417 64.8086 27.0533C65.0102 26.9649 65.1711 26.8358 65.2949 26.6643C65.4169 26.4927 65.477 26.2841 65.477 26.0453V25.2761C65.3497 25.4706 65.1782 25.6422 64.9589 25.7889C64.7414 25.9339 64.4921 26.01 64.2144 26.01C63.9014 26.01 63.615 25.9304 63.355 25.7713C63.0951 25.6103 62.8882 25.3893 62.7343 25.1064C62.5805 24.8234 62.5027 24.4928 62.5027 24.1214C62.5027 23.7129 62.5805 23.3628 62.7343 23.071C62.8882 22.7775 63.0986 22.5511 63.3692 22.392C63.6397 22.2328 63.9403 22.155 64.2728 22.155L64.2746 22.1568ZM64.3842 22.751C64.1207 22.751 63.8944 22.8164 63.7087 22.9455C63.5212 23.0763 63.378 23.2443 63.279 23.453C63.1782 23.6634 63.1287 23.8862 63.1287 24.1249C63.1287 24.3637 63.1782 24.5759 63.2754 24.7704C63.3745 24.9667 63.5124 25.124 63.691 25.2408C63.8696 25.3575 64.0747 25.4176 64.3117 25.4176C64.5486 25.4176 64.7379 25.3575 64.9129 25.2408C65.0897 25.1223 65.2294 24.9614 65.332 24.7562C65.4328 24.5511 65.4823 24.3177 65.477 24.0578L65.4699 23.354C65.3196 23.1612 65.1552 23.0144 64.9819 22.9083C64.8086 22.8022 64.6088 22.751 64.3824 22.751H64.3842Z" fill="white"/>
<path d="M68.6564 22.1567C69.0331 22.1567 69.3461 22.2328 69.5954 22.3902C69.8448 22.5475 70.0322 22.7615 70.1578 23.0303C70.2815 23.3008 70.3452 23.6032 70.3452 23.941V24.3017H67.5247C67.553 24.5086 67.6255 24.6961 67.7369 24.8676C67.8501 25.0391 67.9969 25.1753 68.179 25.2761C68.3611 25.3751 68.568 25.4264 68.8032 25.4264C69.0685 25.4264 69.3143 25.3592 69.5459 25.2248C69.7758 25.0904 69.9685 24.9419 70.1259 24.7809L70.1189 25.4352C70.0499 25.5183 69.9491 25.605 69.8147 25.6969C69.6785 25.7871 69.5247 25.8632 69.3514 25.9233C69.1781 25.9852 68.9942 26.017 68.805 26.017C68.4319 26.017 68.103 25.9286 67.8112 25.7517C67.523 25.5749 67.2966 25.3415 67.1322 25.0497C66.9695 24.7579 66.8864 24.4379 66.8864 24.0913C66.8864 23.7447 66.9642 23.4229 67.1145 23.1293C67.2665 22.834 67.4752 22.6006 67.7422 22.4238C68.0092 22.2469 68.3134 22.1603 68.6582 22.1603L68.6564 22.1567ZM68.6564 22.7421C68.3523 22.7421 68.103 22.8428 67.9067 23.048C67.7104 23.2496 67.5884 23.4971 67.5389 23.7854H69.751C69.7263 23.5466 69.6591 23.3504 69.5495 23.2001C69.4398 23.048 69.3054 22.933 69.1498 22.857C68.9924 22.781 68.828 22.7438 68.6582 22.7438L68.6564 22.7421Z" fill="white"/>
<path d="M71.7509 22.2292V22.8092C71.8288 22.7119 71.9295 22.6129 72.0516 22.5139C72.1736 22.4131 72.3115 22.3282 72.4671 22.2592C72.621 22.192 72.7819 22.1584 72.9481 22.1584C73.1974 22.1584 73.4256 22.2115 73.6307 22.3229C73.8376 22.4325 73.9985 22.6005 74.1223 22.8216C74.2443 23.0461 74.3062 23.3273 74.3062 23.6668V25.9073H73.7049L73.6979 23.7234C73.6979 23.4069 73.6289 23.1629 73.4892 22.9966C73.3495 22.8286 73.1355 22.7455 72.8455 22.7455C72.6493 22.7455 72.4547 22.818 72.262 22.963C72.0692 23.108 71.8995 23.2743 71.7509 23.467V25.9055H71.1479V22.2309H71.7509V22.2292Z" fill="white"/>
<path d="M76.9198 22.1567C77.1886 22.1567 77.422 22.1974 77.6183 22.2841C77.8146 22.3707 77.949 22.4467 78.0232 22.5157V23.1258C77.8853 23.0215 77.7279 22.9313 77.5529 22.857C77.376 22.781 77.1656 22.7438 76.9216 22.7438C76.6616 22.7438 76.4335 22.8075 76.239 22.9313C76.0427 23.055 75.8924 23.2213 75.7863 23.4246C75.682 23.628 75.6289 23.8508 75.6289 24.0895C75.6289 24.3282 75.682 24.544 75.7863 24.7473C75.8906 24.9507 76.0427 25.1151 76.239 25.2407C76.4335 25.3645 76.6616 25.4264 76.9216 25.4264C77.1674 25.4264 77.376 25.3892 77.5529 25.3132C77.7279 25.2372 77.8853 25.147 78.0232 25.0462V25.6563C77.949 25.7305 77.8146 25.8083 77.6183 25.8914C77.422 25.9746 77.1903 26.017 76.9198 26.017C76.5484 26.017 76.2178 25.9286 75.9278 25.7517C75.6395 25.5749 75.4132 25.3415 75.2487 25.0497C75.0825 24.7579 75.0012 24.4379 75.0012 24.0913C75.0012 23.7447 75.0825 23.4229 75.2487 23.1293C75.4132 22.834 75.6395 22.6006 75.9278 22.4238C76.216 22.2469 76.5484 22.1603 76.9198 22.1603V22.1567Z" fill="white"/>
</svg>
