<svg width="20" height="19" viewBox="0 0 20 19" fill="none" xmlns="http://www.w3.org/2000/svg">
<path d="M5.39742 0.0070636C5.51044 0.0423816 5.62346 0.070636 5.73647 0.105954C6.30156 0.282544 6.71831 0.642788 7.06443 1.11605C7.47412 1.67407 7.91206 2.21091 8.33588 2.75481C8.61842 3.11505 8.80208 3.51061 8.87271 3.96268C8.98573 4.65491 8.82327 5.28358 8.42064 5.83454C8.15929 6.19478 7.85556 6.53383 7.57301 6.88701C7.50944 6.96471 7.43174 7.04241 7.37523 7.12718C7.34697 7.16956 7.33991 7.24726 7.3611 7.28964C7.72135 8.10902 8.1381 8.89308 8.71731 9.57825C9.01399 9.93143 9.31772 10.2917 9.64265 10.6166C10.2219 11.1887 10.8646 11.6691 11.571 12.0717C11.9101 12.2624 12.2703 12.4249 12.6235 12.6085C12.7436 12.6721 12.8213 12.6297 12.9131 12.5591C13.3793 12.1847 13.8455 11.7962 14.3258 11.443C14.6507 11.2099 15.0322 11.1181 15.4348 11.0969C16.007 11.0687 16.5367 11.1746 17.0029 11.5137C17.4409 11.8315 17.8576 12.1706 18.2814 12.5096C18.571 12.7357 18.8606 12.9758 19.1573 13.1948C19.4681 13.4279 19.6659 13.7458 19.786 14.106C19.8707 14.3462 19.9131 14.6005 19.9767 14.8477V15.1444C19.9767 15.1444 19.9484 15.2079 19.9414 15.2362C19.8707 15.5046 19.8354 15.7801 19.7295 16.0344C19.4822 16.6348 18.9878 17.0515 18.571 17.5177C18.3168 17.8073 17.9777 18.0334 17.6457 18.2523C17.0806 18.6267 16.4449 18.8316 15.7739 18.9234C15.6185 18.9446 15.4701 18.9728 15.3218 18.994H14.3611C14.3611 18.994 14.3117 18.9658 14.2834 18.9587C13.8455 18.8951 13.4005 18.8669 12.9767 18.7609C11.6134 18.4148 10.3419 17.8215 9.15526 17.0657C8.30763 16.5218 7.48825 15.9426 6.75363 15.2503C6.18854 14.7205 5.62346 14.1978 5.10781 13.6257C4.57098 13.0394 4.08359 12.4108 3.5962 11.7821C3.02405 11.0475 2.55079 10.2564 2.15523 9.41578C1.86562 8.79419 1.61839 8.1514 1.39942 7.50155C1.16632 6.8305 1.03211 6.14533 1.03211 5.43897C1.03211 5.38247 1.01092 5.32596 0.996796 5.26945V5.00809C0.996796 5.00809 1.03211 4.94452 1.03211 4.91627C1.06743 4.56309 1.08156 4.20991 1.14513 3.86379C1.31466 2.98084 1.71022 2.20384 2.32475 1.55399C2.55785 1.30677 2.81921 1.08073 3.08762 0.86176C3.34191 0.649851 3.60327 0.437943 3.89287 0.268417C4.11184 0.141272 4.38026 0.0847632 4.62749 0H5.40448L5.39742 0.0070636ZM15.1169 17.3623C15.3712 17.3694 15.8657 17.2846 16.3389 17.0939C16.7204 16.9385 17.0665 16.7266 17.3561 16.437C17.6104 16.1757 17.8294 15.879 18.0766 15.6106C18.4651 15.2009 18.4086 14.6146 17.9565 14.2826C17.3632 13.8376 16.7839 13.3643 16.1835 12.9193C15.7809 12.6156 15.4842 12.6015 15.124 12.8699C14.5872 13.2654 14.0786 13.7034 13.5629 14.1272C13.2451 14.3886 12.9131 14.5086 12.5175 14.325C12.0513 14.1131 11.5781 13.9153 11.1189 13.6822C10.2077 13.2231 9.39542 12.6227 8.65374 11.9234C8.20873 11.5066 7.79198 11.0475 7.41055 10.5672C6.71831 9.69126 6.16735 8.72355 5.73647 7.6852C5.55282 7.24019 5.47512 6.84463 5.8283 6.43494C6.20267 6.00406 6.54879 5.54493 6.90197 5.09992C7.09269 4.86682 7.31166 4.64785 7.27634 4.30173C7.24809 4.04038 7.11388 3.85673 6.95848 3.66601C6.49934 3.08679 6.0614 2.49345 5.60226 1.90717C5.35504 1.58931 4.86765 1.51867 4.54272 1.75884C4.34494 1.90717 4.17542 2.09789 3.97057 2.24623C3.55382 2.5429 3.24302 2.91727 3.01699 3.3764C2.53666 4.35118 2.51547 5.36834 2.73444 6.40669C2.95341 7.48036 3.40548 8.4622 3.94938 9.40166C4.57804 10.4895 5.34091 11.4784 6.19561 12.3966C6.71831 12.9546 7.2834 13.4844 7.85555 13.993C8.3712 14.4451 8.90097 14.883 9.46606 15.2715C10.575 16.0344 11.7405 16.6913 13.0402 17.0727C13.6336 17.2493 14.2269 17.3623 15.0957 17.3694" fill="#EB99BD"/>
<path d="M19.9767 8.05252C19.8778 8.30681 19.7789 8.5611 19.4893 8.66706C18.9313 8.8719 18.3591 8.56817 18.3521 7.9607C18.338 6.88703 18.0907 5.884 17.5892 4.94454C17.2572 4.32294 16.8334 3.76492 16.3107 3.29166C15.3854 2.45815 14.3188 1.90719 13.0826 1.71647C12.7153 1.65996 12.348 1.62465 11.9807 1.61052C11.6417 1.59639 11.4368 1.40567 11.3097 1.13019C11.1755 0.840585 11.2037 0.53685 11.4297 0.296688C11.5428 0.176607 11.6982 0.105971 11.8324 0.00708008H12.68C12.7153 0.0212073 12.7506 0.0353345 12.793 0.0423981C13.0261 0.0706525 13.2663 0.0777161 13.4994 0.127161C14.3753 0.310815 15.2158 0.600423 15.9999 1.05249C16.7769 1.51163 17.4621 2.07672 18.0483 2.76189C18.6205 3.4188 19.0584 4.15341 19.3834 4.9516C19.7154 5.76392 19.9131 6.61155 19.9343 7.4945C19.9343 7.54394 19.9555 7.59339 19.9696 7.64284V8.05252H19.9767Z" fill="#EB99BD"/>
<path d="M16.8122 7.77682C16.7981 7.99579 16.8052 8.2077 16.6639 8.40548C16.4379 8.71628 16.0776 8.77985 15.7597 8.68803C15.3995 8.58914 15.2229 8.32778 15.2088 7.96754C15.1593 6.6749 14.5801 5.70719 13.4288 5.10678C13.0191 4.89487 12.5741 4.78892 12.1008 4.78892C11.7759 4.78892 11.4933 4.66884 11.345 4.37217C11.1896 4.07549 11.2108 3.75763 11.4086 3.47509C11.5569 3.27024 11.7688 3.15723 12.016 3.15723C13.1109 3.15723 14.0998 3.48215 14.9686 4.15319C15.5549 4.60527 16.014 5.17035 16.339 5.82727C16.565 6.2864 16.7275 6.78085 16.7698 7.2965C16.784 7.4519 16.8052 7.61436 16.8193 7.76976" fill="#EB99BD"/>
</svg>
