<svg width="16" height="20" viewBox="0 0 16 20" fill="none" xmlns="http://www.w3.org/2000/svg">
<path d="M15.9073 7.53168C15.7371 6.12805 15.1913 4.8733 14.3477 3.74614C13.5395 2.6757 12.5187 1.88173 11.3065 1.3217C10.6685 1.02396 10.0021 0.811286 9.30029 0.726217C9.05218 0.690772 8.80406 0.676594 8.55594 0.648238C8.52759 0.648238 8.50632 0.626971 8.47797 0.612793H7.51386C7.32954 0.63406 7.14523 0.662416 6.96091 0.683683C6.22366 0.775841 5.51475 0.974333 4.83421 1.26498C4.25291 1.5131 3.69288 1.81084 3.21082 2.21491C2.75712 2.59772 2.33178 3.01597 1.92062 3.44131C1.38894 3.99426 1.02031 4.66062 0.708396 5.35535C0.446102 5.92956 0.254699 6.52504 0.162541 7.15596C0.112918 7.51041 0.0845621 7.87195 0.049117 8.2264C0.049117 8.25476 0.0278499 8.27603 0.0136719 8.30438V8.82188C0.0349389 8.97075 0.0703841 9.11253 0.0845621 9.2614C0.148363 9.85688 0.346856 10.4169 0.580794 10.9628C0.928156 11.778 1.38185 12.5436 1.89935 13.2596C2.28216 13.7842 2.67914 14.3017 3.08322 14.8121C4.00479 15.9747 5.07523 17.0097 6.13859 18.0447C6.59937 18.4984 7.10978 18.9025 7.59893 19.3278C7.72653 19.4412 7.84704 19.5618 7.96756 19.6823H8.04554C8.37872 19.3916 8.71899 19.1151 9.038 18.8174C9.8107 18.0943 10.5976 17.3783 11.3348 16.6198C11.9799 15.9534 12.5754 15.2445 13.1638 14.5356C13.5821 14.0252 13.979 13.4865 14.3477 12.9406C14.9573 12.0403 15.4819 11.0904 15.7797 10.027C15.8647 9.72928 15.9002 9.42445 15.964 9.11962C15.964 9.09126 15.9852 9.07 15.9994 9.04164V7.96411C15.9782 7.81524 15.9427 7.67346 15.9285 7.52459M13.8089 10.3106C13.4048 11.2392 12.8306 12.0687 12.221 12.8768C11.8594 13.3518 11.4766 13.8126 11.0725 14.2521C10.2857 15.1028 9.47752 15.9393 8.66937 16.7687C8.46379 16.9813 8.23694 17.1586 8.01718 17.3571C7.76197 17.116 7.52804 16.9034 7.30119 16.6765C6.94674 16.3362 6.57811 16.0172 6.25201 15.6557C5.52893 14.8617 4.83421 14.0536 4.13239 13.2383C3.56527 12.5862 3.08322 11.8702 2.65079 11.1187C2.2538 10.424 1.90644 9.70801 1.82137 8.90695C1.75757 8.26185 1.84264 7.62384 2.01278 7C2.27507 6.05007 2.73586 5.20648 3.38805 4.46213C3.95517 3.81703 4.62154 3.3208 5.38715 2.95926C5.98263 2.68279 6.60646 2.47012 7.26574 2.42758C7.70526 2.39923 8.14478 2.35669 8.57721 2.39923C9.54841 2.4843 10.4487 2.78912 11.2781 3.29953C11.8098 3.62563 12.2777 4.0297 12.6888 4.49758C13.178 5.05052 13.5608 5.67436 13.8231 6.37617C14.0428 6.95747 14.1634 7.56004 14.2272 8.18387C14.3051 8.94948 14.0996 9.64421 13.8089 10.3177" fill="#EB99BD"/>
<path d="M8.01714 5.24904C6.27324 5.16397 4.91214 6.67393 4.82708 8.17681C4.70656 10.2114 6.33704 11.4874 7.7194 11.5795C9.83193 11.7213 11.1788 10.0696 11.1859 8.43201C11.1859 6.66684 9.76813 5.20651 8.02422 5.24904M7.98878 9.97033C7.14519 9.95615 6.45046 9.28269 6.44337 8.41074C6.44337 7.54588 7.14519 6.84407 8.01714 6.85116C8.86073 6.85116 9.57672 7.56715 9.55545 8.41783C9.56963 9.26852 8.85364 9.98451 7.98878 9.97033Z" fill="#EB99BD"/>
</svg>
