<svg width="111" height="111" viewBox="0 0 111 111" fill="none" xmlns="http://www.w3.org/2000/svg">
<path d="M55.5 0C44.5232 0 33.7928 3.25502 24.6659 9.35343C15.5389 15.4519 8.42537 24.1198 4.22471 34.2611C0.0240474 44.4024 -1.07504 55.5616 1.06644 66.3275C3.20792 77.0934 8.49378 86.9826 16.2556 94.7444C24.0174 102.506 33.9066 107.792 44.6725 109.934C55.4384 112.075 66.5976 110.976 76.7389 106.775C86.8802 102.575 95.5481 95.4611 101.647 86.3341C107.745 77.2072 111 66.4768 111 55.5C110.984 40.7855 105.131 26.6783 94.7264 16.2736C84.3217 5.86887 70.2145 0.0163223 55.5 0ZM55.5 98.6666C46.9625 98.6666 38.6166 96.135 31.5179 91.3917C24.4192 86.6485 18.8864 79.9068 15.6192 72.0191C12.352 64.1315 11.4972 55.4521 13.1628 47.0786C14.8284 38.7051 18.9396 31.0135 24.9766 24.9766C31.0135 18.9396 38.7051 14.8284 47.0786 13.1628C55.4521 11.4972 64.1315 12.352 72.0192 15.6192C79.9068 18.8864 86.6486 24.4192 91.3918 31.5179C96.135 38.6166 98.6667 46.9624 98.6667 55.5C98.6544 66.9447 94.1026 77.9172 86.0099 86.0099C77.9173 94.1026 66.9448 98.6544 55.5 98.6666ZM76.0556 55.5C76.0554 56.4915 75.8162 57.4683 75.3582 58.3477C74.9001 59.2271 74.2368 59.9831 73.4245 60.5515L52.8689 74.9404C51.9448 75.5871 50.861 75.9679 49.7355 76.0415C48.61 76.115 47.4859 75.8785 46.4855 75.3576C45.4851 74.8367 44.6467 74.0515 44.0615 73.0872C43.4764 72.123 43.1669 71.0168 43.1667 69.8889V41.1111C43.1669 39.9832 43.4764 38.877 44.0615 37.9127C44.6467 36.9485 45.4851 36.1632 46.4855 35.6424C47.4859 35.1215 48.61 34.885 49.7355 34.9585C50.861 35.0321 51.9448 35.4129 52.8689 36.0596L73.4245 50.4485C74.2368 51.0169 74.9001 51.7729 75.3582 52.6523C75.8162 53.5316 76.0554 54.5085 76.0556 55.5Z" fill="white"/>
</svg>
