<svg width="27" height="27" viewBox="0 0 27 27" fill="none" xmlns="http://www.w3.org/2000/svg">
<path d="M18.8396 26.92C18.5496 26.87 18.2496 26.84 17.9696 26.76C16.1596 26.27 15.0396 25.11 14.6396 23.27C14.5696 22.94 14.5396 22.59 14.5396 22.24C14.5296 21.22 14.5396 20.2 14.5396 19.17C14.5396 17.72 15.0796 16.5 16.1796 15.55C16.7896 15.02 17.5196 14.65 18.3296 14.6C19.4796 14.53 20.6296 14.56 21.7796 14.53C22.5696 14.51 23.3496 14.53 24.0896 14.84C24.5696 15.04 24.9996 15.3 25.3896 15.65C26.0896 16.27 26.5596 17.03 26.7796 17.94C26.8296 18.13 26.8696 18.33 26.9196 18.53V22.88C26.8896 23.02 26.8496 23.17 26.8196 23.31C26.3996 25.12 25.2896 26.28 23.4896 26.76C23.2096 26.83 22.9096 26.87 22.6196 26.92H18.8396ZM20.7196 16.85C20.1496 16.85 19.5796 16.85 19.0196 16.85C17.8296 16.83 16.8596 17.87 16.8496 19.02C16.8496 20.17 16.8496 21.31 16.8496 22.46C16.8496 22.64 16.8896 22.84 16.9396 23.01C17.2196 23.95 18.0896 24.62 19.1296 24.62C20.1696 24.62 21.2096 24.62 22.2496 24.62C22.4396 24.62 22.6296 24.6 22.8096 24.57C23.8296 24.39 24.5996 23.49 24.5996 22.46C24.5996 21.3 24.5996 20.13 24.5996 18.97C24.5996 17.91 23.6296 16.85 22.4896 16.85C21.8996 16.85 21.2996 16.85 20.7096 16.85" fill="#EB99BD"/>
<path d="M0 18.47C0.06 18.23 0.1 18 0.17 17.76C0.37 17.06 0.72 16.44 1.22 15.93C1.92 15.2 2.78 14.67 3.8 14.61C5.15 14.53 6.5 14.56 7.85 14.54C8.39 14.54 8.92 14.61 9.42 14.81C10.97 15.42 11.95 16.53 12.28 18.18C12.36 18.57 12.38 18.98 12.39 19.39C12.4 20.32 12.39 21.24 12.39 22.17C12.39 23.22 12.14 24.2 11.51 25.07C10.82 26.01 9.89 26.58 8.76 26.82C8.54 26.87 8.31 26.89 8.09 26.93H4.31C4.15 26.91 3.99 26.9 3.84 26.87C3.04 26.71 2.31 26.43 1.67 25.9C0.93 25.29 0.43 24.54 0.17 23.62C0.11 23.4 0.06 23.16 0.01 22.94V18.48L0 18.47ZM6.16 16.84C5.58 16.84 5.01 16.85 4.43 16.84C3.35 16.81 2.29 17.87 2.3 18.96C2.32 20.16 2.3 21.36 2.3 22.55C2.3 22.63 2.3 22.71 2.31 22.78C2.56 23.88 3.46 24.61 4.61 24.6C5.66 24.59 6.71 24.6 7.76 24.6C9.04 24.6 10.08 23.6 10.07 22.3C10.07 21.29 10.07 20.27 10.07 19.26C10.07 19.04 10.05 18.83 10.02 18.62C9.87 17.64 8.92 16.83 7.95 16.84C7.36 16.84 6.76 16.84 6.17 16.84" fill="#EB99BD"/>
<path d="M26.9203 8.34C26.8203 8.71 26.7503 9.1 26.6103 9.46C26.1503 10.67 25.3003 11.51 24.1103 12.01C23.5303 12.25 22.9203 12.34 22.2903 12.33C21.1403 12.32 19.9803 12.34 18.8303 12.33C17.7503 12.31 16.8203 11.9 16.0103 11.17C15.2303 10.47 14.7903 9.59 14.5903 8.57C14.5503 8.35 14.5303 8.12 14.5303 7.9C14.5303 6.81 14.5303 5.71 14.5303 4.62C14.5303 3.57 14.8003 2.59 15.4403 1.76C16.1603 0.83 17.1003 0.23 18.2803 0.05C18.3103 0.05 18.3303 0.02 18.3603 0H23.0803C23.0803 0 23.1003 0.04 23.1103 0.04C23.7003 0.11 24.2303 0.32 24.7403 0.62C25.6303 1.15 26.2603 1.9 26.6103 2.87C26.7403 3.23 26.8203 3.62 26.9203 3.99V8.34ZM24.6103 6.17C24.6103 5.56 24.6203 4.95 24.6103 4.33C24.6003 3.77 24.3603 3.29 23.9703 2.91C23.5003 2.45 22.9003 2.24 22.2403 2.25C21.2003 2.25 20.1603 2.25 19.1203 2.25C18.9303 2.25 18.7403 2.27 18.5603 2.31C17.5603 2.57 16.8303 3.5 16.8503 4.52C16.8703 5.65 16.8503 6.78 16.8503 7.9C16.8503 7.97 16.8403 8.04 16.8503 8.11C17.1103 9.32 17.9003 10 19.0903 10.04C20.2703 10.08 21.4603 10.03 22.6503 10C23.7003 9.97 24.6303 8.89 24.6203 7.88C24.6203 7.3 24.6203 6.73 24.6203 6.15" fill="#EB99BD"/>
<path d="M8.55027 0C8.75027 0.05 8.96027 0.1 9.16027 0.16C9.88027 0.37 10.5303 0.74 11.0503 1.27C11.8003 2.04 12.2903 2.96 12.3303 4.05C12.3703 5.33 12.4203 6.61 12.3803 7.89C12.3103 9.76 11.4103 11.13 9.71027 11.95C9.20027 12.19 8.65027 12.33 8.07027 12.33C6.83027 12.33 5.59027 12.33 4.35027 12.33C3.32027 12.33 2.43027 11.95 1.64027 11.31C0.870273 10.69 0.420273 9.88 0.150273 8.96C0.100273 8.78 0.0702734 8.59 0.0302734 8.4V3.93C0.0702734 3.74 0.110273 3.54 0.170273 3.35C0.340273 2.71 0.630273 2.13 1.06027 1.61C1.51027 1.06 2.05027 0.63 2.71027 0.37C3.05027 0.22 3.44027 0.12 3.83027 0H8.55027ZM2.31027 6.16C2.31027 6.76 2.27027 7.37 2.32027 7.97C2.35027 8.32 2.45027 8.69 2.63027 8.98C3.07027 9.71 3.77027 10.05 4.62027 10.07C5.67027 10.08 6.72027 10.07 7.77027 10.07C7.95027 10.07 8.14027 10.05 8.31027 10.01C9.41027 9.71 10.0703 8.88 10.0803 7.77C10.0803 6.7 10.0803 5.64 10.0803 4.57C10.0803 4.43 10.0503 4.28 10.0303 4.14C9.89027 3.11 9.04027 2.32 7.97027 2.28C6.71027 2.24 5.44027 2.26 4.18027 2.33C3.17027 2.39 2.32027 3.36 2.32027 4.36C2.32027 4.96 2.32027 5.57 2.32027 6.17" fill="#EB99BD"/>
</svg>
