<svg width="27" height="27" viewBox="0 0 27 27" fill="none" xmlns="http://www.w3.org/2000/svg">
<path d="M26.93 25.48V26.11C26.78 26.43 26.59 26.72 26.23 26.85C26.11 26.89 25.99 26.92 25.88 26.95H25.67C25.21 26.86 24.92 26.54 24.61 26.23C22.58 24.2 20.55 22.18 18.53 20.15C18.46 20.08 18.44 19.98 18.4 19.91C17.35 20.75 16.29 21.36 15.13 21.78C14.19 22.12 13.22 22.36 12.23 22.42C11.5 22.47 10.76 22.44 10.04 22.37C9.39 22.31 8.74 22.18 8.1 22.01C6.8 21.67 5.63 21.06 4.54 20.28C3.78 19.73 3.1 19.08 2.51 18.36C1.77 17.45 1.18 16.46 0.76 15.36C0.44 14.53 0.2 13.68 0.1 12.79C0.08 12.6 0.03 12.41 0 12.22V10.28C0.05 9.94 0.1 9.59 0.16 9.25C0.33 8.3 0.62 7.38 1.03 6.5C1.45 5.6 1.96 4.74 2.65 4C3.15 3.46 3.65 2.91 4.22 2.45C5.01 1.8 5.89 1.28 6.84 0.89C7.8 0.5 8.78 0.22 9.81 0.1C10.06 0.07 10.31 0.03 10.56 0H11.93C11.93 0 12 0.05 12.04 0.05C12.37 0.09 12.69 0.12 13.02 0.16C14.18 0.31 15.27 0.68 16.31 1.19C17.12 1.59 17.87 2.09 18.55 2.69C19.24 3.29 19.86 3.94 20.4 4.68C21.18 5.76 21.77 6.93 22.09 8.22C22.28 9 22.42 9.8 22.48 10.6C22.56 11.56 22.48 12.52 22.28 13.46C22.08 14.46 21.76 15.43 21.28 16.33C20.9 17.03 20.45 17.68 20.02 18.38C20.05 18.41 20.13 18.47 20.19 18.54C22.26 20.61 24.34 22.67 26.4 24.75C26.61 24.96 26.77 25.23 26.95 25.48M20.19 12.16C20.19 9.04 19.45 7.08 18 5.42C16.22 3.4 13.95 2.35 11.26 2.34C8.93 2.34 6.87 3.16 5.17 4.76C3.39 6.44 2.4 8.53 2.35 10.97C2.23 16.25 6.39 20.08 11.07 20.18C16.17 20.29 20.25 16.15 20.2 12.16" fill="#EB99BD"/>
</svg>
