<svg width="22" height="22" viewBox="0 0 22 22" fill="none" xmlns="http://www.w3.org/2000/svg">
<path d="M17.6011 6.59992C18.1846 6.59992 18.7442 6.36815 19.1568 5.95559C19.5694 5.54304 19.8012 4.98349 19.8012 4.40005C19.8012 3.81661 19.5694 3.25706 19.1568 2.8445C18.7442 2.43195 18.1846 2.20018 17.6011 2.20018C17.0176 2.20018 16.4581 2.43195 16.0455 2.8445C15.6329 3.25706 15.4011 3.81661 15.4011 4.40005C15.4011 4.98349 15.6329 5.54304 16.0455 5.95559C16.4581 6.36815 17.0176 6.59992 17.6011 6.59992ZM8.72167 10.1637C8.83683 10.762 8.82709 11.3777 8.69307 11.972L14.2372 14.7626C14.928 13.9442 15.8934 13.4058 16.9527 13.2484C18.012 13.0909 19.0924 13.3251 19.9913 13.9071C20.8903 14.4891 21.5461 15.3789 21.8359 16.4098C22.1256 17.4407 22.0294 18.5419 21.5653 19.5069C21.1012 20.472 20.3011 21.2347 19.3148 21.6521C18.3286 22.0694 17.224 22.1128 16.208 21.7741C15.1921 21.4354 14.3346 20.7378 13.7962 19.8121C13.2578 18.8864 13.0755 17.7962 13.2835 16.7457L7.68433 13.9277C7.08692 14.5976 6.29887 15.0689 5.42593 15.2781C4.55299 15.4874 3.63693 15.4247 2.80066 15.0984C1.9644 14.7721 1.24794 14.1979 0.747429 13.4527C0.24692 12.7076 -0.0136951 11.8272 0.000554668 10.9298C0.0148044 10.0323 0.303237 9.16063 0.82715 8.43177C1.35106 7.7029 2.08539 7.15171 2.93159 6.85213C3.77779 6.55256 4.69539 6.51895 5.56124 6.75581C6.4271 6.99266 7.19979 7.48866 7.77564 8.17723L13.3154 5.40319C13.0712 4.36058 13.2156 3.26469 13.7216 2.32093C14.2276 1.37716 15.0604 0.650311 16.064 0.276612C17.0676 -0.0970876 18.1731 -0.0919818 19.1732 0.290972C20.1733 0.673926 20.9994 1.40844 21.4966 2.35684C21.9939 3.30523 22.1282 4.40241 21.8743 5.44272C21.6204 6.48303 20.9958 7.39506 20.1176 8.00785C19.2394 8.62065 18.1678 8.89215 17.1037 8.77146C16.0396 8.65077 15.056 8.14619 14.3373 7.35228L8.72167 10.1637ZM4.40073 13.1995C4.98423 13.1995 5.54382 12.9678 5.95642 12.5552C6.36901 12.1427 6.6008 11.5831 6.6008 10.9997C6.6008 10.4162 6.36901 9.85668 5.95642 9.44412C5.54382 9.03157 4.98423 8.7998 4.40073 8.7998C3.81724 8.7998 3.25764 9.03157 2.84505 9.44412C2.43246 9.85668 2.20066 10.4162 2.20066 10.9997C2.20066 11.5831 2.43246 12.1427 2.84505 12.5552C3.25764 12.9678 3.81724 13.1995 4.40073 13.1995ZM17.6011 19.7992C18.1846 19.7992 18.7442 19.5674 19.1568 19.1548C19.5694 18.7423 19.8012 18.1827 19.8012 17.5993C19.8012 17.0158 19.5694 16.4563 19.1568 16.0437C18.7442 15.6312 18.1846 15.3994 17.6011 15.3994C17.0176 15.3994 16.4581 15.6312 16.0455 16.0437C15.6329 16.4563 15.4011 17.0158 15.4011 17.5993C15.4011 18.1827 15.6329 18.7423 16.0455 19.1548C16.4581 19.5674 17.0176 19.7992 17.6011 19.7992Z" fill="#EB99BD"/>
</svg>
