<svg width="48" height="48" viewBox="0 0 48 48" fill="none" xmlns="http://www.w3.org/2000/svg">
<path opacity="0.5" d="M23.75 0C34.9434 0 40.5413 0 44.0207 3.477C45.8185 5.27725 46.6878 7.64275 47.1082 11.058V19H0.389526V11.058C0.807526 7.64275 1.6744 5.27725 3.47465 3.477C6.95403 0 12.5519 0 23.7477 0H23.75Z" fill="#EB99BD"/>
<path fill-rule="evenodd" clip-rule="evenodd" d="M0 28.5C0 21.85 1.41561e-07 18.525 1.29438 15.9837C2.43285 13.7494 4.24942 11.9329 6.48375 10.7944C9.025 9.5 12.35 9.5 19 9.5H28.5C35.15 9.5 38.475 9.5 41.0163 10.7944C43.2506 11.9329 45.0671 13.7494 46.2056 15.9837C47.5 18.525 47.5 21.85 47.5 28.5C47.5 35.15 47.5 38.475 46.2056 41.0163C45.0671 43.2506 43.2506 45.0671 41.0163 46.2056C38.475 47.5 35.15 47.5 28.5 47.5H19C12.35 47.5 9.025 47.5 6.48375 46.2056C4.24942 45.0671 2.43285 43.2506 1.29438 41.0163C1.41561e-07 38.475 0 35.15 0 28.5ZM25.0087 20.1163C24.6748 19.7827 24.222 19.5953 23.75 19.5953C23.278 19.5953 22.8252 19.7827 22.4913 20.1163L16.5538 26.0538C16.3787 26.2168 16.2384 26.4135 16.141 26.632C16.0437 26.8505 15.9913 27.0863 15.9871 27.3255C15.9829 27.5647 16.0269 27.8022 16.1165 28.024C16.206 28.2458 16.3394 28.4473 16.5085 28.6165C16.6777 28.7856 16.8792 28.919 17.101 29.0085C17.3228 29.0981 17.5603 29.1421 17.7995 29.1379C18.0387 29.1337 18.2745 29.0813 18.493 28.984C18.7115 28.8866 18.9082 28.7463 19.0712 28.5712L21.9688 25.6738V35.625C21.9688 36.0974 22.1564 36.5505 22.4905 36.8845C22.8245 37.2186 23.2776 37.4062 23.75 37.4062C24.2224 37.4062 24.6755 37.2186 25.0095 36.8845C25.3436 36.5505 25.5312 36.0974 25.5312 35.625V25.6738L28.4288 28.5712C28.5918 28.7463 28.7885 28.8866 29.007 28.984C29.2255 29.0813 29.4613 29.1337 29.7005 29.1379C29.9397 29.1421 30.1772 29.0981 30.399 29.0085C30.6208 28.919 30.8223 28.7856 30.9915 28.6165C31.1606 28.4473 31.294 28.2458 31.3835 28.024C31.4731 27.8022 31.5171 27.5647 31.5129 27.3255C31.5087 27.0863 31.4563 26.8505 31.359 26.632C31.2616 26.4135 31.1213 26.2168 30.9462 26.0538L25.0087 20.1163Z" fill="#EB99BD"/>
</svg>
