<svg width="22" height="22" viewBox="0 0 22 22" fill="none" xmlns="http://www.w3.org/2000/svg">
<path d="M10.9999 19.8C13.3338 19.8 15.5721 18.8729 17.2224 17.2225C18.8727 15.5722 19.7999 13.3339 19.7999 11C19.7999 8.66609 18.8727 6.42778 17.2224 4.77746C15.5721 3.12714 13.3338 2.2 10.9999 2.2C8.66597 2.2 6.42766 3.12714 4.77734 4.77746C3.12702 6.42778 2.19988 8.66609 2.19988 11C2.19988 13.3339 3.12702 15.5722 4.77734 17.2225C6.42766 18.8729 8.66597 19.8 10.9999 19.8ZM10.9999 22C4.92458 22 -0.00012207 17.0753 -0.00012207 11C-0.00012207 4.9247 4.92458 0 10.9999 0C17.0752 0 21.9999 4.9247 21.9999 11C21.9999 17.0753 17.0752 22 10.9999 22Z" fill="#EB99BD"/>
<path d="M16.4999 7.64181C16.0951 7.81781 15.6606 7.93881 15.2041 7.99161C15.6705 7.71661 16.0269 7.28101 16.1963 6.76291C15.7518 7.02192 15.2669 7.20414 14.7619 7.30191C14.5494 7.07924 14.2939 6.90218 14.0108 6.78152C13.7277 6.66086 13.4229 6.59914 13.1152 6.60011C11.8689 6.60011 10.8591 7.59561 10.8591 8.82211C10.8591 8.99591 10.8789 9.16531 10.9174 9.32811C10.0234 9.28566 9.14816 9.05734 8.34739 8.65771C7.54662 8.25808 6.83795 7.69593 6.26658 7.00711C6.0659 7.34492 5.96024 7.73069 5.96078 8.12361C5.96078 8.89361 6.36008 9.57561 6.96508 9.97271C6.60697 9.96148 6.25652 9.86614 5.94208 9.69441V9.72191C5.94548 10.2383 6.12776 10.7376 6.45789 11.1347C6.78802 11.5318 7.24558 11.8022 7.75268 11.8999C7.41977 11.9879 7.07144 12.0007 6.73298 11.9373C6.88052 12.3816 7.16272 12.7689 7.5404 13.0454C7.91809 13.322 8.37251 13.4741 8.84058 13.4806C8.03754 14.0994 7.05158 14.4337 6.03778 14.431C5.85628 14.431 5.67698 14.42 5.49988 14.4002C6.5344 15.055 7.73394 15.4018 8.95828 15.4001C13.1097 15.4001 15.379 12.0143 15.379 9.07731L15.3713 8.78911C15.8138 8.47812 16.1962 8.08938 16.4999 7.64181Z" fill="#EB99BD"/>
</svg>
