<svg width="34" height="34" viewBox="0 0 34 34" fill="none" xmlns="http://www.w3.org/2000/svg">
<path d="M17.2459 0.724991C26.3703 0.724991 33.7667 8.12137 33.7667 17.2458C33.7667 26.3703 26.3703 33.7667 17.2459 33.7667C14.434 33.7708 11.6679 33.0541 9.2118 31.685L8.70792 31.391L3.6988 32.8646C3.42621 32.9449 3.13762 32.9543 2.86039 32.8919C2.58317 32.8294 2.32648 32.6972 2.11468 32.5077C1.90288 32.3182 1.74297 32.0778 1.65012 31.8092C1.55728 31.5407 1.53456 31.2528 1.58413 30.973L1.62709 30.7929L3.10075 25.7838C1.54276 23.2087 0.721048 20.2555 0.725051 17.2458C0.725051 8.12137 8.12143 0.724991 17.2459 0.724991ZM17.2459 4.02916C14.8795 4.02873 12.5564 4.66365 10.5191 5.86762C8.48192 7.07159 6.80531 8.80044 5.66439 10.8736C4.52347 12.9468 3.9601 15.2883 4.03311 17.6536C4.10613 20.0189 4.81284 22.3212 6.07945 24.32C6.40657 24.8355 6.54699 25.4699 6.4363 26.0993L6.37187 26.3686L5.6433 28.8484L8.12308 28.1198C8.83843 27.9084 9.58187 28.0372 10.1717 28.4123C11.9036 29.5089 13.8669 30.1876 15.9063 30.3948C17.9457 30.602 20.0054 30.332 21.9224 29.606C23.8395 28.8801 25.5615 27.7182 26.9522 26.2122C28.3428 24.7061 29.3642 22.8972 29.9353 20.9285C30.5065 18.9598 30.6119 16.8851 30.2432 14.8687C29.8745 12.8522 29.0418 10.9491 27.8109 9.30984C26.5801 7.6706 24.9848 6.34015 23.1511 5.42365C21.3175 4.50716 19.2958 4.02974 17.2459 4.02916ZM12.4581 9.28939C12.6411 9.21018 12.8414 9.17996 13.0396 9.20168C13.2377 9.22341 13.4268 9.29634 13.5882 9.4133C14.4208 10.0213 15.0817 10.8374 15.65 11.6337L16.1902 12.4168L16.443 12.7885C16.5888 13.0018 16.6604 13.2571 16.6467 13.5151C16.6329 13.7731 16.5346 14.0193 16.367 14.2159L16.2431 14.3415L14.7165 15.4748C14.6431 15.528 14.5914 15.606 14.571 15.6944C14.5507 15.7828 14.563 15.8756 14.6059 15.9555C14.9528 16.5833 15.5657 17.5201 16.2695 18.2239C16.9749 18.9276 17.9546 19.5819 18.6254 19.9668C18.7708 20.0494 18.9459 20.023 19.0648 19.9156L19.1276 19.8412L20.1205 18.3296C20.3028 18.0868 20.572 17.924 20.8717 17.8753C21.1714 17.8266 21.4783 17.8959 21.728 18.0686L22.6251 18.6947C23.5172 19.3308 24.3746 20.0147 25.0536 20.8821C25.1799 21.0447 25.2602 21.2384 25.286 21.4427C25.3119 21.647 25.2824 21.8545 25.2007 22.0435C24.5464 23.57 22.8894 24.8702 21.1679 24.8074L20.9053 24.7909L20.5897 24.7612C20.5301 24.7541 20.4707 24.7464 20.4113 24.738L20.0181 24.6719C18.4916 24.3845 16.0448 23.5188 13.5089 20.9845C10.9746 18.4485 10.1089 16.0018 9.82142 14.4753L9.75534 14.0821L9.71404 13.7385L9.69256 13.4493C9.68994 13.4081 9.68774 13.3668 9.68595 13.3254C9.62317 11.6007 10.93 9.94362 12.4581 9.28939Z" fill="#F6F7F9"/>
</svg>
