<svg width="26" height="26" viewBox="0 0 26 26" fill="none" xmlns="http://www.w3.org/2000/svg">
<path d="M15.9106 0.0092904C16.3008 0.185808 16.5888 0.436649 16.6539 0.91046C16.7468 1.52363 16.2729 2.10892 15.6691 2.10892C12.5475 2.10892 9.43521 2.09034 6.31364 2.10892C4.9944 2.10892 4.00962 2.72209 3.40574 3.91126C3.19206 4.32933 3.08987 4.78456 3.08987 5.24908C3.08987 10.0708 3.08057 14.9018 3.08987 19.7235C3.08987 20.476 3.33142 21.1728 3.85168 21.7674C4.49272 22.5106 5.29169 22.873 6.26718 22.873H16.5888V22.6128C16.5888 21.275 16.5888 19.9279 16.5888 18.5901C16.5888 17.8654 16.8582 17.2523 17.3228 16.6949C17.8337 16.0817 18.4934 15.7658 19.2645 15.6172C19.3388 15.6079 19.4131 15.6172 19.4874 15.6172C20.8438 15.6172 22.2002 15.6172 23.5566 15.6172H23.8539V10.4238C23.8539 9.8757 24.1977 9.44834 24.7737 9.34615C25.2103 9.26253 25.6655 9.4855 25.9071 9.97789C25.9535 10.0615 25.9721 10.1637 26 10.2566V17.3731C25.9721 17.5774 25.935 17.7725 25.8978 17.9769C25.7213 18.9989 25.2753 19.9 24.5507 20.6433C23.5009 21.721 22.4232 22.7801 21.3269 23.8206C20.723 24.3966 19.9798 24.7032 19.1716 24.889C18.9021 24.954 18.6141 24.9912 18.3354 25.0376H5.87699C5.73763 25.0191 5.59827 25.0098 5.45892 24.9819C4.42768 24.8054 3.48935 24.3966 2.70896 23.6905C1.96573 23.0123 1.42688 22.1855 1.17604 21.2007C1.11101 20.9499 1.05527 20.699 0.990234 20.4482V4.54301C1.05527 4.29217 1.10172 4.04133 1.17604 3.79048C1.44546 2.83357 1.94715 2.02531 2.69038 1.34711C3.20135 0.873298 3.78665 0.520263 4.43697 0.297293C4.79001 0.176518 5.16163 0.102194 5.52395 0H15.9106V0.0092904ZM18.6885 22.7894C19.1994 22.6407 19.6547 22.4549 20.017 22.1019C21.0482 21.0799 22.0795 20.058 23.1014 19.0175C23.4544 18.6644 23.6495 18.2092 23.7796 17.6982H23.4916C22.3117 17.6982 21.1225 17.7075 19.9427 17.6982C19.1901 17.6889 18.6885 18.1813 18.6977 18.9431C18.7163 20.1323 18.6977 21.3122 18.6977 22.5014V22.7894H18.6885Z" fill="#EB99BD"/>
<path d="M8.07833 19.7979C7.8182 19.7979 7.55807 19.7979 7.29794 19.7979C6.63832 19.8165 6.1738 19.352 6.16451 18.6831C6.16451 18.2 6.14593 17.7261 6.16451 17.243C6.22954 15.8588 6.70335 14.651 7.69742 13.6569C11.8967 9.45769 16.0959 5.26772 20.2859 1.05916C20.9641 0.380963 21.7538 0.0465088 22.7107 0.0465088C23.4168 0.0465088 24.0485 0.241607 24.6152 0.631804C25.3213 1.11491 25.7394 1.7931 25.8973 2.62924C26.0738 3.62331 25.8787 4.53377 25.2563 5.34204C25.2098 5.39778 25.1541 5.45352 25.1076 5.49998C20.8062 9.80143 16.5047 14.1029 12.2033 18.4043C11.5065 19.1011 10.6425 19.5285 9.66699 19.6957C9.14673 19.7793 8.60788 19.7979 8.08762 19.8351C8.08762 19.8258 8.08762 19.8072 8.08762 19.7979M8.31988 17.6425C9.36041 17.754 10.2058 17.3917 10.9119 16.6949C15.0833 12.5328 19.2547 8.36142 23.4168 4.19003C23.4539 4.15287 23.4911 4.125 23.519 4.08783C24.1507 3.40034 23.807 2.48989 23.0638 2.22975C22.5807 2.05324 22.1719 2.22046 21.8281 2.56421C17.6846 6.70773 13.5318 10.8512 9.38828 15.0041C9.23963 15.162 9.0817 15.3199 8.95163 15.4872C8.45924 16.1189 8.27343 16.8436 8.31059 17.6518" fill="#EB99BD"/>
</svg>
