<svg width="22" height="22" viewBox="0 0 22 22" fill="none" xmlns="http://www.w3.org/2000/svg">
<path d="M10.9999 19.8C13.3338 19.8 15.5721 18.8729 17.2224 17.2225C18.8727 15.5722 19.7999 13.3339 19.7999 11C19.7999 8.66609 18.8727 6.42778 17.2224 4.77746C15.5721 3.12714 13.3338 2.2 10.9999 2.2C8.66597 2.2 6.42766 3.12714 4.77734 4.77746C3.12702 6.42778 2.19988 8.66609 2.19988 11C2.19988 13.3339 3.12702 15.5722 4.77734 17.2225C6.42766 18.8729 8.66597 19.8 10.9999 19.8ZM10.9999 22C4.92458 22 -0.00012207 17.0753 -0.00012207 11C-0.00012207 4.9247 4.92458 0 10.9999 0C17.0752 0 21.9999 4.9247 21.9999 11C21.9999 17.0753 17.0752 22 10.9999 22Z" fill="#EB99BD"/>
<path d="M14.2152 7.17871H7.78458C6.52288 7.17871 5.49988 8.19071 5.49988 9.43811V12.6171C5.49988 13.8656 6.52288 14.8765 7.78458 14.8765H14.2152C15.4769 14.8765 16.4999 13.8645 16.4999 12.6171V9.43811C16.4999 8.18961 15.4769 7.17871 14.2152 7.17871ZM12.6708 11.1827L9.66228 12.6017C9.64387 12.6104 9.62357 12.6143 9.60325 12.6131C9.58294 12.6119 9.56326 12.6055 9.54604 12.5947C9.52882 12.5838 9.51462 12.5688 9.50475 12.551C9.49488 12.5332 9.48966 12.5132 9.48958 12.4928V9.56681C9.48976 9.54619 9.49521 9.52596 9.50541 9.50804C9.51561 9.49012 9.53021 9.4751 9.54784 9.46442C9.56548 9.45373 9.58555 9.44772 9.60615 9.44697C9.62676 9.44621 9.64721 9.45074 9.66558 9.46011L12.673 10.9671C12.6928 10.9774 12.7093 10.993 12.7207 11.0122C12.7322 11.0313 12.7382 11.0533 12.7379 11.0756C12.7377 11.0979 12.7313 11.1197 12.7195 11.1386C12.7076 11.1575 12.6908 11.1728 12.6708 11.1827Z" fill="#EB99BD"/>
</svg>
